<?xml version="1.0" encoding="UTF-8" standalone="no"?>
<!-- Created with Inkscape (http://www.inkscape.org/) -->

<svg
   width="135mm"
   height="135.00008mm"
   viewBox="0 0 135 135.00008"
   version="1.1"
   id="svg1"
   xml:space="preserve"
   xmlns="http://www.w3.org/2000/svg"
   xmlns:svg="http://www.w3.org/2000/svg"><defs
     id="defs1" /><g
     id="layer1"
     transform="translate(-10,-10.000001)"><g
       id="layer1-3"
       stroke="#000000"
       transform="matrix(0.03000018,0,0,0.03000018,9.999985,8.4291155)"><rect
         id="rect1872"
         stroke-linejoin="round"
         fill-rule="evenodd"
         rx="50"
         ry="50"
         height="972.47998"
         width="472.48001"
         y="66.121002"
         x="13.759"
         stroke-width="27.517"
         fill="#ffffff" /><path
         id="path15666"
         stroke-width="10px"
         fill="none"
         d="M 45,552.36 H 455" /></g><g
       id="g1"
       transform="matrix(0.03000018,0,0,0.03000018,29.999985,9.9999849)"><g
         id="layer1-4"
         stroke="#000000"
         transform="translate(0,-52.362)"><rect
           id="rect1872-3"
           stroke-linejoin="round"
           fill-rule="evenodd"
           rx="50"
           ry="50"
           height="972.47998"
           width="472.48001"
           y="66.121002"
           x="13.759"
           stroke-width="27.517"
           fill="#ffffff" /><path
           id="path15666-3"
           stroke-width="10px"
           fill="none"
           d="M 45,552.36 H 455" /></g><g
         id="layer2"
         transform="translate(0,-52.362)"><circle
           id="circle10"
           cy="792"
           cx="250"
           r="50" /></g></g><g
       id="g2"
       transform="matrix(0.03000018,0,0,0.03000018,49.999985,9.9999849)"><g
         id="layer1-5"
         stroke="#000000"
         transform="translate(0,-52.362)"><rect
           id="rect1872-0"
           stroke-linejoin="round"
           fill-rule="evenodd"
           rx="50"
           ry="50"
           height="972.47998"
           width="472.48001"
           y="66.121002"
           x="13.759"
           stroke-width="27.517"
           fill="#ffffff" /><path
           id="path15666-0"
           stroke-width="10px"
           fill="none"
           d="M 45,552.36 H 455" /></g><g
         id="layer2-3"
         transform="translate(0,-52.362)"><circle
           id="circle10-4"
           cy="936"
           cx="110"
           r="50" /><circle
           id="circle12"
           cy="648"
           cx="390"
           r="50" /></g></g><g
       id="g3"
       transform="matrix(0.03000018,0,0,0.03000015,69.999985,9.9999868)"><g
         id="layer1-7"
         stroke="#000000"
         transform="translate(0,-52.362)"><rect
           id="rect1872-09"
           stroke-linejoin="round"
           fill-rule="evenodd"
           rx="50"
           ry="50"
           height="972.47998"
           width="472.48001"
           y="66.121002"
           x="13.759"
           stroke-width="27.517"
           fill="#ffffff" /><path
           id="path15666-05"
           stroke-width="10px"
           fill="none"
           d="M 45,552.36 H 455" /></g><g
         id="layer2-5"
         transform="translate(0,-52.362)"><circle
           id="circle10-8"
           cy="936"
           cx="110"
           r="50" /><circle
           id="circle12-9"
           cy="792"
           cx="250"
           r="50" /><circle
           id="circle14"
           cy="648"
           cx="390"
           r="50" /></g></g><g
       id="g4"
       transform="matrix(0.03000018,0,0,0.03000018,89.999985,9.9999849)"><g
         id="layer1-1"
         stroke="#000000"
         transform="translate(0,-52.362)"><rect
           id="rect1872-099"
           stroke-linejoin="round"
           fill-rule="evenodd"
           rx="50"
           ry="50"
           height="972.47998"
           width="472.48001"
           y="66.121002"
           x="13.759"
           stroke-width="27.517"
           fill="#ffffff" /><path
           id="path15666-06"
           stroke-width="10px"
           fill="none"
           d="M 45,552.36 H 455" /></g><g
         id="layer2-4"
         transform="translate(0,-52.362)"><circle
           id="circle10-9"
           cy="936"
           cx="110"
           r="50" /><circle
           id="circle12-2"
           cy="648"
           cx="110"
           r="50" /><circle
           id="circle14-9"
           cy="936"
           cx="390"
           r="50" /><circle
           id="circle16"
           cy="648"
           cx="390"
           r="50" /></g></g><g
       id="g5"
       transform="matrix(0.03000018,0,0,0.03000018,109.99999,9.9999849)"><g
         id="layer1-9"
         stroke="#000000"
         transform="translate(0,-52.362)"><rect
           id="rect1872-6"
           stroke-linejoin="round"
           fill-rule="evenodd"
           rx="50"
           ry="50"
           height="972.47998"
           width="472.48001"
           y="66.121002"
           x="13.759"
           stroke-width="27.517"
           fill="#ffffff" /><path
           id="path15666-8"
           stroke-width="10px"
           fill="none"
           d="M 45,552.36 H 455" /></g><g
         id="layer2-8"
         transform="translate(0,-52.362)"><circle
           id="circle26"
           cy="936"
           cx="110"
           r="50" /><circle
           id="circle28"
           cy="648"
           cx="110"
           r="50" /><circle
           id="circle30"
           cy="936"
           cx="390"
           r="50" /><circle
           id="circle32"
           cy="648"
           cx="390"
           r="50" /><circle
           id="circle34"
           cy="792"
           cx="250"
           r="50" /></g></g><g
       id="g6"
       transform="matrix(0.03000018,0,0,0.03000018,129.99999,9.9999849)"><g
         id="layer1-8"
         stroke="#000000"
         transform="translate(0,-52.362)"><rect
           id="rect1872-8"
           stroke-linejoin="round"
           fill-rule="evenodd"
           rx="50"
           ry="50"
           height="972.47998"
           width="472.48001"
           y="66.121002"
           x="13.759"
           stroke-width="27.517"
           fill="#ffffff" /><path
           id="path15666-6"
           stroke-width="10px"
           fill="none"
           d="M 45,552.36 H 455" /></g><g
         id="layer2-6"
         transform="translate(0,-52.362)"><circle
           id="circle44"
           cy="936"
           cx="110"
           r="50" /><circle
           id="circle46"
           cy="792"
           cx="110"
           r="50" /><circle
           id="circle48"
           cy="648"
           cx="110"
           r="50" /><circle
           id="circle50"
           cy="936"
           cx="390"
           r="50" /><circle
           id="circle52"
           cy="792"
           cx="390"
           r="50" /><circle
           id="circle54"
           cy="648"
           cx="390"
           r="50" /></g></g><g
       id="g7"
       transform="matrix(0.03000018,0,0,0.03000018,9.999985,44.999985)"><g
         id="layer1-48"
         stroke="#000000"
         transform="translate(0,-52.362)"><rect
           id="rect1872-7"
           stroke-linejoin="round"
           fill-rule="evenodd"
           rx="50"
           ry="50"
           height="972.47998"
           width="472.48001"
           y="66.121002"
           x="13.759"
           stroke-width="27.517"
           fill="#ffffff" /><path
           id="path15666-7"
           stroke-width="10px"
           fill="none"
           d="M 45,552.36 H 455" /></g><g
         id="layer2-9"
         transform="translate(0,-52.362)"><circle
           id="circle32-0"
           cy="312"
           cx="250"
           r="50" /><circle
           id="circle34-7"
           cy="792"
           cx="250"
           r="50" /></g></g><g
       id="g8"
       transform="matrix(0.03000018,0,0,0.03000018,29.999985,44.999985)"><g
         id="layer1-87"
         stroke="#000000"
         transform="translate(0,-52.362)"><rect
           id="rect1872-37"
           stroke-linejoin="round"
           fill-rule="evenodd"
           rx="50"
           ry="50"
           height="972.47998"
           width="472.48001"
           y="66.121002"
           x="13.759"
           stroke-width="27.517"
           fill="#ffffff" /><path
           id="path15666-66"
           stroke-width="10px"
           fill="none"
           d="M 45,552.36 H 455" /></g><g
         id="layer2-7"
         transform="translate(0,-52.362)"><circle
           id="circle44-0"
           cy="312"
           cx="250"
           r="50" /><circle
           id="circle46-9"
           cy="936"
           cx="110"
           r="50" /><circle
           id="circle48-8"
           cy="648"
           cx="390"
           r="50" /></g></g><g
       id="g9"
       transform="matrix(0.03000018,0,0,0.03000018,49.999985,44.999985)"><g
         id="layer1-52"
         stroke="#000000"
         transform="translate(0,-52.362)"><rect
           id="rect1872-5"
           stroke-linejoin="round"
           fill-rule="evenodd"
           rx="50"
           ry="50"
           height="972.47998"
           width="472.48001"
           y="66.121002"
           x="13.759"
           stroke-width="27.517"
           fill="#ffffff" /><path
           id="path15666-9"
           stroke-width="10px"
           fill="none"
           d="M 45,552.36 H 455" /></g><g
         id="layer2-95"
         transform="translate(0,-52.362)"><circle
           id="circle58"
           cy="312"
           cx="250"
           r="50" /><circle
           id="circle60"
           cy="936"
           cx="110"
           r="50" /><circle
           id="circle62"
           cy="792"
           cx="250"
           r="50" /><circle
           id="circle64"
           cy="648"
           cx="390"
           r="50" /></g></g><g
       id="g10"
       transform="matrix(0.03000018,0,0,0.03000018,69.999985,44.999985)"><g
         id="layer1-40"
         stroke="#000000"
         transform="translate(0,-52.362)"><rect
           id="rect1872-1"
           stroke-linejoin="round"
           fill-rule="evenodd"
           rx="50"
           ry="50"
           height="972.47998"
           width="472.48001"
           y="66.121002"
           x="13.759"
           stroke-width="27.517"
           fill="#ffffff" /><path
           id="path15666-99"
           stroke-width="10px"
           fill="none"
           d="M 45,552.36 H 455" /></g><g
         id="layer2-80"
         transform="translate(0,-52.362)"><circle
           id="circle74"
           cy="312"
           cx="250"
           r="50" /><circle
           id="circle76"
           cy="936"
           cx="110"
           r="50" /><circle
           id="circle78"
           cy="648"
           cx="110"
           r="50" /><circle
           id="circle80"
           cy="936"
           cx="390"
           r="50" /><circle
           id="circle82"
           cy="648"
           cx="390"
           r="50" /></g></g><g
       id="g11"
       transform="matrix(0.03000018,0,0,0.03000018,89.999985,44.999985)"><g
         id="layer1-97"
         stroke="#000000"
         transform="translate(0,-52.362)"><rect
           id="rect1872-19"
           stroke-linejoin="round"
           fill-rule="evenodd"
           rx="50"
           ry="50"
           height="972.47998"
           width="472.48001"
           y="66.121002"
           x="13.759"
           stroke-width="27.517"
           fill="#ffffff" /><path
           id="path15666-65"
           stroke-width="10px"
           fill="none"
           d="M 45,552.36 H 455" /></g><g
         id="layer2-2"
         transform="translate(0,-52.362)"><circle
           id="circle92"
           cy="312"
           cx="250"
           r="50" /><circle
           id="circle94"
           cy="936"
           cx="110"
           r="50" /><circle
           id="circle96"
           cy="648"
           cx="110"
           r="50" /><circle
           id="circle98"
           cy="936"
           cx="390"
           r="50" /><circle
           id="circle100"
           cy="648"
           cx="390"
           r="50" /><circle
           id="circle102"
           cy="792"
           cx="250"
           r="50" /></g></g><g
       id="g12"
       transform="matrix(0.03000018,0,0,0.03000018,109.99999,44.999985)"><g
         id="layer1-2"
         stroke="#000000"
         transform="translate(0,-52.362)"><rect
           id="rect1872-4"
           stroke-linejoin="round"
           fill-rule="evenodd"
           rx="50"
           ry="50"
           height="972.47998"
           width="472.48001"
           y="66.121002"
           x="13.759"
           stroke-width="27.517"
           fill="#ffffff" /><path
           id="path15666-4"
           stroke-width="10px"
           fill="none"
           d="M 45,552.36 H 455" /></g><g
         id="layer2-42"
         transform="translate(0,-52.362)"><circle
           id="circle10-45"
           cy="312"
           cx="250"
           r="50" /><circle
           id="circle12-3"
           cy="936"
           cx="110"
           r="50" /><circle
           id="circle14-5"
           cy="792"
           cx="110"
           r="50" /><circle
           id="circle16-1"
           cy="648"
           cx="110"
           r="50" /><circle
           id="circle18"
           cy="936"
           cx="390"
           r="50" /><circle
           id="circle20"
           cy="792"
           cx="390"
           r="50" /><circle
           id="circle22"
           cy="648"
           cx="390"
           r="50" /></g></g><g
       id="g13"
       transform="matrix(0.03000018,0,0,0.03000018,129.99999,44.999985)"><g
         id="layer1-71"
         stroke="#000000"
         transform="translate(0,-52.362)"><rect
           id="rect1872-36"
           stroke-linejoin="round"
           fill-rule="evenodd"
           rx="50"
           ry="50"
           height="972.47998"
           width="472.48001"
           y="66.121002"
           x="13.759"
           stroke-width="27.517"
           fill="#ffffff" /><path
           id="path15666-057"
           stroke-width="10px"
           fill="none"
           d="M 45,552.36 H 455" /></g><g
         id="layer2-1"
         transform="translate(0,-52.362)"><circle
           id="circle48-4"
           cy="456"
           cx="110"
           r="50" /><circle
           id="circle50-6"
           cy="168"
           cx="390"
           r="50" /><circle
           id="circle52-0"
           cy="936"
           cx="110"
           r="50" /><circle
           id="circle54-4"
           cy="648"
           cx="390"
           r="50" /></g></g><g
       id="g14"
       transform="matrix(0.03000018,0,0,0.03000018,9.999985,79.999985)"><g
         id="layer1-84"
         stroke="#000000"
         transform="translate(0,-52.362)"><rect
           id="rect1872-9"
           stroke-linejoin="round"
           fill-rule="evenodd"
           rx="50"
           ry="50"
           height="972.47998"
           width="472.48001"
           y="66.121002"
           x="13.759"
           stroke-width="27.517"
           fill="#ffffff" /><path
           id="path15666-1"
           stroke-width="10px"
           fill="none"
           d="M 45,552.36 H 455" /></g><g
         id="layer2-34"
         transform="translate(0,-52.362)"><circle
           id="circle64-7"
           cy="456"
           cx="110"
           r="50" /><circle
           id="circle66"
           cy="168"
           cx="390"
           r="50" /><circle
           id="circle68"
           cy="936"
           cx="110"
           r="50" /><circle
           id="circle70"
           cy="792"
           cx="250"
           r="50" /><circle
           id="circle72"
           cy="648"
           cx="390"
           r="50" /></g></g><g
       id="g15"
       transform="matrix(0.03000018,0,0,0.03000018,29.999985,79.999985)"><g
         id="layer1-86"
         stroke="#000000"
         transform="translate(0,-52.362)"><rect
           id="rect1872-94"
           stroke-linejoin="round"
           fill-rule="evenodd"
           rx="50"
           ry="50"
           height="972.47998"
           width="472.48001"
           y="66.121002"
           x="13.759"
           stroke-width="27.517"
           fill="#ffffff" /><path
           id="path15666-16"
           stroke-width="10px"
           fill="none"
           d="M 45,552.36 H 455" /></g><g
         id="layer2-83"
         transform="translate(0,-52.362)"><circle
           id="circle82-4"
           cy="456"
           cx="110"
           r="50" /><circle
           id="circle84"
           cy="168"
           cx="390"
           r="50" /><circle
           id="circle86"
           cy="936"
           cx="110"
           r="50" /><circle
           id="circle88"
           cy="648"
           cx="110"
           r="50" /><circle
           id="circle90"
           cy="936"
           cx="390"
           r="50" /><circle
           id="circle92-3"
           cy="648"
           cx="390"
           r="50" /></g></g><g
       id="g16"
       transform="matrix(0.03000018,0,0,0.03000018,49.999985,79.999985)"><g
         id="layer1-28"
         stroke="#000000"
         transform="translate(0,-52.362)"><rect
           id="rect1872-63"
           stroke-linejoin="round"
           fill-rule="evenodd"
           rx="50"
           ry="50"
           height="972.47998"
           width="472.48001"
           y="66.121002"
           x="13.759"
           stroke-width="27.517"
           fill="#ffffff" /><path
           id="path15666-92"
           stroke-width="10px"
           fill="none"
           d="M 45,552.36 H 455" /></g><g
         id="layer2-29"
         transform="translate(0,-52.362)"><circle
           id="circle102-2"
           cy="456"
           cx="110"
           r="50" /><circle
           id="circle104"
           cy="168"
           cx="390"
           r="50" /><circle
           id="circle106"
           cy="936"
           cx="110"
           r="50" /><circle
           id="circle108"
           cy="648"
           cx="110"
           r="50" /><circle
           id="circle110"
           cy="936"
           cx="390"
           r="50" /><circle
           id="circle112"
           cy="648"
           cx="390"
           r="50" /><circle
           id="circle114"
           cy="792"
           cx="250"
           r="50" /></g></g><g
       id="g17"
       transform="matrix(0.03000018,0,0,0.03000018,69.999985,79.999985)"><g
         id="layer1-49"
         stroke="#000000"
         transform="translate(0,-52.362)"><rect
           id="rect1872-45"
           stroke-linejoin="round"
           fill-rule="evenodd"
           rx="50"
           ry="50"
           height="972.47998"
           width="472.48001"
           y="66.121002"
           x="13.759"
           stroke-width="27.517"
           fill="#ffffff" /><path
           id="path15666-5"
           stroke-width="10px"
           fill="none"
           d="M 45,552.36 H 455" /></g><g
         id="layer2-25"
         transform="translate(0,-52.362)"><circle
           id="circle124"
           cy="456"
           cx="110"
           r="50" /><circle
           id="circle126"
           cy="168"
           cx="390"
           r="50" /><circle
           id="circle128"
           cy="936"
           cx="110"
           r="50" /><circle
           id="circle130"
           cy="792"
           cx="110"
           r="50" /><circle
           id="circle132"
           cy="648"
           cx="110"
           r="50" /><circle
           id="circle134"
           cy="936"
           cx="390"
           r="50" /><circle
           id="circle136"
           cy="792"
           cx="390"
           r="50" /><circle
           id="circle138"
           cy="648"
           cx="390"
           r="50" /></g></g><g
       id="g18"
       transform="matrix(0.03000018,0,0,0.03000018,89.999985,79.999985)"><g
         id="layer1-76"
         stroke="#000000"
         transform="translate(0,-52.362)"><rect
           id="rect1872-99"
           stroke-linejoin="round"
           fill-rule="evenodd"
           rx="50"
           ry="50"
           height="972.47998"
           width="472.48001"
           y="66.121002"
           x="13.759"
           stroke-width="27.517"
           fill="#ffffff" /><path
           id="path15666-34"
           stroke-width="10px"
           fill="none"
           d="M 45,552.36 H 455" /></g><g
         id="layer2-51"
         transform="translate(0,-52.362)"><circle
           id="circle148"
           cy="456"
           cx="110"
           r="50" /><circle
           id="circle150"
           cy="312"
           cx="250"
           r="50" /><circle
           id="circle152"
           cy="168"
           cx="390"
           r="50" /><circle
           id="circle154"
           cy="936"
           cx="110"
           r="50" /><circle
           id="circle156"
           cy="792"
           cx="250"
           r="50" /><circle
           id="circle158"
           cy="648"
           cx="390"
           r="50" /></g></g><g
       id="g19"
       transform="matrix(0.03000018,0,0,0.03000018,109.99999,79.999985)"><g
         id="layer1-95"
         stroke="#000000"
         transform="translate(0,-52.362)"><rect
           id="rect1872-65"
           stroke-linejoin="round"
           fill-rule="evenodd"
           rx="50"
           ry="50"
           height="972.47998"
           width="472.48001"
           y="66.121002"
           x="13.759"
           stroke-width="27.517"
           fill="#ffffff" /><path
           id="path15666-76"
           stroke-width="10px"
           fill="none"
           d="M 45,552.36 H 455" /></g><g
         id="layer2-35"
         transform="translate(0,-52.362)"><circle
           id="circle168"
           cy="456"
           cx="110"
           r="50" /><circle
           id="circle170"
           cy="312"
           cx="250"
           r="50" /><circle
           id="circle172"
           cy="168"
           cx="390"
           r="50" /><circle
           id="circle174"
           cy="936"
           cx="110"
           r="50" /><circle
           id="circle176"
           cy="648"
           cx="110"
           r="50" /><circle
           id="circle178"
           cy="936"
           cx="390"
           r="50" /><circle
           id="circle180"
           cy="648"
           cx="390"
           r="50" /></g></g><g
       id="g20"
       transform="matrix(0.03000018,0,0,0.03000018,129.99999,79.999985)"><g
         id="layer1-50"
         stroke="#000000"
         transform="translate(0,-52.362)"><rect
           id="rect1872-97"
           stroke-linejoin="round"
           fill-rule="evenodd"
           rx="50"
           ry="50"
           height="972.47998"
           width="472.48001"
           y="66.121002"
           x="13.759"
           stroke-width="27.517"
           fill="#ffffff" /><path
           id="path15666-33"
           stroke-width="10px"
           fill="none"
           d="M 45,552.36 H 455" /></g><g
         id="layer2-20"
         transform="translate(0,-52.362)"><circle
           id="circle190"
           cy="456"
           cx="110"
           r="50" /><circle
           id="circle192"
           cy="312"
           cx="250"
           r="50" /><circle
           id="circle194"
           cy="168"
           cx="390"
           r="50" /><circle
           id="circle196"
           cy="936"
           cx="110"
           r="50" /><circle
           id="circle198"
           cy="648"
           cx="110"
           r="50" /><circle
           id="circle200"
           cy="936"
           cx="390"
           r="50" /><circle
           id="circle202"
           cy="648"
           cx="390"
           r="50" /><circle
           id="circle204"
           cy="792"
           cx="250"
           r="50" /></g></g><g
       id="g21"
       transform="matrix(0.03000018,0,0,0.03000018,9.999985,114.99998)"><g
         id="layer1-27"
         stroke="#000000"
         transform="translate(0,-52.362)"><rect
           id="rect1872-05"
           stroke-linejoin="round"
           fill-rule="evenodd"
           rx="50"
           ry="50"
           height="972.47998"
           width="472.48001"
           y="66.121002"
           x="13.759"
           stroke-width="27.517"
           fill="#ffffff" /><path
           id="path15666-14"
           stroke-width="10px"
           fill="none"
           d="M 45,552.36 H 455" /></g><g
         id="layer2-52"
         transform="translate(0,-52.362)"><circle
           id="circle214"
           cy="456"
           cx="110"
           r="50" /><circle
           id="circle216"
           cy="312"
           cx="250"
           r="50" /><circle
           id="circle218"
           cy="168"
           cx="390"
           r="50" /><circle
           id="circle220"
           cy="936"
           cx="110"
           r="50" /><circle
           id="circle222"
           cy="792"
           cx="110"
           r="50" /><circle
           id="circle224"
           cy="648"
           cx="110"
           r="50" /><circle
           id="circle226"
           cy="936"
           cx="390"
           r="50" /><circle
           id="circle228"
           cy="792"
           cx="390"
           r="50" /><circle
           id="circle230"
           cy="648"
           cx="390"
           r="50" /></g></g><g
       id="g22"
       transform="matrix(0.03000018,0,0,0.03000018,29.999985,114.99998)"><g
         id="layer1-507"
         stroke="#000000"
         transform="translate(0,-52.362)"><rect
           id="rect1872-48"
           stroke-linejoin="round"
           fill-rule="evenodd"
           rx="50"
           ry="50"
           height="972.47998"
           width="472.48001"
           y="66.121002"
           x="13.759"
           stroke-width="27.517"
           fill="#ffffff" /><path
           id="path15666-09"
           stroke-width="10px"
           fill="none"
           d="M 45,552.36 H 455" /></g><g
         id="layer2-46"
         transform="translate(0,-52.362)"><circle
           id="circle240"
           cy="456"
           cx="110"
           r="50" /><circle
           id="circle242"
           cy="168"
           cx="110"
           r="50" /><circle
           id="circle244"
           cy="456"
           cx="390"
           r="50" /><circle
           id="circle246"
           cy="168"
           cx="390"
           r="50" /><circle
           id="circle248"
           cy="936"
           cx="110"
           r="50" /><circle
           id="circle250"
           cy="648"
           cx="110"
           r="50" /><circle
           id="circle252"
           cy="936"
           cx="390"
           r="50" /><circle
           id="circle254"
           cy="648"
           cx="390"
           r="50" /></g></g><g
       id="g23"
       transform="matrix(0.03000018,0,0,0.03000018,49.999985,114.99998)"><g
         id="layer1-85"
         stroke="#000000"
         transform="translate(0,-52.362)"><rect
           id="rect1872-18"
           stroke-linejoin="round"
           fill-rule="evenodd"
           rx="50"
           ry="50"
           height="972.47998"
           width="472.48001"
           y="66.121002"
           x="13.759"
           stroke-width="27.517"
           fill="#ffffff" /><path
           id="path15666-03"
           stroke-width="10px"
           fill="none"
           d="M 45,552.36 H 455" /></g><g
         id="layer2-0"
         transform="translate(0,-52.362)"><circle
           id="circle264"
           cy="456"
           cx="110"
           r="50" /><circle
           id="circle266"
           cy="168"
           cx="110"
           r="50" /><circle
           id="circle268"
           cy="456"
           cx="390"
           r="50" /><circle
           id="circle270"
           cy="168"
           cx="390"
           r="50" /><circle
           id="circle272"
           cy="936"
           cx="110"
           r="50" /><circle
           id="circle274"
           cy="648"
           cx="110"
           r="50" /><circle
           id="circle276"
           cy="936"
           cx="390"
           r="50" /><circle
           id="circle278"
           cy="648"
           cx="390"
           r="50" /><circle
           id="circle280"
           cy="792"
           cx="250"
           r="50" /></g></g><g
       id="g24"
       transform="matrix(0.03000018,0,0,0.03000018,69.999985,114.99998)"><g
         id="layer1-41"
         stroke="#000000"
         transform="translate(0,-52.362)"><rect
           id="rect1872-61"
           stroke-linejoin="round"
           fill-rule="evenodd"
           rx="50"
           ry="50"
           height="972.47998"
           width="472.48001"
           y="66.121002"
           x="13.759"
           stroke-width="27.517"
           fill="#ffffff" /><path
           id="path15666-095"
           stroke-width="10px"
           fill="none"
           d="M 45,552.36 H 455" /></g><g
         id="layer2-68"
         transform="translate(0,-52.362)"><circle
           id="circle290"
           cy="456"
           cx="110"
           r="50" /><circle
           id="circle292"
           cy="168"
           cx="110"
           r="50" /><circle
           id="circle294"
           cy="456"
           cx="390"
           r="50" /><circle
           id="circle296"
           cy="168"
           cx="390"
           r="50" /><circle
           id="circle298"
           cy="936"
           cx="110"
           r="50" /><circle
           id="circle300"
           cy="792"
           cx="110"
           r="50" /><circle
           id="circle302"
           cy="648"
           cx="110"
           r="50" /><circle
           id="circle304"
           cy="936"
           cx="390"
           r="50" /><circle
           id="circle306"
           cy="792"
           cx="390"
           r="50" /><circle
           id="circle308"
           cy="648"
           cx="390"
           r="50" /></g></g><g
       id="g25"
       transform="matrix(0.03000018,0,0,0.03000018,89.999985,114.99998)"><g
         id="layer1-718"
         stroke="#000000"
         transform="translate(0,-52.362)"><rect
           id="rect1872-52"
           stroke-linejoin="round"
           fill-rule="evenodd"
           rx="50"
           ry="50"
           height="972.47998"
           width="472.48001"
           y="66.121002"
           x="13.759"
           stroke-width="27.517"
           fill="#ffffff" /><path
           id="path15666-2"
           stroke-width="10px"
           fill="none"
           d="M 45,552.36 H 455" /></g><g
         id="layer2-72"
         transform="translate(0,-52.362)"><circle
           id="circle318"
           cy="456"
           cx="110"
           r="50" /><circle
           id="circle320"
           cy="168"
           cx="110"
           r="50" /><circle
           id="circle322"
           cy="456"
           cx="390"
           r="50" /><circle
           id="circle324"
           cy="168"
           cx="390"
           r="50" /><circle
           id="circle326"
           cy="312"
           cx="250"
           r="50" /><circle
           id="circle328"
           cy="936"
           cx="110"
           r="50" /><circle
           id="circle330"
           cy="648"
           cx="110"
           r="50" /><circle
           id="circle332"
           cy="936"
           cx="390"
           r="50" /><circle
           id="circle334"
           cy="648"
           cx="390"
           r="50" /><circle
           id="circle336"
           cy="792"
           cx="250"
           r="50" /></g></g><g
       id="g26"
       transform="matrix(0.03000018,0,0,0.03000018,109.99999,114.99998)"><g
         id="layer1-0"
         stroke="#000000"
         transform="translate(0,-52.362)"><rect
           id="rect1872-10"
           stroke-linejoin="round"
           fill-rule="evenodd"
           rx="50"
           ry="50"
           height="972.47998"
           width="472.48001"
           y="66.121002"
           x="13.759"
           stroke-width="27.517"
           fill="#ffffff" /><path
           id="path15666-767"
           stroke-width="10px"
           fill="none"
           d="M 45,552.36 H 455" /></g><g
         id="layer2-426"
         transform="translate(0,-52.362)"><circle
           id="circle346"
           cy="456"
           cx="110"
           r="50" /><circle
           id="circle348"
           cy="168"
           cx="110"
           r="50" /><circle
           id="circle350"
           cy="456"
           cx="390"
           r="50" /><circle
           id="circle352"
           cy="168"
           cx="390"
           r="50" /><circle
           id="circle354"
           cy="312"
           cx="250"
           r="50" /><circle
           id="circle356"
           cy="936"
           cx="110"
           r="50" /><circle
           id="circle358"
           cy="792"
           cx="110"
           r="50" /><circle
           id="circle360"
           cy="648"
           cx="110"
           r="50" /><circle
           id="circle362"
           cy="936"
           cx="390"
           r="50" /><circle
           id="circle364"
           cy="792"
           cx="390"
           r="50" /><circle
           id="circle366"
           cy="648"
           cx="390"
           r="50" /></g></g><g
       id="g27"
       transform="matrix(0.03000018,0,0,0.03000018,129.99999,114.99998)"><g
         id="layer1-56"
         stroke="#000000"
         transform="translate(0,-52.362)"><rect
           id="rect1872-15"
           stroke-linejoin="round"
           fill-rule="evenodd"
           rx="50"
           ry="50"
           height="972.47998"
           width="472.48001"
           y="66.121002"
           x="13.759"
           stroke-width="27.517"
           fill="#ffffff" /><path
           id="path15666-00"
           stroke-width="10px"
           fill="none"
           d="M 45,552.36 H 455" /></g><g
         id="layer2-31"
         transform="translate(0,-52.362)"><circle
           id="circle10-1"
           cy="456"
           cx="110"
           r="50" /><circle
           id="circle12-93"
           cy="312"
           cx="110"
           r="50" /><circle
           id="circle14-4"
           cy="168"
           cx="110"
           r="50" /><circle
           id="circle16-7"
           cy="456"
           cx="390"
           r="50" /><circle
           id="circle18-1"
           cy="312"
           cx="390"
           r="50" /><circle
           id="circle20-3"
           cy="168"
           cx="390"
           r="50" /><circle
           id="circle22-8"
           cy="936"
           cx="110"
           r="50" /><circle
           id="circle24"
           cy="792"
           cx="110"
           r="50" /><circle
           id="circle26-8"
           cy="648"
           cx="110"
           r="50" /><circle
           id="circle28-8"
           cy="936"
           cx="390"
           r="50" /><circle
           id="circle30-2"
           cy="792"
           cx="390"
           r="50" /><circle
           id="circle32-8"
           cy="648"
           cx="390"
           r="50" /></g></g></g></svg>
