<svg xmlns="http://www.w3.org/2000/svg" xmlns:xlink="http://www.w3.org/1999/xlink" xmlns:inkscape="http://www.inkscape.org/namespaces/inkscape" version="1.1" width="204.58724" height="155.1774" viewBox="0 0 204.58724 155.1774">
<g>
<path stroke-width="1.417323" stroke-linecap="butt" stroke-miterlimit="4" stroke-linejoin="miter" fill="none" stroke="#000000" d="M28.484 85.297C28.395 92.965 22.113 99.109 14.445 99.023 6.781 98.941 .633 92.66 .711 84.996 .789 77.328 7.062 71.176 14.73 71.246 22.395 71.32 28.551 77.59 28.484 85.258ZM28.484 85.297"/>
<path stroke-width="1.417323" stroke-linecap="butt" stroke-miterlimit="4" stroke-linejoin="miter" fill="none" stroke="#e50000" d="M93.684 42.777C93.594 50.445 87.309 56.59 79.645 56.504 71.977 56.422 65.828 50.141 65.906 42.477 65.984 34.809 72.258 28.656 79.926 28.727 87.59 28.801 93.75 35.07 93.684 42.738ZM93.684 42.777"/>
<path stroke-width="1.417323" stroke-linecap="butt" stroke-miterlimit="4" stroke-linejoin="miter" fill="none" stroke="#000000" d="M93.684 127.816C93.594 135.484 87.309 141.629 79.645 141.543 71.977 141.461 65.828 135.18 65.906 127.516 65.984 119.848 72.258 113.695 79.926 113.766 87.59 113.84 93.75 120.109 93.684 127.777ZM93.684 127.816"/>
<path stroke-width="1.417323" stroke-linecap="butt" stroke-miterlimit="4" stroke-linejoin="miter" fill="none" stroke="#000000" d="M178.723 42.777C178.633 50.445 172.348 56.59 164.684 56.504 157.016 56.422 150.867 50.141 150.945 42.477 151.023 34.809 157.297 28.656 164.965 28.727 172.633 28.801 178.789 35.07 178.723 42.738ZM178.723 42.777"/>
<path stroke-width="1.417323" stroke-linecap="butt" stroke-miterlimit="4" stroke-linejoin="miter" fill="none" stroke="#e50000" d="M178.723 127.816C178.633 135.484 172.348 141.629 164.684 141.543 157.016 141.461 150.867 135.18 150.945 127.516 151.023 119.848 157.297 113.695 164.965 113.766 172.633 113.84 178.789 120.109 178.723 127.777ZM178.723 127.816"/>
<path stroke-width="2.834637" stroke-linecap="butt" stroke-miterlimit="4" stroke-linejoin="miter" fill="none" stroke="#e50000" d="M26.34 76.77 67.547 49.613"/>
<path stroke-width="2.834643" stroke-linecap="butt" stroke-miterlimit="4" stroke-linejoin="miter" fill="none" stroke="#000000" d="M26.234 91.52 67.641 120.816"/>
<path stroke-width="2.834643" stroke-linecap="butt" stroke-miterlimit="4" stroke-linejoin="miter" fill="none" stroke="#e50000" d="M94.254 42.43 150.352 42.496"/>
<path stroke-width="2.834646" stroke-linecap="butt" stroke-miterlimit="4" stroke-linejoin="miter" fill="none" stroke="#e50000" d="M94.285 127.602 150.504 127.672"/>
<path stroke-width="2.83464" stroke-linecap="butt" stroke-miterlimit="4" stroke-linejoin="miter" fill="none" stroke="#e50000" d="M79.711 56.895 79.754 113.168"/>
<path stroke-width="2.834646" stroke-linecap="butt" stroke-miterlimit="4" stroke-linejoin="miter" fill="none" stroke="#e50000" d="M164.891 56.953 164.934 113.316"/>
<path d="M14.195 83.238C14.289 82.863 14.641 81.48 15.672 81.48 15.742 81.48 16.117 81.48 16.422 81.668 16 81.762 15.719 82.113 15.719 82.488 15.719 82.723 15.883 83.004 16.281 83.004 16.609 83.004 17.078 82.746 17.078 82.137 17.078 81.363 16.211 81.152 15.695 81.152 14.828 81.152 14.312 81.949 14.125 82.277 13.75 81.293 12.953 81.152 12.508 81.152 10.961 81.152 10.094 83.074 10.094 83.449 10.094 83.613 10.258 83.613 10.281 83.613 10.398 83.613 10.445 83.566 10.469 83.449 10.984 81.855 11.969 81.48 12.484 81.48 12.766 81.48 13.281 81.621 13.281 82.488 13.281 82.957 13.023 83.941 12.484 86.051 12.25 86.965 11.711 87.598 11.055 87.598 10.961 87.598 10.633 87.598 10.305 87.41 10.68 87.316 11.008 87.012 11.008 86.59 11.008 86.191 10.68 86.074 10.469 86.074 10 86.074 9.648 86.449 9.648 86.941 9.648 87.621 10.375 87.926 11.031 87.926 12.039 87.926 12.578 86.871 12.602 86.801 12.789 87.34 13.328 87.926 14.219 87.926 15.766 87.926 16.609 86.004 16.609 85.629 16.609 85.465 16.492 85.465 16.445 85.465 16.305 85.465 16.281 85.535 16.234 85.629 15.742 87.246 14.734 87.598 14.266 87.598 13.68 87.598 13.445 87.129 13.445 86.613 13.445 86.285 13.516 85.957 13.68 85.301ZM14.195 83.238"/>
<path d="M21.238 83.348C21.238 83.066 21.238 83.066 20.934 83.066 20.254 83.723 19.316 83.723 18.895 83.723V84.098C19.129 84.098 19.832 84.098 20.395 83.816V89.137C20.395 89.488 20.395 89.629 19.363 89.629H18.965V90.004C19.152 90.004 20.441 89.957 20.816 89.957 21.145 89.957 22.457 90.004 22.691 90.004V89.629H22.293C21.238 89.629 21.238 89.488 21.238 89.137ZM21.238 83.348"/>
<path d="M78.246 40.023C78.34 39.648 78.691 38.266 79.723 38.266 79.793 38.266 80.168 38.266 80.473 38.453 80.051 38.547 79.77 38.898 79.77 39.273 79.77 39.508 79.934 39.789 80.332 39.789 80.66 39.789 81.129 39.531 81.129 38.922 81.129 38.148 80.262 37.938 79.746 37.938 78.879 37.938 78.363 38.734 78.176 39.062 77.801 38.078 77.004 37.938 76.559 37.938 75.012 37.938 74.145 39.859 74.145 40.234 74.145 40.398 74.309 40.398 74.332 40.398 74.449 40.398 74.496 40.352 74.52 40.234 75.035 38.641 76.02 38.266 76.535 38.266 76.816 38.266 77.332 38.406 77.332 39.273 77.332 39.742 77.074 40.727 76.535 42.836 76.301 43.75 75.762 44.383 75.105 44.383 75.012 44.383 74.684 44.383 74.355 44.195 74.73 44.102 75.059 43.797 75.059 43.375 75.059 42.977 74.73 42.859 74.52 42.859 74.051 42.859 73.699 43.234 73.699 43.727 73.699 44.406 74.426 44.711 75.082 44.711 76.09 44.711 76.629 43.656 76.652 43.586 76.84 44.125 77.379 44.711 78.27 44.711 79.816 44.711 80.66 42.789 80.66 42.414 80.66 42.25 80.543 42.25 80.496 42.25 80.355 42.25 80.332 42.32 80.285 42.414 79.793 44.031 78.785 44.383 78.316 44.383 77.73 44.383 77.496 43.914 77.496 43.398 77.496 43.07 77.566 42.742 77.73 42.086ZM78.246 40.023"/>
<path d="M87.07 44.891H86.719C86.695 45.125 86.578 45.734 86.438 45.828 86.367 45.898 85.57 45.898 85.406 45.898H83.484C84.586 44.938 84.961 44.633 85.57 44.141 86.344 43.531 87.07 42.875 87.07 41.891 87.07 40.625 85.969 39.852 84.633 39.852 83.344 39.852 82.453 40.766 82.453 41.727 82.453 42.242 82.898 42.312 83.016 42.312 83.25 42.312 83.555 42.125 83.555 41.75 83.555 41.562 83.484 41.188 82.945 41.188 83.273 40.461 83.977 40.227 84.469 40.227 85.523 40.227 86.062 41.047 86.062 41.891 86.062 42.805 85.406 43.508 85.078 43.883L82.57 46.391C82.453 46.484 82.453 46.508 82.453 46.789H86.766ZM87.07 44.891"/>
<path d="M163.285 40.023C163.379 39.648 163.73 38.266 164.762 38.266 164.832 38.266 165.207 38.266 165.512 38.453 165.09 38.547 164.809 38.898 164.809 39.273 164.809 39.508 164.973 39.789 165.371 39.789 165.699 39.789 166.168 39.531 166.168 38.922 166.168 38.148 165.301 37.938 164.785 37.938 163.918 37.938 163.402 38.734 163.215 39.062 162.84 38.078 162.043 37.938 161.598 37.938 160.051 37.938 159.184 39.859 159.184 40.234 159.184 40.398 159.348 40.398 159.371 40.398 159.488 40.398 159.535 40.352 159.559 40.234 160.074 38.641 161.059 38.266 161.574 38.266 161.855 38.266 162.371 38.406 162.371 39.273 162.371 39.742 162.113 40.727 161.574 42.836 161.34 43.75 160.801 44.383 160.145 44.383 160.051 44.383 159.723 44.383 159.395 44.195 159.77 44.102 160.098 43.797 160.098 43.375 160.098 42.977 159.77 42.859 159.559 42.859 159.09 42.859 158.738 43.234 158.738 43.727 158.738 44.406 159.465 44.711 160.121 44.711 161.129 44.711 161.668 43.656 161.691 43.586 161.879 44.125 162.418 44.711 163.309 44.711 164.855 44.711 165.699 42.789 165.699 42.414 165.699 42.25 165.582 42.25 165.535 42.25 165.395 42.25 165.371 42.32 165.324 42.414 164.832 44.031 163.824 44.383 163.355 44.383 162.77 44.383 162.535 43.914 162.535 43.398 162.535 43.07 162.605 42.742 162.77 42.086ZM163.285 40.023"/>
<path d="M169.695 43.297C170.516 43.297 171.102 43.859 171.102 44.984 171.102 46.273 170.328 46.672 169.742 46.672 169.32 46.672 168.383 46.555 167.961 45.922 168.453 45.922 168.57 45.57 168.57 45.336 168.57 45.008 168.312 44.773 167.984 44.773 167.703 44.773 167.398 44.961 167.398 45.383 167.398 46.367 168.477 47 169.742 47 171.195 47 172.203 46.016 172.203 44.984 172.203 44.164 171.547 43.344 170.398 43.109 171.477 42.711 171.875 41.938 171.875 41.281 171.875 40.461 170.938 39.852 169.766 39.852 168.617 39.852 167.727 40.414 167.727 41.258 167.727 41.609 167.961 41.797 168.266 41.797 168.594 41.797 168.805 41.562 168.805 41.281 168.805 40.977 168.594 40.742 168.266 40.719 168.641 40.273 169.344 40.156 169.742 40.156 170.211 40.156 170.867 40.391 170.867 41.281 170.867 41.727 170.727 42.219 170.445 42.523 170.117 42.922 169.812 42.945 169.297 42.992 169.039 43.016 169.016 43.016 168.969 43.016 168.945 43.016 168.852 43.039 168.852 43.156 168.852 43.297 168.945 43.297 169.133 43.297ZM169.695 43.297"/>
<path d="M163.285 125.062C163.379 124.688 163.73 123.305 164.762 123.305 164.832 123.305 165.207 123.305 165.512 123.492 165.09 123.586 164.809 123.938 164.809 124.312 164.809 124.547 164.973 124.828 165.371 124.828 165.699 124.828 166.168 124.57 166.168 123.961 166.168 123.188 165.301 122.977 164.785 122.977 163.918 122.977 163.402 123.773 163.215 124.102 162.84 123.117 162.043 122.977 161.598 122.977 160.051 122.977 159.184 124.898 159.184 125.273 159.184 125.438 159.348 125.438 159.371 125.438 159.488 125.438 159.535 125.391 159.559 125.273 160.074 123.68 161.059 123.305 161.574 123.305 161.855 123.305 162.371 123.445 162.371 124.312 162.371 124.781 162.113 125.766 161.574 127.875 161.34 128.789 160.801 129.422 160.145 129.422 160.051 129.422 159.723 129.422 159.395 129.234 159.77 129.141 160.098 128.836 160.098 128.414 160.098 128.016 159.77 127.898 159.559 127.898 159.09 127.898 158.738 128.273 158.738 128.766 158.738 129.445 159.465 129.75 160.121 129.75 161.129 129.75 161.668 128.695 161.691 128.625 161.879 129.164 162.418 129.75 163.309 129.75 164.855 129.75 165.699 127.828 165.699 127.453 165.699 127.289 165.582 127.289 165.535 127.289 165.395 127.289 165.371 127.359 165.324 127.453 164.832 129.07 163.824 129.422 163.355 129.422 162.77 129.422 162.535 128.953 162.535 128.438 162.535 128.109 162.605 127.781 162.77 127.125ZM163.285 125.062"/>
<path d="M172.367 130.117V129.742H171.195V125.078C171.195 124.867 171.195 124.773 170.984 124.773 170.844 124.773 170.797 124.773 170.703 124.938L167.234 129.742V130.117H170.328V130.961C170.328 131.336 170.328 131.453 169.461 131.453H169.18V131.828C169.719 131.805 170.375 131.781 170.75 131.781 171.148 131.781 171.805 131.805 172.344 131.828V131.453H172.062C171.195 131.453 171.195 131.336 171.195 130.961V130.117ZM170.398 125.922V129.742H167.633ZM170.398 125.922"/>
<path d="M78.246 125.062C78.34 124.688 78.691 123.305 79.723 123.305 79.793 123.305 80.168 123.305 80.473 123.492 80.051 123.586 79.77 123.938 79.77 124.312 79.77 124.547 79.934 124.828 80.332 124.828 80.66 124.828 81.129 124.57 81.129 123.961 81.129 123.188 80.262 122.977 79.746 122.977 78.879 122.977 78.363 123.773 78.176 124.102 77.801 123.117 77.004 122.977 76.559 122.977 75.012 122.977 74.145 124.898 74.145 125.273 74.145 125.438 74.309 125.438 74.332 125.438 74.449 125.438 74.496 125.391 74.52 125.273 75.035 123.68 76.02 123.305 76.535 123.305 76.816 123.305 77.332 123.445 77.332 124.312 77.332 124.781 77.074 125.766 76.535 127.875 76.301 128.789 75.762 129.422 75.105 129.422 75.012 129.422 74.684 129.422 74.355 129.234 74.73 129.141 75.059 128.836 75.059 128.414 75.059 128.016 74.73 127.898 74.52 127.898 74.051 127.898 73.699 128.273 73.699 128.766 73.699 129.445 74.426 129.75 75.082 129.75 76.09 129.75 76.629 128.695 76.652 128.625 76.84 129.164 77.379 129.75 78.27 129.75 79.816 129.75 80.66 127.828 80.66 127.453 80.66 127.289 80.543 127.289 80.496 127.289 80.355 127.289 80.332 127.359 80.285 127.453 79.793 129.07 78.785 129.422 78.316 129.422 77.73 129.422 77.496 128.953 77.496 128.438 77.496 128.109 77.566 127.781 77.73 127.125ZM78.246 125.062"/>
<path d="M83.414 125.992C83.953 126.133 84.258 126.133 84.422 126.133 85.805 126.133 86.625 125.195 86.625 125.031 86.625 124.914 86.555 124.891 86.508 124.891 86.484 124.891 86.461 124.891 86.414 124.914 86.156 125.008 85.617 125.219 84.844 125.219 84.539 125.219 84 125.195 83.32 124.938 83.203 124.891 83.18 124.891 83.18 124.891 83.039 124.891 83.039 125.008 83.039 125.172V128.242C83.039 128.43 83.039 128.547 83.203 128.547 83.297 128.547 83.32 128.547 83.414 128.406 83.859 127.844 84.516 127.75 84.867 127.75 85.5 127.75 85.781 128.242 85.828 128.336 86.016 128.688 86.086 129.086 86.086 129.695 86.086 130 86.086 130.609 85.758 131.078 85.5 131.453 85.055 131.711 84.539 131.711 83.859 131.711 83.156 131.336 82.898 130.633 83.297 130.656 83.508 130.398 83.508 130.117 83.508 129.672 83.109 129.602 82.969 129.602 82.969 129.602 82.453 129.602 82.453 130.164 82.453 131.102 83.32 132.039 84.562 132.039 85.898 132.039 87.07 131.055 87.07 129.719 87.07 128.547 86.18 127.469 84.891 127.469 84.422 127.469 83.883 127.562 83.414 127.961ZM83.414 125.992"/>
<path stroke-width="1.499528" stroke-linecap="butt" stroke-dasharray="8.997165,2.999055" stroke-miterlimit="4" stroke-linejoin="miter" fill="none" stroke="#e50000" d="M204.375 84.266C200.109 83.008 195.691 82.25 191.25 82.016 183.699 81.621 176.164 82.734 168.621 83.246 161.078 83.758 153.297 83.629 146.25 80.891 141.078 78.883 136.484 75.512 132.77 71.391 129.055 67.27 126.207 62.41 124.125 57.266 119.844 46.703 118.75 35.008 114 24.641 109.699 15.258 102.203 7.117 92.625 3.266 86.664 .871 80.043 .188 73.699 1.207 67.355 2.227 61.309 4.934 56.25 8.891 50.918 13.07 46.68 18.648 44.16 24.941 41.641 31.23 40.859 38.215 42 44.891 43.93 56.195 51.242 66.082 60.375 73.016 70.277 80.543 82.164 84.914 93 91.016 103.98 97.199 114.051 105.34 121.125 115.766 128.906 127.238 132.793 141.305 132 155.141"/>
</g>
</svg>
