<svg xmlns="http://www.w3.org/2000/svg" xmlns:xlink="http://www.w3.org/1999/xlink" xmlns:inkscape="http://www.inkscape.org/namespaces/inkscape" version="1.1" width="179.43148" height="114.23622" viewBox="0 0 179.43148 114.23622">
<g>
<path stroke-width="1.417323" stroke-linecap="butt" stroke-miterlimit="4" stroke-linejoin="miter" fill="none" stroke="#000000" d="M28.484 57.281C28.395 64.945 22.113 71.09 14.445 71.008 6.781 70.922 .633 64.645 .711 56.977 .789 49.309 7.062 43.156 14.73 43.23 22.395 43.301 28.551 49.57 28.484 57.238ZM28.484 57.281"/>
<path stroke-width="1.417323" stroke-linecap="butt" stroke-miterlimit="4" stroke-linejoin="miter" fill="none" stroke="#000000" d="M93.684 14.762C93.594 22.426 87.309 28.57 79.645 28.488 71.977 28.402 65.828 22.125 65.906 14.457 65.984 6.789 72.258 .637 79.926 .711 87.59 .781 93.75 7.051 93.684 14.719ZM93.684 14.762"/>
<path stroke-width="1.417323" stroke-linecap="butt" stroke-miterlimit="4" stroke-linejoin="miter" fill="none" stroke="#000000" d="M93.684 99.801C93.594 107.465 87.309 113.609 79.645 113.527 71.977 113.441 65.828 107.164 65.906 99.496 65.984 91.828 72.258 85.676 79.926 85.75 87.59 85.82 93.75 92.09 93.684 99.758ZM93.684 99.801"/>
<path stroke-width="1.417323" stroke-linecap="butt" stroke-miterlimit="4" stroke-linejoin="miter" fill="none" stroke="#000000" d="M178.723 14.762C178.633 22.426 172.348 28.57 164.684 28.488 157.016 28.402 150.867 22.125 150.945 14.457 151.023 6.789 157.297 .637 164.965 .711 172.633 .781 178.789 7.051 178.723 14.719ZM178.723 14.762"/>
<path stroke-width="1.417323" stroke-linecap="butt" stroke-miterlimit="4" stroke-linejoin="miter" fill="none" stroke="#000000" d="M178.723 99.801C178.633 107.465 172.348 113.609 164.684 113.527 157.016 113.441 150.867 107.164 150.945 99.496 151.023 91.828 157.297 85.676 164.965 85.75 172.633 85.82 178.789 92.09 178.723 99.758ZM178.723 99.801"/>
<path stroke-width="2.834646" stroke-linecap="butt" stroke-miterlimit="4" stroke-linejoin="miter" fill="none" stroke="#000000" d="M26.324 50.133 67.547 21.605"/>
<path stroke-width="2.834643" stroke-linecap="butt" stroke-miterlimit="4" stroke-linejoin="miter" fill="none" stroke="#000000" d="M26.234 63.504 67.641 92.801"/>
<path stroke-width="2.83464" stroke-linecap="butt" stroke-miterlimit="4" stroke-linejoin="miter" fill="none" stroke="#000000" d="M93.711 14.414 151.172 14.48"/>
<path stroke-width="2.83464" stroke-linecap="butt" stroke-miterlimit="4" stroke-linejoin="miter" fill="none" stroke="#000000" d="M93.422 99.586 150.879 99.652"/>
<path stroke-width="2.834634" stroke-linecap="butt" stroke-miterlimit="4" stroke-linejoin="miter" fill="none" stroke="#000000" d="M79.711 28.406 79.754 85.711"/>
<path stroke-width="2.834634" stroke-linecap="butt" stroke-miterlimit="4" stroke-linejoin="miter" fill="none" stroke="#000000" d="M164.891 28.371 164.934 85.676"/>
<path d="M14.195 55.223C14.289 54.848 14.641 53.465 15.672 53.465 15.742 53.465 16.117 53.465 16.422 53.652 16 53.746 15.719 54.098 15.719 54.473 15.719 54.707 15.883 54.988 16.281 54.988 16.609 54.988 17.078 54.73 17.078 54.121 17.078 53.348 16.211 53.137 15.695 53.137 14.828 53.137 14.312 53.934 14.125 54.262 13.75 53.277 12.953 53.137 12.508 53.137 10.961 53.137 10.094 55.059 10.094 55.434 10.094 55.598 10.258 55.598 10.281 55.598 10.398 55.598 10.445 55.551 10.469 55.434 10.984 53.84 11.969 53.465 12.484 53.465 12.766 53.465 13.281 53.605 13.281 54.473 13.281 54.941 13.023 55.926 12.484 58.035 12.25 58.949 11.711 59.582 11.055 59.582 10.961 59.582 10.633 59.582 10.305 59.395 10.68 59.301 11.008 58.996 11.008 58.574 11.008 58.176 10.68 58.059 10.469 58.059 10 58.059 9.648 58.434 9.648 58.926 9.648 59.605 10.375 59.91 11.031 59.91 12.039 59.91 12.578 58.855 12.602 58.785 12.789 59.324 13.328 59.91 14.219 59.91 15.766 59.91 16.609 57.988 16.609 57.613 16.609 57.449 16.492 57.449 16.445 57.449 16.305 57.449 16.281 57.52 16.234 57.613 15.742 59.23 14.734 59.582 14.266 59.582 13.68 59.582 13.445 59.113 13.445 58.598 13.445 58.27 13.516 57.941 13.68 57.285ZM14.195 55.223"/>
<path d="M21.238 55.328C21.238 55.047 21.238 55.047 20.934 55.047 20.254 55.703 19.316 55.703 18.895 55.703V56.078C19.129 56.078 19.832 56.078 20.395 55.797V61.117C20.395 61.469 20.395 61.609 19.363 61.609H18.965V61.984C19.152 61.984 20.441 61.938 20.816 61.938 21.145 61.938 22.457 61.984 22.691 61.984V61.609H22.293C21.238 61.609 21.238 61.469 21.238 61.117ZM21.238 55.328"/>
<path d="M78.246 12.008C78.34 11.633 78.691 10.25 79.723 10.25 79.793 10.25 80.168 10.25 80.473 10.438 80.051 10.531 79.77 10.883 79.77 11.258 79.77 11.492 79.934 11.773 80.332 11.773 80.66 11.773 81.129 11.516 81.129 10.906 81.129 10.133 80.262 9.922 79.746 9.922 78.879 9.922 78.363 10.719 78.176 11.047 77.801 10.062 77.004 9.922 76.559 9.922 75.012 9.922 74.145 11.844 74.145 12.219 74.145 12.383 74.309 12.383 74.332 12.383 74.449 12.383 74.496 12.336 74.52 12.219 75.035 10.625 76.02 10.25 76.535 10.25 76.816 10.25 77.332 10.391 77.332 11.258 77.332 11.727 77.074 12.711 76.535 14.82 76.301 15.734 75.762 16.367 75.105 16.367 75.012 16.367 74.684 16.367 74.355 16.18 74.73 16.086 75.059 15.781 75.059 15.359 75.059 14.961 74.73 14.844 74.52 14.844 74.051 14.844 73.699 15.219 73.699 15.711 73.699 16.391 74.426 16.695 75.082 16.695 76.09 16.695 76.629 15.641 76.652 15.57 76.84 16.109 77.379 16.695 78.27 16.695 79.816 16.695 80.66 14.773 80.66 14.398 80.66 14.234 80.543 14.234 80.496 14.234 80.355 14.234 80.332 14.305 80.285 14.398 79.793 16.016 78.785 16.367 78.316 16.367 77.73 16.367 77.496 15.898 77.496 15.383 77.496 15.055 77.566 14.727 77.73 14.07ZM78.246 12.008"/>
<path d="M87.07 16.871H86.719C86.695 17.105 86.578 17.715 86.438 17.809 86.367 17.879 85.57 17.879 85.406 17.879H83.484C84.586 16.918 84.961 16.613 85.57 16.121 86.344 15.512 87.07 14.855 87.07 13.871 87.07 12.605 85.969 11.832 84.633 11.832 83.344 11.832 82.453 12.746 82.453 13.707 82.453 14.223 82.898 14.293 83.016 14.293 83.25 14.293 83.555 14.105 83.555 13.73 83.555 13.543 83.484 13.168 82.945 13.168 83.273 12.441 83.977 12.207 84.469 12.207 85.523 12.207 86.062 13.027 86.062 13.871 86.062 14.785 85.406 15.488 85.078 15.863L82.57 18.371C82.453 18.465 82.453 18.488 82.453 18.77H86.766ZM87.07 16.871"/>
<path d="M163.285 12.008C163.379 11.633 163.73 10.25 164.762 10.25 164.832 10.25 165.207 10.25 165.512 10.438 165.09 10.531 164.809 10.883 164.809 11.258 164.809 11.492 164.973 11.773 165.371 11.773 165.699 11.773 166.168 11.516 166.168 10.906 166.168 10.133 165.301 9.922 164.785 9.922 163.918 9.922 163.402 10.719 163.215 11.047 162.84 10.062 162.043 9.922 161.598 9.922 160.051 9.922 159.184 11.844 159.184 12.219 159.184 12.383 159.348 12.383 159.371 12.383 159.488 12.383 159.535 12.336 159.559 12.219 160.074 10.625 161.059 10.25 161.574 10.25 161.855 10.25 162.371 10.391 162.371 11.258 162.371 11.727 162.113 12.711 161.574 14.82 161.34 15.734 160.801 16.367 160.145 16.367 160.051 16.367 159.723 16.367 159.395 16.18 159.77 16.086 160.098 15.781 160.098 15.359 160.098 14.961 159.77 14.844 159.559 14.844 159.09 14.844 158.738 15.219 158.738 15.711 158.738 16.391 159.465 16.695 160.121 16.695 161.129 16.695 161.668 15.641 161.691 15.57 161.879 16.109 162.418 16.695 163.309 16.695 164.855 16.695 165.699 14.773 165.699 14.398 165.699 14.234 165.582 14.234 165.535 14.234 165.395 14.234 165.371 14.305 165.324 14.398 164.832 16.016 163.824 16.367 163.355 16.367 162.77 16.367 162.535 15.898 162.535 15.383 162.535 15.055 162.605 14.727 162.77 14.07ZM163.285 12.008"/>
<path d="M169.695 15.281C170.516 15.281 171.102 15.844 171.102 16.969 171.102 18.258 170.328 18.656 169.742 18.656 169.32 18.656 168.383 18.539 167.961 17.906 168.453 17.906 168.57 17.555 168.57 17.32 168.57 16.992 168.312 16.758 167.984 16.758 167.703 16.758 167.398 16.945 167.398 17.367 167.398 18.352 168.477 18.984 169.742 18.984 171.195 18.984 172.203 18 172.203 16.969 172.203 16.148 171.547 15.328 170.398 15.094 171.477 14.695 171.875 13.922 171.875 13.266 171.875 12.445 170.938 11.836 169.766 11.836 168.617 11.836 167.727 12.398 167.727 13.242 167.727 13.594 167.961 13.781 168.266 13.781 168.594 13.781 168.805 13.547 168.805 13.266 168.805 12.961 168.594 12.727 168.266 12.703 168.641 12.258 169.344 12.141 169.742 12.141 170.211 12.141 170.867 12.375 170.867 13.266 170.867 13.711 170.727 14.203 170.445 14.508 170.117 14.906 169.812 14.93 169.297 14.977 169.039 15 169.016 15 168.969 15 168.945 15 168.852 15.023 168.852 15.141 168.852 15.281 168.945 15.281 169.133 15.281ZM169.695 15.281"/>
<path d="M163.285 97.047C163.379 96.672 163.73 95.289 164.762 95.289 164.832 95.289 165.207 95.289 165.512 95.477 165.09 95.57 164.809 95.922 164.809 96.297 164.809 96.531 164.973 96.812 165.371 96.812 165.699 96.812 166.168 96.555 166.168 95.945 166.168 95.172 165.301 94.961 164.785 94.961 163.918 94.961 163.402 95.758 163.215 96.086 162.84 95.102 162.043 94.961 161.598 94.961 160.051 94.961 159.184 96.883 159.184 97.258 159.184 97.422 159.348 97.422 159.371 97.422 159.488 97.422 159.535 97.375 159.559 97.258 160.074 95.664 161.059 95.289 161.574 95.289 161.855 95.289 162.371 95.43 162.371 96.297 162.371 96.766 162.113 97.75 161.574 99.859 161.34 100.773 160.801 101.406 160.145 101.406 160.051 101.406 159.723 101.406 159.395 101.219 159.77 101.125 160.098 100.82 160.098 100.398 160.098 100 159.77 99.883 159.559 99.883 159.09 99.883 158.738 100.258 158.738 100.75 158.738 101.43 159.465 101.734 160.121 101.734 161.129 101.734 161.668 100.68 161.691 100.609 161.879 101.148 162.418 101.734 163.309 101.734 164.855 101.734 165.699 99.812 165.699 99.438 165.699 99.273 165.582 99.273 165.535 99.273 165.395 99.273 165.371 99.344 165.324 99.438 164.832 101.055 163.824 101.406 163.355 101.406 162.77 101.406 162.535 100.938 162.535 100.422 162.535 100.094 162.605 99.766 162.77 99.109ZM163.285 97.047"/>
<path d="M172.367 102.102V101.727H171.195V97.062C171.195 96.852 171.195 96.758 170.984 96.758 170.844 96.758 170.797 96.758 170.703 96.922L167.234 101.727V102.102H170.328V102.945C170.328 103.32 170.328 103.438 169.461 103.438H169.18V103.812C169.719 103.789 170.375 103.766 170.75 103.766 171.148 103.766 171.805 103.789 172.344 103.812V103.438H172.062C171.195 103.438 171.195 103.32 171.195 102.945V102.102ZM170.398 97.906V101.727H167.633ZM170.398 97.906"/>
<path d="M78.246 97.047C78.34 96.672 78.691 95.289 79.723 95.289 79.793 95.289 80.168 95.289 80.473 95.477 80.051 95.57 79.77 95.922 79.77 96.297 79.77 96.531 79.934 96.812 80.332 96.812 80.66 96.812 81.129 96.555 81.129 95.945 81.129 95.172 80.262 94.961 79.746 94.961 78.879 94.961 78.363 95.758 78.176 96.086 77.801 95.102 77.004 94.961 76.559 94.961 75.012 94.961 74.145 96.883 74.145 97.258 74.145 97.422 74.309 97.422 74.332 97.422 74.449 97.422 74.496 97.375 74.52 97.258 75.035 95.664 76.02 95.289 76.535 95.289 76.816 95.289 77.332 95.43 77.332 96.297 77.332 96.766 77.074 97.75 76.535 99.859 76.301 100.773 75.762 101.406 75.105 101.406 75.012 101.406 74.684 101.406 74.355 101.219 74.73 101.125 75.059 100.82 75.059 100.398 75.059 100 74.73 99.883 74.52 99.883 74.051 99.883 73.699 100.258 73.699 100.75 73.699 101.43 74.426 101.734 75.082 101.734 76.09 101.734 76.629 100.68 76.652 100.609 76.84 101.148 77.379 101.734 78.27 101.734 79.816 101.734 80.66 99.812 80.66 99.438 80.66 99.273 80.543 99.273 80.496 99.273 80.355 99.273 80.332 99.344 80.285 99.438 79.793 101.055 78.785 101.406 78.316 101.406 77.73 101.406 77.496 100.938 77.496 100.422 77.496 100.094 77.566 99.766 77.73 99.109ZM78.246 97.047"/>
<path d="M83.414 97.977C83.953 98.117 84.258 98.117 84.422 98.117 85.805 98.117 86.625 97.18 86.625 97.016 86.625 96.898 86.555 96.875 86.508 96.875 86.484 96.875 86.461 96.875 86.414 96.898 86.156 96.992 85.617 97.203 84.844 97.203 84.539 97.203 84 97.18 83.32 96.922 83.203 96.875 83.18 96.875 83.18 96.875 83.039 96.875 83.039 96.992 83.039 97.156V100.227C83.039 100.414 83.039 100.531 83.203 100.531 83.297 100.531 83.32 100.531 83.414 100.391 83.859 99.828 84.516 99.734 84.867 99.734 85.5 99.734 85.781 100.227 85.828 100.32 86.016 100.672 86.086 101.07 86.086 101.68 86.086 101.984 86.086 102.594 85.758 103.062 85.5 103.438 85.055 103.695 84.539 103.695 83.859 103.695 83.156 103.32 82.898 102.617 83.297 102.641 83.508 102.383 83.508 102.102 83.508 101.656 83.109 101.586 82.969 101.586 82.969 101.586 82.453 101.586 82.453 102.148 82.453 103.086 83.32 104.023 84.562 104.023 85.898 104.023 87.07 103.039 87.07 101.703 87.07 100.531 86.18 99.453 84.891 99.453 84.422 99.453 83.883 99.547 83.414 99.945ZM83.414 97.977"/>
</g>
</svg>
