<svg xmlns="http://www.w3.org/2000/svg" xmlns:xlink="http://www.w3.org/1999/xlink" xmlns:inkscape="http://www.inkscape.org/namespaces/inkscape" version="1.1" width="617.912" height="253.884" viewBox="0 0 617.912 253.884">
<defs>
<clipPath id="clip_0">
<path transform="matrix(.8,0,0,-.8,25.264,242.457)" d="M0 0H127.333V105.792H0Z"/>
</clipPath>
<clipPath id="clip_1">
<path transform="matrix(.45,0,0,-.45,185.65,245.002)" d="M0 0H203.181V203.181H0Z"/>
</clipPath>
<clipPath id="clip_2">
<path transform="matrix(.4,0,0,-.4,344.418,239.77301)" d="M0 0H210.588V215.507H0Z"/>
</clipPath>
<clipPath id="clip_3">
<path transform="matrix(.3,0,0,-.3,167.002,104.36301)" d="M0 0H435.437V282.858H0Z"/>
</clipPath>
</defs>
<path transform="matrix(1,0,0,-1,80.1821,186.63211)" d="M58.43257 64.36867H-58.43257C-60.63351 64.36867-62.41768 62.5845-62.41768 60.38356V-60.38356C-62.41768-62.5845-60.63351-64.36867-58.43257-64.36867H58.43257C60.63351-64.36867 62.41768-62.5845 62.41768-60.38356V60.38356C62.41768 62.5845 60.63351 64.36867 58.43257 64.36867ZM-62.41768-64.36867" fill="#7f807f" fill-opacity=".5"/>
<path transform="matrix(1,0,0,-1,76.197,182.647)" d="M58.43257 64.36867H-58.43257C-60.63351 64.36867-62.41768 62.5845-62.41768 60.38356V-60.38356C-62.41768-62.5845-60.63351-64.36867-58.43257-64.36867H58.43257C60.63351-64.36867 62.41768-62.5845 62.41768-60.38356V60.38356C62.41768 62.5845 60.63351 64.36867 58.43257 64.36867ZM-62.41768-64.36867" fill="#f6f6f6"/>
<path transform="matrix(1,0,0,-1,76.197,182.647)" stroke-width="1.99255" stroke-linecap="butt" stroke-miterlimit="10" stroke-linejoin="miter" fill="none" stroke="#000000" d="M58.43257 64.36867H-58.43257C-60.63351 64.36867-62.41768 62.5845-62.41768 60.38356V-60.38356C-62.41768-62.5845-60.63351-64.36867-58.43257-64.36867H58.43257C60.63351-64.36867 62.41768-62.5845 62.41768-60.38356V60.38356C62.41768 62.5845 60.63351 64.36867 58.43257 64.36867ZM-62.41768-64.36867"/>
<path transform="matrix(1,0,0,-1,76.197,182.647)" d="M58.43257 64.53246H-58.43257C-60.63351 64.53246-62.41768 62.74829-62.41768 60.54735V33.40738C-62.41768 31.20644-60.63351 29.42227-58.43257 29.42227H58.43257C60.63351 29.42227 62.41768 31.20644 62.41768 33.40738V60.54735C62.41768 62.74829 60.63351 64.53246 58.43257 64.53246ZM-62.41768 29.42227" fill="#2b5580"/>
<path transform="matrix(1,0,0,-1,76.197,182.647)" stroke-width=".99628" stroke-linecap="butt" stroke-miterlimit="10" stroke-linejoin="miter" fill="none" stroke="#000000" d="M58.43257 64.53246H-58.43257C-60.63351 64.53246-62.41768 62.74829-62.41768 60.54735V33.40738C-62.41768 31.20644-60.63351 29.42227-58.43257 29.42227H58.43257C60.63351 29.42227 62.41768 31.20644 62.41768 33.40738V60.54735C62.41768 62.74829 60.63351 64.53246 58.43257 64.53246ZM-62.41768 29.42227"/>
<text fill="#ffffff" xml:space="preserve" transform="matrix(1 0 -0 1 0 253.884)" font-size="11.9552" font-family="SFBX1200" font-weight="bold"><tspan y="-122.473" x="44.715 54.422624 61.141447 68.242839 74.97361 81.10663 86.59406 95.71587 100.94029">Convertto</tspan><tspan y="-108.028" x="35.433 45.53514 55.864435 65.4286 79.42813 89.99653 95.48396 102.02346 109.49546">QUBOGraph</tspan></text>
<g clip-path="url(#clip_0)">
<path transform="matrix(.8,0,0,-.8,49.444665,182.00408)" d="M21.2601 0C21.2601 11.74178 11.74178 21.2601 0 21.2601-11.74178 21.2601-21.2601 11.74178-21.2601 0-21.2601-11.74178-11.74178-21.2601 0-21.2601 11.74178-21.2601 21.2601-11.74178 21.2601 0ZM0 0" fill="#7f807f" fill-opacity=".5"/>
<path transform="matrix(.8,0,0,-.8,47.0536,179.613)" d="M21.2601 0C21.2601 11.74178 11.74178 21.2601 0 21.2601-11.74178 21.2601-21.2601 11.74178-21.2601 0-21.2601-11.74178-11.74178-21.2601 0-21.2601 11.74178-21.2601 21.2601-11.74178 21.2601 0ZM0 0" fill="#b66983"/>
<path transform="matrix(.8,0,0,-.8,47.0536,179.613)" stroke-width="1.99255" stroke-linecap="butt" stroke-miterlimit="10" stroke-linejoin="miter" fill="none" stroke="#000000" d="M21.2601 0C21.2601 11.74178 11.74178 21.2601 0 21.2601-11.74178 21.2601-21.2601 11.74178-21.2601 0-21.2601-11.74178-11.74178-21.2601 0-21.2601 11.74178-21.2601 21.2601-11.74178 21.2601 0ZM0 0"/>
<text xml:space="preserve" transform="matrix(.8 0 -0 .8 25.264 242.45702)" font-size="17.2154" font-family="CMMI12" font-style="italic"><tspan y="-76.14" x="19.272">x</tspan></text>
<text xml:space="preserve" transform="matrix(.8 0 -0 .8 25.264 242.45702)" font-size="11.9552" font-family="CMR12"><tspan y="-73.558" x="28.851">1</tspan></text>
<path transform="matrix(.8,0,0,-.8,49.444665,182.00408)" d="M94.11966 0C94.11966 11.74178 84.60135 21.2601 72.85956 21.2601 61.11778 21.2601 51.59946 11.74178 51.59946 0 51.59946-11.74178 61.11778-21.2601 72.85956-21.2601 84.60135-21.2601 94.11966-11.74178 94.11966 0ZM72.85956 0" fill="#7f807f" fill-opacity=".5"/>
<path transform="matrix(.8,0,0,-.8,47.0536,179.613)" d="M94.11966 0C94.11966 11.74178 84.60135 21.2601 72.85956 21.2601 61.11778 21.2601 51.59946 11.74178 51.59946 0 51.59946-11.74178 61.11778-21.2601 72.85956-21.2601 84.60135-21.2601 94.11966-11.74178 94.11966 0ZM72.85956 0" fill="#6f92b7"/>
<path transform="matrix(.8,0,0,-.8,47.0536,179.613)" stroke-width="1.99255" stroke-linecap="butt" stroke-miterlimit="10" stroke-linejoin="miter" fill="none" stroke="#000000" d="M94.11966 0C94.11966 11.74178 84.60135 21.2601 72.85956 21.2601 61.11778 21.2601 51.59946 11.74178 51.59946 0 51.59946-11.74178 61.11778-21.2601 72.85956-21.2601 84.60135-21.2601 94.11966-11.74178 94.11966 0ZM72.85956 0"/>
<text xml:space="preserve" transform="matrix(.8 0 -0 .8 25.264 242.45702)" font-size="17.2154" font-family="CMMI12" font-style="italic"><tspan y="-76.14" x="92.131">x</tspan></text>
<text xml:space="preserve" transform="matrix(.8 0 -0 .8 25.264 242.45702)" font-size="11.9552" font-family="CMR12"><tspan y="-73.558" x="101.71">2</tspan></text>
<path transform="matrix(.8,0,0,-.8,49.444665,182.00408)" d="M60.38914-51.31798C60.38914-39.5762 50.87083-30.05788 39.12904-30.05788 27.38727-30.05788 17.86894-39.5762 17.86894-51.31798 17.86894-63.05975 27.38727-72.57808 39.12904-72.57808 50.87083-72.57808 60.38914-63.05975 60.38914-51.31798ZM39.12904-51.31798" fill="#7f807f" fill-opacity=".5"/>
<path transform="matrix(.8,0,0,-.8,47.0536,179.613)" d="M60.38914-51.31798C60.38914-39.5762 50.87083-30.05788 39.12904-30.05788 27.38727-30.05788 17.86894-39.5762 17.86894-51.31798 17.86894-63.05975 27.38727-72.57808 39.12904-72.57808 50.87083-72.57808 60.38914-63.05975 60.38914-51.31798ZM39.12904-51.31798" fill="#72b46b"/>
<path transform="matrix(.8,0,0,-.8,47.0536,179.613)" stroke-width="1.99255" stroke-linecap="butt" stroke-miterlimit="10" stroke-linejoin="miter" fill="none" stroke="#000000" d="M60.38914-51.31798C60.38914-39.5762 50.87083-30.05788 39.12904-30.05788 27.38727-30.05788 17.86894-39.5762 17.86894-51.31798 17.86894-63.05975 27.38727-72.57808 39.12904-72.57808 50.87083-72.57808 60.38914-63.05975 60.38914-51.31798ZM39.12904-51.31798"/>
<text xml:space="preserve" transform="matrix(.8 0 -0 .8 25.264 242.457)" font-size="17.2154" font-family="CMMI12" font-style="italic"><tspan y="-24.823" x="58.401">x</tspan></text>
<text xml:space="preserve" transform="matrix(.8 0 -0 .8 25.264 242.457)" font-size="11.9552" font-family="CMR12"><tspan y="-22.24" x="67.98">3</tspan></text>
<path transform="matrix(.8,0,0,-.8,47.0536,179.613)" stroke-width="2.98883" stroke-linecap="butt" stroke-miterlimit="10" stroke-linejoin="miter" fill="none" stroke="#000000" d="M22.25638 0H50.60318"/>
<text xml:space="preserve" transform="matrix(.8 0 -0 .8 25.264 242.457)" font-size="14.3462" font-family="CMMI12" font-style="italic"><tspan y="-86.739" x="52.874">Q</tspan></text>
<text xml:space="preserve" transform="matrix(.8 0 -0 .8 25.264 242.457)" font-size="9.9626" font-family="CMR10"><tspan y="-84.587" x="63.999 68.9803">12</tspan></text>
<path transform="matrix(.8,0,0,-.8,47.0536,179.613)" stroke-width="2.98883" stroke-linecap="butt" stroke-miterlimit="10" stroke-linejoin="miter" fill="none" stroke="#000000" d="M13.51085-17.71957 25.61719-33.5984"/>
<text xml:space="preserve" transform="matrix(.8 0 -0 .8 25.264 242.45702)" font-size="14.3462" font-family="CMMI12" font-style="italic"><tspan y="-37.698" x="19.82">Q</tspan></text>
<text xml:space="preserve" transform="matrix(.8 0 -0 .8 25.264 242.45702)" font-size="9.9626" font-family="CMR10"><tspan y="-35.546" x="30.945 35.9263">13</tspan></text>
<path transform="matrix(.8,0,0,-.8,47.0536,179.613)" stroke-width="2.98883" stroke-linecap="butt" stroke-miterlimit="10" stroke-linejoin="miter" fill="none" stroke="#000000" d="M60.59438-18.66061 51.39525-32.65735"/>
<text xml:space="preserve" transform="matrix(.8 0 -0 .8 25.264 242.45702)" font-size="14.3462" font-family="CMMI12" font-style="italic"><tspan y="-37.698" x="88.627">Q</tspan></text>
<text xml:space="preserve" transform="matrix(.8 0 -0 .8 25.264 242.45702)" font-size="9.9626" font-family="CMR10"><tspan y="-35.546" x="99.752 104.7333">23</tspan></text>
</g>
<path transform="matrix(1,0,0,-1,80.1821,186.63211)" d="M213.6073 64.36867H96.74214C94.5412 64.36867 92.75703 62.5845 92.75703 60.38356V-60.38356C92.75703-62.5845 94.5412-64.36867 96.74214-64.36867H213.6073C215.80825-64.36867 217.5924-62.5845 217.5924-60.38356V60.38356C217.5924 62.5845 215.80825 64.36867 213.6073 64.36867ZM92.75703-64.36867" fill="#7f807f" fill-opacity=".5"/>
<path transform="matrix(1,0,0,-1,76.197,182.647)" d="M213.6073 64.36867H96.74214C94.5412 64.36867 92.75703 62.5845 92.75703 60.38356V-60.38356C92.75703-62.5845 94.5412-64.36867 96.74214-64.36867H213.6073C215.80825-64.36867 217.5924-62.5845 217.5924-60.38356V60.38356C217.5924 62.5845 215.80825 64.36867 213.6073 64.36867ZM92.75703-64.36867" fill="#f6f6f6"/>
<path transform="matrix(1,0,0,-1,76.197,182.647)" stroke-width="1.99255" stroke-linecap="butt" stroke-miterlimit="10" stroke-linejoin="miter" fill="none" stroke="#000000" d="M213.6073 64.36867H96.74214C94.5412 64.36867 92.75703 62.5845 92.75703 60.38356V-60.38356C92.75703-62.5845 94.5412-64.36867 96.74214-64.36867H213.6073C215.80825-64.36867 217.5924-62.5845 217.5924-60.38356V60.38356C217.5924 62.5845 215.80825 64.36867 213.6073 64.36867ZM92.75703-64.36867"/>
<path transform="matrix(1,0,0,-1,76.197,182.647)" d="M213.60327 64.53246H96.73811C94.53717 64.53246 92.753 62.74829 92.753 60.54735V33.40738C92.753 31.20644 94.53717 29.42227 96.73811 29.42227H213.60327C215.8042 29.42227 217.58838 31.20644 217.58838 33.40738V60.54735C217.58838 62.74829 215.8042 64.53246 213.60327 64.53246ZM92.753 29.42227" fill="#2b5580"/>
<path transform="matrix(1,0,0,-1,76.197,182.647)" stroke-width=".99628" stroke-linecap="butt" stroke-miterlimit="10" stroke-linejoin="miter" fill="none" stroke="#000000" d="M213.60327 64.53246H96.73811C94.53717 64.53246 92.753 62.74829 92.753 60.54735V33.40738C92.753 31.20644 94.53717 29.42227 96.73811 29.42227H213.60327C215.8042 29.42227 217.58838 31.20644 217.58838 33.40738V60.54735C217.58838 62.74829 215.8042 64.53246 213.60327 64.53246ZM92.753 29.42227"/>
<text fill="#ffffff" xml:space="preserve" transform="matrix(1 0 -0 1 0 253.884)" font-size="11.9552" font-family="SFBX1200" font-weight="bold"><tspan y="-121.311" x="188.817 197.63994 208.47136 216.31397 222.44698 233.81638 243.91852 254.24782 263.81199">EmbedQUBO</tspan><tspan y="-106.866" x="189.267 192.99703 200.09842 205.32285 215.93907 226.4477 232.98719 238.47463 245.94663 255.28365 261.82316 267.31059">intoHardware</tspan></text>
<g clip-path="url(#clip_1)">
<path transform="matrix(.45,0,0,-.45,199.47617,167.39673)" d="M21.2601 0C21.2601 11.74178 11.74178 21.2601 0 21.2601-11.74178 21.2601-21.2601 11.74178-21.2601 0-21.2601-11.74178-11.74178-21.2601 0-21.2601 11.74178-21.2601 21.2601-11.74178 21.2601 0ZM0 0" fill="#7f807f" fill-opacity=".5"/>
<path transform="matrix(.45,0,0,-.45,198.1312,166.05176)" d="M21.2601 0C21.2601 11.74178 11.74178 21.2601 0 21.2601-11.74178 21.2601-21.2601 11.74178-21.2601 0-21.2601-11.74178-11.74178-21.2601 0-21.2601 11.74178-21.2601 21.2601-11.74178 21.2601 0ZM0 0" fill="#b66983"/>
<path transform="matrix(.45,0,0,-.45,198.1312,166.05176)" stroke-width="2.98883" stroke-linecap="butt" stroke-miterlimit="10" stroke-linejoin="miter" fill="none" stroke="#000000" d="M21.2601 0C21.2601 11.74178 11.74178 21.2601 0 21.2601-11.74178 21.2601-21.2601 11.74178-21.2601 0-21.2601-11.74178-11.74178-21.2601 0-21.2601 11.74178-21.2601 21.2601-11.74178 21.2601 0ZM0 0"/>
<text xml:space="preserve" transform="matrix(.45 0 -0 .45 185.65 245.002)" font-size="20.6625" font-family="CMMI12" font-style="italic"><tspan y="-172.547" x="19.21">s</tspan></text>
<text xml:space="preserve" transform="matrix(.45 0 -0 .45 185.65 245.002)" font-size="14.3462" font-family="CMR12"><tspan y="-169.44699" x="28.739998">1</tspan></text>
<path transform="matrix(.45,0,0,-.45,199.47617,167.39673)" d="M95.11594 0C95.11594 11.74178 85.59763 21.2601 73.85583 21.2601 62.11406 21.2601 52.59573 11.74178 52.59573 0 52.59573-11.74178 62.11406-21.2601 73.85583-21.2601 85.59763-21.2601 95.11594-11.74178 95.11594 0ZM73.85583 0" fill="#7f807f" fill-opacity=".5"/>
<path transform="matrix(.45,0,0,-.45,198.1312,166.05176)" d="M95.11594 0C95.11594 11.74178 85.59763 21.2601 73.85583 21.2601 62.11406 21.2601 52.59573 11.74178 52.59573 0 52.59573-11.74178 62.11406-21.2601 73.85583-21.2601 85.59763-21.2601 95.11594-11.74178 95.11594 0ZM73.85583 0" fill="#6f92b7"/>
<path transform="matrix(.45,0,0,-.45,198.1312,166.05176)" stroke-width="2.98883" stroke-linecap="butt" stroke-miterlimit="10" stroke-linejoin="miter" fill="none" stroke="#000000" d="M95.11594 0C95.11594 11.74178 85.59763 21.2601 73.85583 21.2601 62.11406 21.2601 52.59573 11.74178 52.59573 0 52.59573-11.74178 62.11406-21.2601 73.85583-21.2601 85.59763-21.2601 95.11594-11.74178 95.11594 0ZM73.85583 0"/>
<text xml:space="preserve" transform="matrix(.45 0 -0 .45 185.65 245.002)" font-size="20.6625" font-family="CMMI12" font-style="italic"><tspan y="-172.547" x="93.065">s</tspan></text>
<text xml:space="preserve" transform="matrix(.45 0 -0 .45 185.65 245.002)" font-size="14.3462" font-family="CMR12"><tspan y="-169.44699" x="102.595">2</tspan></text>
<path transform="matrix(.45,0,0,-.45,199.47617,167.39673)" d="M168.97179 0C168.97179 11.74178 159.45346 21.2601 147.71169 21.2601 135.96991 21.2601 126.45158 11.74178 126.45158 0 126.45158-11.74178 135.96991-21.2601 147.71169-21.2601 159.45346-21.2601 168.97179-11.74178 168.97179 0ZM147.71169 0" fill="#7f807f" fill-opacity=".5"/>
<path transform="matrix(.45,0,0,-.45,198.1312,166.05176)" d="M168.97179 0C168.97179 11.74178 159.45346 21.2601 147.71169 21.2601 135.96991 21.2601 126.45158 11.74178 126.45158 0 126.45158-11.74178 135.96991-21.2601 147.71169-21.2601 159.45346-21.2601 168.97179-11.74178 168.97179 0ZM147.71169 0" fill="#ffffff"/>
<path transform="matrix(.45,0,0,-.45,198.1312,166.05176)" stroke-width="2.98883" stroke-linecap="butt" stroke-miterlimit="10" stroke-linejoin="miter" fill="none" stroke="#000000" d="M168.97179 0C168.97179 11.74178 159.45346 21.2601 147.71169 21.2601 135.96991 21.2601 126.45158 11.74178 126.45158 0 126.45158-11.74178 135.96991-21.2601 147.71169-21.2601 159.45346-21.2601 168.97179-11.74178 168.97179 0ZM147.71169 0"/>
<path transform="matrix(.45,0,0,-.45,199.47617,167.39673)" d="M21.2601-73.85583C21.2601-62.11406 11.74178-52.59573 0-52.59573-11.74178-52.59573-21.2601-62.11406-21.2601-73.85583-21.2601-85.59763-11.74178-95.11594 0-95.11594 11.74178-95.11594 21.2601-85.59763 21.2601-73.85583ZM0-73.85583" fill="#7f807f" fill-opacity=".5"/>
<path transform="matrix(.45,0,0,-.45,198.1312,166.05176)" d="M21.2601-73.85583C21.2601-62.11406 11.74178-52.59573 0-52.59573-11.74178-52.59573-21.2601-62.11406-21.2601-73.85583-21.2601-85.59763-11.74178-95.11594 0-95.11594 11.74178-95.11594 21.2601-85.59763 21.2601-73.85583ZM0-73.85583" fill="#72b46b"/>
<path transform="matrix(.45,0,0,-.45,198.1312,166.05176)" stroke-width="2.98883" stroke-linecap="butt" stroke-miterlimit="10" stroke-linejoin="miter" fill="none" stroke="#000000" d="M21.2601-73.85583C21.2601-62.11406 11.74178-52.59573 0-52.59573-11.74178-52.59573-21.2601-62.11406-21.2601-73.85583-21.2601-85.59763-11.74178-95.11594 0-95.11594 11.74178-95.11594 21.2601-85.59763 21.2601-73.85583ZM0-73.85583"/>
<text xml:space="preserve" transform="matrix(.45 0 -0 .45 185.65 245.00202)" font-size="20.6625" font-family="CMMI12" font-style="italic"><tspan y="-98.692" x="19.21">s</tspan></text>
<text xml:space="preserve" transform="matrix(.45 0 -0 .45 185.65 245.00202)" font-size="14.3462" font-family="CMR12"><tspan y="-95.593" x="28.739998">3</tspan></text>
<path transform="matrix(.45,0,0,-.45,199.47617,167.39673)" d="M95.11594-73.85583C95.11594-62.11406 85.59763-52.59573 73.85583-52.59573 62.11406-52.59573 52.59573-62.11406 52.59573-73.85583 52.59573-85.59763 62.11406-95.11594 73.85583-95.11594 85.59763-95.11594 95.11594-85.59763 95.11594-73.85583ZM73.85583-73.85583" fill="#7f807f" fill-opacity=".5"/>
<path transform="matrix(.45,0,0,-.45,198.1312,166.05176)" d="M95.11594-73.85583C95.11594-62.11406 85.59763-52.59573 73.85583-52.59573 62.11406-52.59573 52.59573-62.11406 52.59573-73.85583 52.59573-85.59763 62.11406-95.11594 73.85583-95.11594 85.59763-95.11594 95.11594-85.59763 95.11594-73.85583ZM73.85583-73.85583" fill="#72b46b"/>
<path transform="matrix(.45,0,0,-.45,198.1312,166.05176)" stroke-width="2.98883" stroke-linecap="butt" stroke-miterlimit="10" stroke-linejoin="miter" fill="none" stroke="#000000" d="M95.11594-73.85583C95.11594-62.11406 85.59763-52.59573 73.85583-52.59573 62.11406-52.59573 52.59573-62.11406 52.59573-73.85583 52.59573-85.59763 62.11406-95.11594 73.85583-95.11594 85.59763-95.11594 95.11594-85.59763 95.11594-73.85583ZM73.85583-73.85583"/>
<text xml:space="preserve" transform="matrix(.45 0 -0 .45 185.65 245.00202)" font-size="20.6625" font-family="CMMI12" font-style="italic"><tspan y="-98.692" x="93.065">s</tspan></text>
<text xml:space="preserve" transform="matrix(.45 0 -0 .45 185.65 245.00202)" font-size="14.3462" font-family="CMR12"><tspan y="-95.593" x="102.595">3</tspan></text>
<path transform="matrix(.45,0,0,-.45,199.47617,167.39673)" d="M168.97179-73.85583C168.97179-62.11406 159.45346-52.59573 147.71169-52.59573 135.96991-52.59573 126.45158-62.11406 126.45158-73.85583 126.45158-85.59763 135.96991-95.11594 147.71169-95.11594 159.45346-95.11594 168.97179-85.59763 168.97179-73.85583ZM147.71169-73.85583" fill="#7f807f" fill-opacity=".5"/>
<path transform="matrix(.45,0,0,-.45,198.1312,166.05176)" d="M168.97179-73.85583C168.97179-62.11406 159.45346-52.59573 147.71169-52.59573 135.96991-52.59573 126.45158-62.11406 126.45158-73.85583 126.45158-85.59763 135.96991-95.11594 147.71169-95.11594 159.45346-95.11594 168.97179-85.59763 168.97179-73.85583ZM147.71169-73.85583" fill="#ffffff"/>
<path transform="matrix(.45,0,0,-.45,198.1312,166.05176)" stroke-width="2.98883" stroke-linecap="butt" stroke-miterlimit="10" stroke-linejoin="miter" fill="none" stroke="#000000" d="M168.97179-73.85583C168.97179-62.11406 159.45346-52.59573 147.71169-52.59573 135.96991-52.59573 126.45158-62.11406 126.45158-73.85583 126.45158-85.59763 135.96991-95.11594 147.71169-95.11594 159.45346-95.11594 168.97179-85.59763 168.97179-73.85583ZM147.71169-73.85583"/>
<path transform="matrix(.45,0,0,-.45,199.47617,167.39673)" d="M21.2601-147.71169C21.2601-135.96991 11.74178-126.45158 0-126.45158-11.74178-126.45158-21.2601-135.96991-21.2601-147.71169-21.2601-159.45346-11.74178-168.97179 0-168.97179 11.74178-168.97179 21.2601-159.45346 21.2601-147.71169ZM0-147.71169" fill="#7f807f" fill-opacity=".5"/>
<path transform="matrix(.45,0,0,-.45,198.1312,166.05176)" d="M21.2601-147.71169C21.2601-135.96991 11.74178-126.45158 0-126.45158-11.74178-126.45158-21.2601-135.96991-21.2601-147.71169-21.2601-159.45346-11.74178-168.97179 0-168.97179 11.74178-168.97179 21.2601-159.45346 21.2601-147.71169ZM0-147.71169" fill="#ffffff"/>
<path transform="matrix(.45,0,0,-.45,198.1312,166.05176)" stroke-width="2.98883" stroke-linecap="butt" stroke-miterlimit="10" stroke-linejoin="miter" fill="none" stroke="#000000" d="M21.2601-147.71169C21.2601-135.96991 11.74178-126.45158 0-126.45158-11.74178-126.45158-21.2601-135.96991-21.2601-147.71169-21.2601-159.45346-11.74178-168.97179 0-168.97179 11.74178-168.97179 21.2601-159.45346 21.2601-147.71169ZM0-147.71169"/>
<path transform="matrix(.45,0,0,-.45,199.47617,167.39673)" d="M95.11594-147.71169C95.11594-135.96991 85.59763-126.45158 73.85583-126.45158 62.11406-126.45158 52.59573-135.96991 52.59573-147.71169 52.59573-159.45346 62.11406-168.97179 73.85583-168.97179 85.59763-168.97179 95.11594-159.45346 95.11594-147.71169ZM73.85583-147.71169" fill="#7f807f" fill-opacity=".5"/>
<path transform="matrix(.45,0,0,-.45,198.1312,166.05176)" d="M95.11594-147.71169C95.11594-135.96991 85.59763-126.45158 73.85583-126.45158 62.11406-126.45158 52.59573-135.96991 52.59573-147.71169 52.59573-159.45346 62.11406-168.97179 73.85583-168.97179 85.59763-168.97179 95.11594-159.45346 95.11594-147.71169ZM73.85583-147.71169" fill="#ffffff"/>
<path transform="matrix(.45,0,0,-.45,198.1312,166.05176)" stroke-width="2.98883" stroke-linecap="butt" stroke-miterlimit="10" stroke-linejoin="miter" fill="none" stroke="#000000" d="M95.11594-147.71169C95.11594-135.96991 85.59763-126.45158 73.85583-126.45158 62.11406-126.45158 52.59573-135.96991 52.59573-147.71169 52.59573-159.45346 62.11406-168.97179 73.85583-168.97179 85.59763-168.97179 95.11594-159.45346 95.11594-147.71169ZM73.85583-147.71169"/>
<path transform="matrix(.45,0,0,-.45,199.47617,167.39673)" d="M168.97179-147.71169C168.97179-135.96991 159.45346-126.45158 147.71169-126.45158 135.96991-126.45158 126.45158-135.96991 126.45158-147.71169 126.45158-159.45346 135.96991-168.97179 147.71169-168.97179 159.45346-168.97179 168.97179-159.45346 168.97179-147.71169ZM147.71169-147.71169" fill="#7f807f" fill-opacity=".5"/>
<path transform="matrix(.45,0,0,-.45,198.1312,166.05176)" d="M168.97179-147.71169C168.97179-135.96991 159.45346-126.45158 147.71169-126.45158 135.96991-126.45158 126.45158-135.96991 126.45158-147.71169 126.45158-159.45346 135.96991-168.97179 147.71169-168.97179 159.45346-168.97179 168.97179-159.45346 168.97179-147.71169ZM147.71169-147.71169" fill="#ffffff"/>
<path transform="matrix(.45,0,0,-.45,198.1312,166.05176)" stroke-width="2.98883" stroke-linecap="butt" stroke-miterlimit="10" stroke-linejoin="miter" fill="none" stroke="#000000" d="M168.97179-147.71169C168.97179-135.96991 159.45346-126.45158 147.71169-126.45158 135.96991-126.45158 126.45158-135.96991 126.45158-147.71169 126.45158-159.45346 135.96991-168.97179 147.71169-168.97179 159.45346-168.97179 168.97179-159.45346 168.97179-147.71169ZM147.71169-147.71169"/>
<path transform="matrix(.45,0,0,-.45,198.1312,166.05176)" stroke-width="5.97766" stroke-linecap="butt" stroke-miterlimit="10" stroke-linejoin="miter" fill="none" stroke="#000000" d="M22.75452 0H51.10132"/>
<path transform="matrix(.45,0,0,-.45,198.1312,166.05176)" stroke-width="2.98883" stroke-linecap="butt" stroke-miterlimit="10" stroke-linejoin="miter" fill="none" stroke="#000000" d="M96.61035 0H124.95717"/>
<path transform="matrix(.45,0,0,-.45,198.1312,166.05176)" stroke-width="5.97766" stroke-linecap="butt" stroke-miterlimit="10" stroke-linejoin="miter" fill="none" stroke="#000000" d="M22.75452-73.85583H51.10132"/>
<path transform="matrix(.45,0,0,-.45,198.1312,166.05176)" stroke-width="2.98883" stroke-linecap="butt" stroke-miterlimit="10" stroke-linejoin="miter" fill="none" stroke="#72b46b" d="M22.75452-73.85583H51.10132"/>
<path transform="matrix(.45,0,0,-.45,198.1312,166.05176)" stroke-width="2.98883" stroke-linecap="butt" stroke-miterlimit="10" stroke-linejoin="miter" fill="none" stroke="#000000" d="M96.61035-73.85583H124.95717"/>
<path transform="matrix(.45,0,0,-.45,198.1312,166.05176)" stroke-width="2.98883" stroke-linecap="butt" stroke-miterlimit="10" stroke-linejoin="miter" fill="none" stroke="#000000" d="M22.75452-147.71169H51.10132"/>
<path transform="matrix(.45,0,0,-.45,198.1312,166.05176)" stroke-width="2.98883" stroke-linecap="butt" stroke-miterlimit="10" stroke-linejoin="miter" fill="none" stroke="#000000" d="M96.61035-147.71169H124.95717"/>
<path transform="matrix(.45,0,0,-.45,198.1312,166.05176)" stroke-width="5.97766" stroke-linecap="butt" stroke-miterlimit="10" stroke-linejoin="miter" fill="none" stroke="#000000" d="M0-22.75452V-51.10132"/>
<path transform="matrix(.45,0,0,-.45,198.1312,166.05176)" stroke-width="2.98883" stroke-linecap="butt" stroke-miterlimit="10" stroke-linejoin="miter" fill="none" stroke="#000000" d="M0-96.61035V-124.95717"/>
<path transform="matrix(.45,0,0,-.45,198.1312,166.05176)" stroke-width="5.97766" stroke-linecap="butt" stroke-miterlimit="10" stroke-linejoin="miter" fill="none" stroke="#000000" d="M73.85583-22.75452V-51.10132"/>
<path transform="matrix(.45,0,0,-.45,198.1312,166.05176)" stroke-width="2.98883" stroke-linecap="butt" stroke-miterlimit="10" stroke-linejoin="miter" fill="none" stroke="#000000" d="M73.85583-96.61035V-124.95717"/>
<path transform="matrix(.45,0,0,-.45,198.1312,166.05176)" stroke-width="2.98883" stroke-linecap="butt" stroke-miterlimit="10" stroke-linejoin="miter" fill="none" stroke="#000000" d="M147.71169-22.75452V-51.10132"/>
<path transform="matrix(.45,0,0,-.45,198.1312,166.05176)" stroke-width="2.98883" stroke-linecap="butt" stroke-miterlimit="10" stroke-linejoin="miter" fill="none" stroke="#000000" d="M147.71169-96.61035V-124.95717"/>
</g>
<path transform="matrix(1,0,0,-1,80.1821,186.63211)" d="M368.782 64.36867H251.91687C249.71593 64.36867 247.93177 62.5845 247.93177 60.38356V-60.38356C247.93177-62.5845 249.71593-64.36867 251.91687-64.36867H368.782C370.98298-64.36867 372.76713-62.5845 372.76713-60.38356V60.38356C372.76713 62.5845 370.98298 64.36867 368.782 64.36867ZM247.93177-64.36867" fill="#7f807f" fill-opacity=".5"/>
<path transform="matrix(1,0,0,-1,76.197,182.647)" d="M368.782 64.36867H251.91687C249.71593 64.36867 247.93177 62.5845 247.93177 60.38356V-60.38356C247.93177-62.5845 249.71593-64.36867 251.91687-64.36867H368.782C370.98298-64.36867 372.76713-62.5845 372.76713-60.38356V60.38356C372.76713 62.5845 370.98298 64.36867 368.782 64.36867ZM247.93177-64.36867" fill="#f6f6f6"/>
<path transform="matrix(1,0,0,-1,76.197,182.647)" stroke-width="1.99255" stroke-linecap="butt" stroke-miterlimit="10" stroke-linejoin="miter" fill="none" stroke="#000000" d="M368.782 64.36867H251.91687C249.71593 64.36867 247.93177 62.5845 247.93177 60.38356V-60.38356C247.93177-62.5845 249.71593-64.36867 251.91687-64.36867H368.782C370.98298-64.36867 372.76713-62.5845 372.76713-60.38356V60.38356C372.76713 62.5845 370.98298 64.36867 368.782 64.36867ZM247.93177-64.36867"/>
<path transform="matrix(1,0,0,-1,76.197,182.647)" d="M368.77397 64.53246H251.90882C249.70787 64.53246 247.9237 62.74829 247.9237 60.54735V33.40738C247.9237 31.20644 249.70787 29.42227 251.90882 29.42227H368.77397C370.9749 29.42227 372.75907 31.20644 372.75907 33.40738V60.54735C372.75907 62.74829 370.9749 64.53246 368.77397 64.53246ZM247.9237 29.42227" fill="#2b5580"/>
<path transform="matrix(1,0,0,-1,76.197,182.647)" stroke-width=".99628" stroke-linecap="butt" stroke-miterlimit="10" stroke-linejoin="miter" fill="none" stroke="#000000" d="M368.77397 64.53246H251.90882C249.70787 64.53246 247.9237 62.74829 247.9237 60.54735V33.40738C247.9237 31.20644 249.70787 29.42227 251.90882 29.42227H368.77397C370.9749 29.42227 372.75907 31.20644 372.75907 33.40738V60.54735C372.75907 62.74829 370.9749 64.53246 368.77397 64.53246ZM247.9237 29.42227"/>
<text fill="#ffffff" xml:space="preserve" transform="matrix(1 0 -0 1 0 253.884)" font-size="11.9552" font-family="SFBX1200" font-weight="bold"><tspan y="-122.473" x="347.825 356.636 363.17549 368.6629 375.2024 386.40443 392.53746 397.76188 403.8949 409.38233 413.11235 419.08995">Parameterize</tspan><tspan y="-108.028" x="353.18803 362.01097 372.84239 380.685 386.81803 394.29005 401.76203 405.49205 412.96406">Embedding</tspan></text>
<g clip-path="url(#clip_2)">
<path transform="matrix(.4,0,0,-.4,359.67073,170.79053)" d="M21.2601 0C21.2601 11.74178 11.74178 21.2601 0 21.2601-11.74178 21.2601-21.2601 11.74178-21.2601 0-21.2601-11.74178-11.74178-21.2601 0-21.2601 11.74178-21.2601 21.2601-11.74178 21.2601 0ZM0 0" fill="#7f807f" fill-opacity=".5"/>
<path transform="matrix(.4,0,0,-.4,358.4752,169.595)" d="M21.2601 0C21.2601 11.74178 11.74178 21.2601 0 21.2601-11.74178 21.2601-21.2601 11.74178-21.2601 0-21.2601-11.74178-11.74178-21.2601 0-21.2601 11.74178-21.2601 21.2601-11.74178 21.2601 0ZM0 0" fill="#b66983"/>
<path transform="matrix(.4,0,0,-.4,358.4752,169.595)" stroke-width="2.98883" stroke-linecap="butt" stroke-miterlimit="10" stroke-linejoin="miter" fill="none" stroke="#000000" d="M21.2601 0C21.2601 11.74178 11.74178 21.2601 0 21.2601-11.74178 21.2601-21.2601 11.74178-21.2601 0-21.2601-11.74178-11.74178-21.2601 0-21.2601 11.74178-21.2601 21.2601-11.74178 21.2601 0ZM0 0"/>
<text xml:space="preserve" transform="matrix(.4 0 -0 .4 344.418 239.773)" font-size="20.6625" font-family="CMMI12" font-style="italic"><tspan y="-172.547" x="26.617">s</tspan></text>
<text xml:space="preserve" transform="matrix(.4 0 -0 .4 344.418 239.773)" font-size="14.3462" font-family="CMR12"><tspan y="-169.44699" x="36.147">1</tspan></text>
<text xml:space="preserve" transform="matrix(.4 0 -0 .4 344.41798 239.77301)" font-size="17.2154" font-family="CMMI12" font-style="italic"><tspan y="-199.213" x="47.385">a</tspan></text>
<text xml:space="preserve" transform="matrix(.4 0 -0 .4 344.41798 239.77301)" font-size="11.9552" font-family="CMR12"><tspan y="-196.63" x="56.233999">1</tspan></text>
<path transform="matrix(.4,0,0,-.4,359.67073,170.79053)" d="M95.11594 0C95.11594 11.74178 85.59763 21.2601 73.85583 21.2601 62.11406 21.2601 52.59573 11.74178 52.59573 0 52.59573-11.74178 62.11406-21.2601 73.85583-21.2601 85.59763-21.2601 95.11594-11.74178 95.11594 0ZM73.85583 0" fill="#7f807f" fill-opacity=".5"/>
<path transform="matrix(.4,0,0,-.4,358.4752,169.595)" d="M95.11594 0C95.11594 11.74178 85.59763 21.2601 73.85583 21.2601 62.11406 21.2601 52.59573 11.74178 52.59573 0 52.59573-11.74178 62.11406-21.2601 73.85583-21.2601 85.59763-21.2601 95.11594-11.74178 95.11594 0ZM73.85583 0" fill="#6f92b7"/>
<path transform="matrix(.4,0,0,-.4,358.4752,169.595)" stroke-width="2.98883" stroke-linecap="butt" stroke-miterlimit="10" stroke-linejoin="miter" fill="none" stroke="#000000" d="M95.11594 0C95.11594 11.74178 85.59763 21.2601 73.85583 21.2601 62.11406 21.2601 52.59573 11.74178 52.59573 0 52.59573-11.74178 62.11406-21.2601 73.85583-21.2601 85.59763-21.2601 95.11594-11.74178 95.11594 0ZM73.85583 0"/>
<text xml:space="preserve" transform="matrix(.4 0 -0 .4 344.41798 239.773)" font-size="20.6625" font-family="CMMI12" font-style="italic"><tspan y="-172.547" x="100.472">s</tspan></text>
<text xml:space="preserve" transform="matrix(.4 0 -0 .4 344.41798 239.773)" font-size="14.3462" font-family="CMR12"><tspan y="-169.44699" x="110.002">2</tspan></text>
<text xml:space="preserve" transform="matrix(.4 0 -0 .4 344.418 239.77301)" font-size="17.2154" font-family="CMMI12" font-style="italic"><tspan y="-199.213" x="121.24">a</tspan></text>
<text xml:space="preserve" transform="matrix(.4 0 -0 .4 344.418 239.77301)" font-size="11.9552" font-family="CMR12"><tspan y="-196.63" x="130.089">2</tspan></text>
<path transform="matrix(.4,0,0,-.4,359.67073,170.79053)" d="M168.97179 0C168.97179 11.74178 159.45346 21.2601 147.71169 21.2601 135.96991 21.2601 126.45158 11.74178 126.45158 0 126.45158-11.74178 135.96991-21.2601 147.71169-21.2601 159.45346-21.2601 168.97179-11.74178 168.97179 0ZM147.71169 0" fill="#7f807f" fill-opacity=".5"/>
<path transform="matrix(.4,0,0,-.4,358.4752,169.595)" d="M168.97179 0C168.97179 11.74178 159.45346 21.2601 147.71169 21.2601 135.96991 21.2601 126.45158 11.74178 126.45158 0 126.45158-11.74178 135.96991-21.2601 147.71169-21.2601 159.45346-21.2601 168.97179-11.74178 168.97179 0ZM147.71169 0" fill="#ffffff"/>
<path transform="matrix(.4,0,0,-.4,358.4752,169.595)" stroke-width="2.98883" stroke-linecap="butt" stroke-miterlimit="10" stroke-linejoin="miter" fill="none" stroke="#000000" d="M168.97179 0C168.97179 11.74178 159.45346 21.2601 147.71169 21.2601 135.96991 21.2601 126.45158 11.74178 126.45158 0 126.45158-11.74178 135.96991-21.2601 147.71169-21.2601 159.45346-21.2601 168.97179-11.74178 168.97179 0ZM147.71169 0"/>
<path transform="matrix(.4,0,0,-.4,359.67073,170.79053)" d="M21.2601-73.85583C21.2601-62.11406 11.74178-52.59573 0-52.59573-11.74178-52.59573-21.2601-62.11406-21.2601-73.85583-21.2601-85.59763-11.74178-95.11594 0-95.11594 11.74178-95.11594 21.2601-85.59763 21.2601-73.85583ZM0-73.85583" fill="#7f807f" fill-opacity=".5"/>
<path transform="matrix(.4,0,0,-.4,358.4752,169.595)" d="M21.2601-73.85583C21.2601-62.11406 11.74178-52.59573 0-52.59573-11.74178-52.59573-21.2601-62.11406-21.2601-73.85583-21.2601-85.59763-11.74178-95.11594 0-95.11594 11.74178-95.11594 21.2601-85.59763 21.2601-73.85583ZM0-73.85583" fill="#72b46b"/>
<path transform="matrix(.4,0,0,-.4,358.4752,169.595)" stroke-width="2.98883" stroke-linecap="butt" stroke-miterlimit="10" stroke-linejoin="miter" fill="none" stroke="#000000" d="M21.2601-73.85583C21.2601-62.11406 11.74178-52.59573 0-52.59573-11.74178-52.59573-21.2601-62.11406-21.2601-73.85583-21.2601-85.59763-11.74178-95.11594 0-95.11594 11.74178-95.11594 21.2601-85.59763 21.2601-73.85583ZM0-73.85583"/>
<text xml:space="preserve" transform="matrix(.4 0 -0 .4 344.418 239.77301)" font-size="20.6625" font-family="CMMI12" font-style="italic"><tspan y="-98.692" x="26.617">s</tspan></text>
<text xml:space="preserve" transform="matrix(.4 0 -0 .4 344.418 239.77301)" font-size="14.3462" font-family="CMR12"><tspan y="-95.593" x="36.147">3</tspan></text>
<text xml:space="preserve" transform="matrix(.4 0 -0 .4 344.41798 239.77301)" font-size="17.2154" font-family="CMMI12" font-style="italic"><tspan y="-125.358" x="47.385">a</tspan></text>
<text xml:space="preserve" transform="matrix(.4 0 -0 .4 344.41798 239.77301)" font-size="11.9552" font-family="CMR12"><tspan y="-122.775" x="56.233999">3</tspan></text>
<path transform="matrix(.4,0,0,-.4,359.67073,170.79053)" d="M95.11594-73.85583C95.11594-62.11406 85.59763-52.59573 73.85583-52.59573 62.11406-52.59573 52.59573-62.11406 52.59573-73.85583 52.59573-85.59763 62.11406-95.11594 73.85583-95.11594 85.59763-95.11594 95.11594-85.59763 95.11594-73.85583ZM73.85583-73.85583" fill="#7f807f" fill-opacity=".5"/>
<path transform="matrix(.4,0,0,-.4,358.4752,169.595)" d="M95.11594-73.85583C95.11594-62.11406 85.59763-52.59573 73.85583-52.59573 62.11406-52.59573 52.59573-62.11406 52.59573-73.85583 52.59573-85.59763 62.11406-95.11594 73.85583-95.11594 85.59763-95.11594 95.11594-85.59763 95.11594-73.85583ZM73.85583-73.85583" fill="#72b46b"/>
<path transform="matrix(.4,0,0,-.4,358.4752,169.595)" stroke-width="2.98883" stroke-linecap="butt" stroke-miterlimit="10" stroke-linejoin="miter" fill="none" stroke="#000000" d="M95.11594-73.85583C95.11594-62.11406 85.59763-52.59573 73.85583-52.59573 62.11406-52.59573 52.59573-62.11406 52.59573-73.85583 52.59573-85.59763 62.11406-95.11594 73.85583-95.11594 85.59763-95.11594 95.11594-85.59763 95.11594-73.85583ZM73.85583-73.85583"/>
<text xml:space="preserve" transform="matrix(.4 0 -0 .4 344.41798 239.77301)" font-size="20.6625" font-family="CMMI12" font-style="italic"><tspan y="-98.692" x="100.472">s</tspan></text>
<text xml:space="preserve" transform="matrix(.4 0 -0 .4 344.41798 239.77301)" font-size="14.3462" font-family="CMR12"><tspan y="-95.593" x="110.002">4</tspan></text>
<text xml:space="preserve" transform="matrix(.4 0 -0 .4 344.418 239.77301)" font-size="17.2154" font-family="CMMI12" font-style="italic"><tspan y="-125.358" x="121.24">a</tspan></text>
<text xml:space="preserve" transform="matrix(.4 0 -0 .4 344.418 239.77301)" font-size="11.9552" font-family="CMR12"><tspan y="-122.775" x="130.089">4</tspan></text>
<path transform="matrix(.4,0,0,-.4,359.67073,170.79053)" d="M168.97179-73.85583C168.97179-62.11406 159.45346-52.59573 147.71169-52.59573 135.96991-52.59573 126.45158-62.11406 126.45158-73.85583 126.45158-85.59763 135.96991-95.11594 147.71169-95.11594 159.45346-95.11594 168.97179-85.59763 168.97179-73.85583ZM147.71169-73.85583" fill="#7f807f" fill-opacity=".5"/>
<path transform="matrix(.4,0,0,-.4,358.4752,169.595)" d="M168.97179-73.85583C168.97179-62.11406 159.45346-52.59573 147.71169-52.59573 135.96991-52.59573 126.45158-62.11406 126.45158-73.85583 126.45158-85.59763 135.96991-95.11594 147.71169-95.11594 159.45346-95.11594 168.97179-85.59763 168.97179-73.85583ZM147.71169-73.85583" fill="#ffffff"/>
<path transform="matrix(.4,0,0,-.4,358.4752,169.595)" stroke-width="2.98883" stroke-linecap="butt" stroke-miterlimit="10" stroke-linejoin="miter" fill="none" stroke="#000000" d="M168.97179-73.85583C168.97179-62.11406 159.45346-52.59573 147.71169-52.59573 135.96991-52.59573 126.45158-62.11406 126.45158-73.85583 126.45158-85.59763 135.96991-95.11594 147.71169-95.11594 159.45346-95.11594 168.97179-85.59763 168.97179-73.85583ZM147.71169-73.85583"/>
<path transform="matrix(.4,0,0,-.4,359.67073,170.79053)" d="M21.2601-147.71169C21.2601-135.96991 11.74178-126.45158 0-126.45158-11.74178-126.45158-21.2601-135.96991-21.2601-147.71169-21.2601-159.45346-11.74178-168.97179 0-168.97179 11.74178-168.97179 21.2601-159.45346 21.2601-147.71169ZM0-147.71169" fill="#7f807f" fill-opacity=".5"/>
<path transform="matrix(.4,0,0,-.4,358.4752,169.595)" d="M21.2601-147.71169C21.2601-135.96991 11.74178-126.45158 0-126.45158-11.74178-126.45158-21.2601-135.96991-21.2601-147.71169-21.2601-159.45346-11.74178-168.97179 0-168.97179 11.74178-168.97179 21.2601-159.45346 21.2601-147.71169ZM0-147.71169" fill="#ffffff"/>
<path transform="matrix(.4,0,0,-.4,358.4752,169.595)" stroke-width="2.98883" stroke-linecap="butt" stroke-miterlimit="10" stroke-linejoin="miter" fill="none" stroke="#000000" d="M21.2601-147.71169C21.2601-135.96991 11.74178-126.45158 0-126.45158-11.74178-126.45158-21.2601-135.96991-21.2601-147.71169-21.2601-159.45346-11.74178-168.97179 0-168.97179 11.74178-168.97179 21.2601-159.45346 21.2601-147.71169ZM0-147.71169"/>
<path transform="matrix(.4,0,0,-.4,359.67073,170.79053)" d="M95.11594-147.71169C95.11594-135.96991 85.59763-126.45158 73.85583-126.45158 62.11406-126.45158 52.59573-135.96991 52.59573-147.71169 52.59573-159.45346 62.11406-168.97179 73.85583-168.97179 85.59763-168.97179 95.11594-159.45346 95.11594-147.71169ZM73.85583-147.71169" fill="#7f807f" fill-opacity=".5"/>
<path transform="matrix(.4,0,0,-.4,358.4752,169.595)" d="M95.11594-147.71169C95.11594-135.96991 85.59763-126.45158 73.85583-126.45158 62.11406-126.45158 52.59573-135.96991 52.59573-147.71169 52.59573-159.45346 62.11406-168.97179 73.85583-168.97179 85.59763-168.97179 95.11594-159.45346 95.11594-147.71169ZM73.85583-147.71169" fill="#ffffff"/>
<path transform="matrix(.4,0,0,-.4,358.4752,169.595)" stroke-width="2.98883" stroke-linecap="butt" stroke-miterlimit="10" stroke-linejoin="miter" fill="none" stroke="#000000" d="M95.11594-147.71169C95.11594-135.96991 85.59763-126.45158 73.85583-126.45158 62.11406-126.45158 52.59573-135.96991 52.59573-147.71169 52.59573-159.45346 62.11406-168.97179 73.85583-168.97179 85.59763-168.97179 95.11594-159.45346 95.11594-147.71169ZM73.85583-147.71169"/>
<path transform="matrix(.4,0,0,-.4,359.67073,170.79053)" d="M168.97179-147.71169C168.97179-135.96991 159.45346-126.45158 147.71169-126.45158 135.96991-126.45158 126.45158-135.96991 126.45158-147.71169 126.45158-159.45346 135.96991-168.97179 147.71169-168.97179 159.45346-168.97179 168.97179-159.45346 168.97179-147.71169ZM147.71169-147.71169" fill="#7f807f" fill-opacity=".5"/>
<path transform="matrix(.4,0,0,-.4,358.4752,169.595)" d="M168.97179-147.71169C168.97179-135.96991 159.45346-126.45158 147.71169-126.45158 135.96991-126.45158 126.45158-135.96991 126.45158-147.71169 126.45158-159.45346 135.96991-168.97179 147.71169-168.97179 159.45346-168.97179 168.97179-159.45346 168.97179-147.71169ZM147.71169-147.71169" fill="#ffffff"/>
<path transform="matrix(.4,0,0,-.4,358.4752,169.595)" stroke-width="2.98883" stroke-linecap="butt" stroke-miterlimit="10" stroke-linejoin="miter" fill="none" stroke="#000000" d="M168.97179-147.71169C168.97179-135.96991 159.45346-126.45158 147.71169-126.45158 135.96991-126.45158 126.45158-135.96991 126.45158-147.71169 126.45158-159.45346 135.96991-168.97179 147.71169-168.97179 159.45346-168.97179 168.97179-159.45346 168.97179-147.71169ZM147.71169-147.71169"/>
<path transform="matrix(.4,0,0,-.4,358.4752,169.595)" stroke-width="5.97766" stroke-linecap="butt" stroke-miterlimit="10" stroke-linejoin="miter" fill="none" stroke="#000000" d="M22.75452 0H51.10132"/>
<text xml:space="preserve" transform="matrix(.4 0 -0 .4 344.41798 239.773)" font-size="17.2154" font-family="CMMI12" font-style="italic"><tspan y="-156.601" x="62.385">b</tspan></text>
<text xml:space="preserve" transform="matrix(.4 0 -0 .4 344.41798 239.773)" font-size="11.9552" font-family="CMR12"><tspan y="-154.018" x="69.552 75.41005">12</tspan></text>
<path transform="matrix(.4,0,0,-.4,358.4752,169.595)" stroke-width="2.98883" stroke-linecap="butt" stroke-miterlimit="10" stroke-linejoin="miter" fill="none" stroke="#000000" d="M96.61035 0H124.95717"/>
<path transform="matrix(.4,0,0,-.4,358.4752,169.595)" stroke-width="5.97766" stroke-linecap="butt" stroke-miterlimit="10" stroke-linejoin="miter" fill="none" stroke="#000000" d="M22.75452-73.85583H51.10132"/>
<text xml:space="preserve" transform="matrix(.4 0 -0 .4 344.41798 239.77301)" font-size="17.2154" font-family="CMMI12" font-style="italic"><tspan y="-82.746" x="62.385">b</tspan></text>
<text xml:space="preserve" transform="matrix(.4 0 -0 .4 344.41798 239.77301)" font-size="11.9552" font-family="CMR12"><tspan y="-80.164" x="69.552 75.41005">34</tspan></text>
<path transform="matrix(.4,0,0,-.4,358.4752,169.595)" stroke-width="2.98883" stroke-linecap="butt" stroke-miterlimit="10" stroke-linejoin="miter" fill="none" stroke="#72b46b" d="M22.75452-73.85583H51.10132"/>
<path transform="matrix(.4,0,0,-.4,358.4752,169.595)" stroke-width="2.98883" stroke-linecap="butt" stroke-miterlimit="10" stroke-linejoin="miter" fill="none" stroke="#000000" d="M96.61035-73.85583H124.95717"/>
<path transform="matrix(.4,0,0,-.4,358.4752,169.595)" stroke-width="2.98883" stroke-linecap="butt" stroke-miterlimit="10" stroke-linejoin="miter" fill="none" stroke="#000000" d="M22.75452-147.71169H51.10132"/>
<path transform="matrix(.4,0,0,-.4,358.4752,169.595)" stroke-width="2.98883" stroke-linecap="butt" stroke-miterlimit="10" stroke-linejoin="miter" fill="none" stroke="#000000" d="M96.61035-147.71169H124.95717"/>
<path transform="matrix(.4,0,0,-.4,358.4752,169.595)" stroke-width="5.97766" stroke-linecap="butt" stroke-miterlimit="10" stroke-linejoin="miter" fill="none" stroke="#000000" d="M0-22.75452V-51.10132"/>
<text xml:space="preserve" transform="matrix(.4 0 -0 .4 344.418 239.773)" font-size="17.2154" font-family="CMMI12" font-style="italic"><tspan y="-133.831" x="8.882">b</tspan></text>
<text xml:space="preserve" transform="matrix(.4 0 -0 .4 344.418 239.773)" font-size="11.9552" font-family="CMR12"><tspan y="-131.249" x="16.049 21.907048">13</tspan></text>
<path transform="matrix(.4,0,0,-.4,358.4752,169.595)" stroke-width="2.98883" stroke-linecap="butt" stroke-miterlimit="10" stroke-linejoin="miter" fill="none" stroke="#000000" d="M0-96.61035V-124.95717"/>
<path transform="matrix(.4,0,0,-.4,358.4752,169.595)" stroke-width="5.97766" stroke-linecap="butt" stroke-miterlimit="10" stroke-linejoin="miter" fill="none" stroke="#000000" d="M73.85583-22.75452V-51.10132"/>
<text xml:space="preserve" transform="matrix(.4 0 -0 .4 344.418 239.773)" font-size="17.2154" font-family="CMMI12" font-style="italic"><tspan y="-133.831" x="82.737">b</tspan></text>
<text xml:space="preserve" transform="matrix(.4 0 -0 .4 344.418 239.773)" font-size="11.9552" font-family="CMR12"><tspan y="-131.249" x="89.904 95.76205">24</tspan></text>
<path transform="matrix(.4,0,0,-.4,358.4752,169.595)" stroke-width="2.98883" stroke-linecap="butt" stroke-miterlimit="10" stroke-linejoin="miter" fill="none" stroke="#000000" d="M73.85583-96.61035V-124.95717"/>
<path transform="matrix(.4,0,0,-.4,358.4752,169.595)" stroke-width="2.98883" stroke-linecap="butt" stroke-miterlimit="10" stroke-linejoin="miter" fill="none" stroke="#000000" d="M147.71169-22.75452V-51.10132"/>
<path transform="matrix(.4,0,0,-.4,358.4752,169.595)" stroke-width="2.98883" stroke-linecap="butt" stroke-miterlimit="10" stroke-linejoin="miter" fill="none" stroke="#000000" d="M147.71169-96.61035V-124.95717"/>
</g>
<path transform="matrix(1,0,0,-1,80.1821,186.63211)" d="M523.9567 64.36867H407.0916C404.89067 64.36867 403.10649 62.5845 403.10649 60.38356V-60.38356C403.10649-62.5845 404.89067-64.36867 407.0916-64.36867H523.9567C526.15768-64.36867 527.94186-62.5845 527.94186-60.38356V60.38356C527.94186 62.5845 526.15768 64.36867 523.9567 64.36867ZM403.10649-64.36867" fill="#7f807f" fill-opacity=".5"/>
<path transform="matrix(1,0,0,-1,76.197,182.647)" d="M523.9567 64.36867H407.0916C404.89067 64.36867 403.10649 62.5845 403.10649 60.38356V-60.38356C403.10649-62.5845 404.89067-64.36867 407.0916-64.36867H523.9567C526.15768-64.36867 527.94186-62.5845 527.94186-60.38356V60.38356C527.94186 62.5845 526.15768 64.36867 523.9567 64.36867ZM403.10649-64.36867" fill="#f6f6f6"/>
<path transform="matrix(1,0,0,-1,76.197,182.647)" stroke-width="1.99255" stroke-linecap="butt" stroke-miterlimit="10" stroke-linejoin="miter" fill="none" stroke="#000000" d="M523.9567 64.36867H407.0916C404.89067 64.36867 403.10649 62.5845 403.10649 60.38356V-60.38356C403.10649-62.5845 404.89067-64.36867 407.0916-64.36867H523.9567C526.15768-64.36867 527.94186-62.5845 527.94186-60.38356V60.38356C527.94186 62.5845 526.15768 64.36867 523.9567 64.36867ZM403.10649-64.36867"/>
<text xml:space="preserve" transform="matrix(1 0 -0 1 0 253.884)" font-size="11.9552" font-family="SFBX1200" font-weight="bold"><tspan y="-76.868" x="487.838 495.31 502.0288 505.75883 512.4896 522.52 527.52926 532.83737 536.5674 544.03939 554.6556 567.4118 574.5132 581.98519 588.11819 591.8482">SolveIsingModel:</tspan></text>
<text xml:space="preserve" transform="matrix(1 0 -0 1 0 253.884)" font-size="11.9552" font-family="SFRM1200"><tspan y="-62.421998" x="509.46903 518.24417 522.8588 527.4735 530.72537 536.5834 546.9844 553.1652 559.6688 566.1724 569.42428">Assignqubit</tspan><tspan y="-47.975999" x="496.78804 501.40275 507.90638 511.15818 517.6618 526.1739 530.7288 540.4962 550.25167 553.5035 560.0071 563.2589 573.01437 576.2662 581.4667">spinstominimize</tspan><tspan y="-33.53" x="498.739 503.9395 510.44316 515.6437 520.1986 526.05667 536.1349 539.3867 549.7997 554.41439 560.58328 565.2099 569.76486 574.95339">energyinsystem</tspan></text>
<path transform="matrix(1,0,0,-1,76.197,182.647)" d="M523.94467 64.53246H407.0795C404.87858 64.53246 403.0944 62.74829 403.0944 60.54735V33.40738C403.0944 31.20644 404.87858 29.42227 407.0795 29.42227H523.94467C526.1456 29.42227 527.92977 31.20644 527.92977 33.40738V60.54735C527.92977 62.74829 526.1456 64.53246 523.94467 64.53246ZM403.0944 29.42227" fill="#2b5580"/>
<path transform="matrix(1,0,0,-1,76.197,182.647)" stroke-width=".99628" stroke-linecap="butt" stroke-miterlimit="10" stroke-linejoin="miter" fill="none" stroke="#000000" d="M523.94467 64.53246H407.0795C404.87858 64.53246 403.0944 62.74829 403.0944 60.54735V33.40738C403.0944 31.20644 404.87858 29.42227 407.0795 29.42227H523.94467C526.1456 29.42227 527.92977 31.20644 527.92977 33.40738V60.54735C527.92977 62.74829 526.1456 64.53246 523.94467 64.53246ZM403.0944 29.42227"/>
<text fill="#ffffff" xml:space="preserve" transform="matrix(1 0 -0 1 -.000030517579 253.884)" font-size="11.9552" font-family="SFBX1200" font-weight="bold"><tspan y="-122.473" x="499.715 509.74543 517.2174 528.5868 538.68899 546.16098 552.70046 559.8018 565.02627 572.4982">RunQuantum</tspan><tspan y="-108.028" x="511.895 522.045 529.51699 536.98898 543.12197 549.66146 553.3915 557.1215 564.5935">Annealing</tspan></text>
<path transform="matrix(1,0,0,-1,80.1821,186.63211)" d="M66.23526 176.63179H-66.23526C-68.4362 176.63179-70.22037 174.84763-70.22037 172.64669V98.69313C-70.22037 96.49219-68.4362 94.70802-66.23526 94.70802H66.23526C68.4362 94.70802 70.22037 96.49219 70.22037 98.69313V172.64669C70.22037 174.84763 68.4362 176.63179 66.23526 176.63179ZM-70.22037 94.70802" fill="#7f807f" fill-opacity=".5"/>
<path transform="matrix(1,0,0,-1,76.197,182.647)" d="M66.23526 176.63179H-66.23526C-68.4362 176.63179-70.22037 174.84763-70.22037 172.64669V98.69313C-70.22037 96.49219-68.4362 94.70802-66.23526 94.70802H66.23526C68.4362 94.70802 70.22037 96.49219 70.22037 98.69313V172.64669C70.22037 174.84763 68.4362 176.63179 66.23526 176.63179ZM-70.22037 94.70802" fill="#f6f6f6"/>
<path transform="matrix(1,0,0,-1,76.197,182.647)" stroke-width="1.99255" stroke-linecap="butt" stroke-miterlimit="10" stroke-linejoin="miter" fill="none" stroke="#000000" d="M66.23526 176.63179H-66.23526C-68.4362 176.63179-70.22037 174.84763-70.22037 172.64669V98.69313C-70.22037 96.49219-68.4362 94.70802-66.23526 94.70802H66.23526C68.4362 94.70802 70.22037 96.49219 70.22037 98.69313V172.64669C70.22037 174.84763 68.4362 176.63179 66.23526 176.63179ZM-70.22037 94.70802"/>
<text xml:space="preserve" transform="matrix(1 0 -0 1 0 253.88402)" font-size="10.9091" font-family="CMR10"><tspan y="-211.312" x="24.485 29.93955 34.21592 41.64502 50.7323 53.76503">argmin</tspan></text>
<text xml:space="preserve" transform="matrix(1 0 -0 1 0 253.88402)" font-size="7.9701" font-family="CMMI8" font-style="italic"><tspan y="-201.659" x="39.657 39.768587">&#x20d7;x</tspan></text>
<text xml:space="preserve" transform="matrix(1 0 -0 1 0 253.88402)" font-size="10.9091" font-family="CMEX10"><tspan y="-221.676" x="61.636">&#xfffd;</tspan></text>
<text xml:space="preserve" transform="matrix(1 0 -0 1 0 253.88402)" font-size="7.9701" font-family="CMMI8" font-style="italic"><tspan y="-198.165" x="62.838">i</tspan></text>
<text xml:space="preserve" transform="matrix(1 0 -0 1 0 253.88402)" font-size="7.9701" font-family="CMSY8" font-style="italic"><tspan y="-198.165" x="65.721">&#x2264;</tspan></text>
<text xml:space="preserve" transform="matrix(1 0 -0 1 0 253.88402)" font-size="7.9701" font-family="CMMI8" font-style="italic"><tspan y="-198.165" x="72.308">j</tspan></text>
<text xml:space="preserve" transform="matrix(1 0 -0 1 0 253.88402)" font-size="10.9091" font-family="CMMI10" font-style="italic"><tspan y="-211.312" x="79.212">Q</tspan></text>
<text xml:space="preserve" transform="matrix(1 0 -0 1 0 253.88402)" font-size="7.9701" font-family="CMMI8" font-style="italic"><tspan y="-209.676" x="87.836 90.721179">ij</tspan></text>
<text xml:space="preserve" transform="matrix(1 0 -0 1 0 253.88402)" font-size="10.9091" font-family="CMMI10" font-style="italic"><tspan y="-211.312" x="95.102">x</tspan></text>
<text xml:space="preserve" transform="matrix(1 0 -0 1 0 253.88402)" font-size="7.9701" font-family="CMMI8" font-style="italic"><tspan y="-209.676" x="101.336">i</tspan></text>
<text xml:space="preserve" transform="matrix(1 0 -0 1 0 253.88402)" font-size="10.9091" font-family="CMMI10" font-style="italic"><tspan y="-211.312" x="104.718">x</tspan></text>
<text xml:space="preserve" transform="matrix(1 0 -0 1 0 253.88402)" font-size="7.9701" font-family="CMMI8" font-style="italic"><tspan y="-209.676" x="110.953">j</tspan></text>
<text xml:space="preserve" transform="matrix(1 0 -0 1 0 253.88402)" font-size="10.9091" font-family="SFRM1095"><tspan y="-211.312" x="119.235 122.55137 127.97319">for</tspan></text>
<text xml:space="preserve" transform="matrix(1 0 -0 1 0 253.88402)" font-size="10.9091" font-family="CMMI10" font-style="italic"><tspan y="-182.055" x="20.199997">Q</tspan></text>
<text xml:space="preserve" transform="matrix(1 0 -0 1 0 253.88402)" font-size="7.9701" font-family="CMMI8" font-style="italic"><tspan y="-180.418" x="28.823998 31.709174">ij</tspan></text>
<text xml:space="preserve" transform="matrix(1 0 -0 1 0 253.88402)" font-size="10.9091" font-family="CMSY10" font-style="italic"><tspan y="-182.055" x="39.119997">&#x2208;</tspan></text>
<text xml:space="preserve" transform="matrix(1 0 -0 1 0 253.88402)" font-size="10.9091" font-family="MSBM10"><tspan y="-182.055" x="49.422998">R</tspan></text>
<text xml:space="preserve" transform="matrix(1 0 -0 1 0 253.88402)" font-size="10.9091" font-family="SFRM1095"><tspan y="-182.055" x="61.201997 66.62382 72.64564">and</tspan></text>
<text xml:space="preserve" transform="matrix(1 0 -0 1 0 253.88402)" font-size="10.9091" font-family="CMMI10" font-style="italic"><tspan y="-182.055" x="82.577999">x</tspan></text>
<text xml:space="preserve" transform="matrix(1 0 -0 1 0 253.88402)" font-size="7.9701" font-family="CMMI8" font-style="italic"><tspan y="-180.418" x="88.812999">i</tspan></text>
<text xml:space="preserve" transform="matrix(1 0 -0 1 0 253.88402)" font-size="10.9091" font-family="CMSY10" font-style="italic"><tspan y="-182.055" x="95.224 105.5331">&#x2208;{</tspan></text>
<text xml:space="preserve" transform="matrix(1 0 -0 1 0 253.88402)" font-size="10.9091" font-family="CMR10"><tspan y="-182.055" x="110.982">0</tspan></text>
<text xml:space="preserve" transform="matrix(1 0 -0 1 0 253.88402)" font-size="10.9091" font-family="CMMI10" font-style="italic"><tspan y="-182.055" x="116.437007">,</tspan></text>
<text xml:space="preserve" transform="matrix(1 0 -0 1 0 253.88402)" font-size="10.9091" font-family="CMR10"><tspan y="-182.055" x="121.285">1</tspan></text>
<text xml:space="preserve" transform="matrix(1 0 -0 1 0 253.88402)" font-size="10.9091" font-family="CMSY10" font-style="italic"><tspan y="-182.055" x="126.740009">}</tspan></text>
<path transform="matrix(1,0,0,-1,76.197,182.647)" d="M66.23526 176.65949H-66.23526C-68.4362 176.65949-70.22037 174.87532-70.22037 172.67438V162.26863C-70.22037 160.06769-68.4362 158.28353-66.23526 158.28353H66.23526C68.4362 158.28353 70.22037 160.06769 70.22037 162.26863V172.67438C70.22037 174.87532 68.4362 176.65949 66.23526 176.65949ZM-70.22037 158.28353" fill="#7f807f"/>
<path transform="matrix(1,0,0,-1,76.197,182.647)" stroke-width=".99628" stroke-linecap="butt" stroke-miterlimit="10" stroke-linejoin="miter" fill="none" stroke="#000000" d="M66.23526 176.65949H-66.23526C-68.4362 176.65949-70.22037 174.87532-70.22037 172.67438V162.26863C-70.22037 160.06769-68.4362 158.28353-66.23526 158.28353H66.23526C68.4362 158.28353 70.22037 160.06769 70.22037 162.26863V172.67438C70.22037 174.87532 68.4362 176.65949 66.23526 176.65949ZM-70.22037 158.28353"/>
<text fill="#ffffff" xml:space="preserve" transform="matrix(1 0 -0 1 .0000019073487 253.884)" font-size="11.9552" font-family="SFBX1200" font-weight="bold"><tspan y="-235.743" x="29.229 39.331148 49.66044 59.224599 73.22414 82.40573 87.893169 94.61199 102.08399 105.81401 111.94703">QUBOProblem</tspan></text>
<path transform="matrix(1,0,0,-1,80.1821,186.63211)" d="M221.40999 176.63179H88.93945C86.73851 176.63179 84.95435 174.84763 84.95435 172.64669V98.69313C84.95435 96.49219 86.73851 94.70802 88.93945 94.70802H221.40999C223.61093 94.70802 225.3951 96.49219 225.3951 98.69313V172.64669C225.3951 174.84763 223.61093 176.63179 221.40999 176.63179ZM84.95435 94.70802" fill="#7f807f" fill-opacity=".5"/>
<path transform="matrix(1,0,0,-1,76.197,182.647)" d="M221.40999 176.63179H88.93945C86.73851 176.63179 84.95435 174.84763 84.95435 172.64669V98.69313C84.95435 96.49219 86.73851 94.70802 88.93945 94.70802H221.40999C223.61093 94.70802 225.3951 96.49219 225.3951 98.69313V172.64669C225.3951 174.84763 223.61093 176.63179 221.40999 176.63179ZM84.95435 94.70802" fill="#f6f6f6"/>
<path transform="matrix(1,0,0,-1,76.197,182.647)" stroke-width="1.99255" stroke-linecap="butt" stroke-miterlimit="10" stroke-linejoin="miter" fill="none" stroke="#000000" d="M221.40999 176.63179H88.93945C86.73851 176.63179 84.95435 174.84763 84.95435 172.64669V98.69313C84.95435 96.49219 86.73851 94.70802 88.93945 94.70802H221.40999C223.61093 94.70802 225.3951 96.49219 225.3951 98.69313V172.64669C225.3951 174.84763 223.61093 176.63179 221.40999 176.63179ZM84.95435 94.70802"/>
<text xml:space="preserve" transform="matrix(1 0 -0 1 0 253.884)" font-size="11.9552" font-family="SFBX1200" font-weight="bold"><tspan y="-235.375" x="202.613 213.12163 219.66112 225.14856 232.62056 241.95758 248.49707 253.98451">Hardware</tspan></text>
<g clip-path="url(#clip_3)">
<path transform="matrix(.3,0,0,-.3,172.73555,38.776357)" d="M14.62924 0C14.62924 8.0796 8.0796 14.62924 0 14.62924-8.0796 14.62924-14.62924 8.0796-14.62924 0-14.62924-8.0796-8.0796-14.62924 0-14.62924 8.0796-14.62924 14.62924-8.0796 14.62924 0ZM0 0" fill="#7f807f" fill-opacity=".5"/>
<path transform="matrix(.3,0,0,-.3,171.8389,37.879709)" d="M14.62924 0C14.62924 8.0796 8.0796 14.62924 0 14.62924-8.0796 14.62924-14.62924 8.0796-14.62924 0-14.62924-8.0796-8.0796-14.62924 0-14.62924 8.0796-14.62924 14.62924-8.0796 14.62924 0ZM0 0" fill="#ffffff"/>
<path transform="matrix(.3,0,0,-.3,171.8389,37.879709)" stroke-width="2.98883" stroke-linecap="butt" stroke-miterlimit="10" stroke-linejoin="miter" fill="none" stroke="#000000" d="M14.62924 0C14.62924 8.0796 8.0796 14.62924 0 14.62924-8.0796 14.62924-14.62924 8.0796-14.62924 0-14.62924-8.0796-8.0796-14.62924 0-14.62924 8.0796-14.62924 14.62924-8.0796 14.62924 0ZM0 0"/>
<path transform="matrix(.3,0,0,-.3,172.73555,38.776357)" d="M75.22336 0C75.22336 8.0796 68.67372 14.62924 60.59412 14.62924 52.51451 14.62924 45.96487 8.0796 45.96487 0 45.96487-8.0796 52.51451-14.62924 60.59412-14.62924 68.67372-14.62924 75.22336-8.0796 75.22336 0ZM60.59412 0" fill="#7f807f" fill-opacity=".5"/>
<path transform="matrix(.3,0,0,-.3,171.8389,37.879709)" d="M75.22336 0C75.22336 8.0796 68.67372 14.62924 60.59412 14.62924 52.51451 14.62924 45.96487 8.0796 45.96487 0 45.96487-8.0796 52.51451-14.62924 60.59412-14.62924 68.67372-14.62924 75.22336-8.0796 75.22336 0ZM60.59412 0" fill="#ffffff"/>
<path transform="matrix(.3,0,0,-.3,171.8389,37.879709)" stroke-width="2.98883" stroke-linecap="butt" stroke-miterlimit="10" stroke-linejoin="miter" fill="none" stroke="#000000" d="M75.22336 0C75.22336 8.0796 68.67372 14.62924 60.59412 14.62924 52.51451 14.62924 45.96487 8.0796 45.96487 0 45.96487-8.0796 52.51451-14.62924 60.59412-14.62924 68.67372-14.62924 75.22336-8.0796 75.22336 0ZM60.59412 0"/>
<path transform="matrix(.3,0,0,-.3,172.73555,38.776357)" d="M135.81749 0C135.81749 8.0796 129.26786 14.62924 121.18825 14.62924 113.10864 14.62924 106.559 8.0796 106.559 0 106.559-8.0796 113.10864-14.62924 121.18825-14.62924 129.26786-14.62924 135.81749-8.0796 135.81749 0ZM121.18825 0" fill="#7f807f" fill-opacity=".5"/>
<path transform="matrix(.3,0,0,-.3,171.8389,37.879709)" d="M135.81749 0C135.81749 8.0796 129.26786 14.62924 121.18825 14.62924 113.10864 14.62924 106.559 8.0796 106.559 0 106.559-8.0796 113.10864-14.62924 121.18825-14.62924 129.26786-14.62924 135.81749-8.0796 135.81749 0ZM121.18825 0" fill="#ffffff"/>
<path transform="matrix(.3,0,0,-.3,171.8389,37.879709)" stroke-width="2.98883" stroke-linecap="butt" stroke-miterlimit="10" stroke-linejoin="miter" fill="none" stroke="#000000" d="M135.81749 0C135.81749 8.0796 129.26786 14.62924 121.18825 14.62924 113.10864 14.62924 106.559 8.0796 106.559 0 106.559-8.0796 113.10864-14.62924 121.18825-14.62924 129.26786-14.62924 135.81749-8.0796 135.81749 0ZM121.18825 0"/>
<path transform="matrix(.3,0,0,-.3,172.73555,38.776357)" d="M14.62924-60.59412C14.62924-52.51451 8.0796-45.96487 0-45.96487-8.0796-45.96487-14.62924-52.51451-14.62924-60.59412-14.62924-68.67372-8.0796-75.22336 0-75.22336 8.0796-75.22336 14.62924-68.67372 14.62924-60.59412ZM0-60.59412" fill="#7f807f" fill-opacity=".5"/>
<path transform="matrix(.3,0,0,-.3,171.8389,37.879709)" d="M14.62924-60.59412C14.62924-52.51451 8.0796-45.96487 0-45.96487-8.0796-45.96487-14.62924-52.51451-14.62924-60.59412-14.62924-68.67372-8.0796-75.22336 0-75.22336 8.0796-75.22336 14.62924-68.67372 14.62924-60.59412ZM0-60.59412" fill="#ffffff"/>
<path transform="matrix(.3,0,0,-.3,171.8389,37.879709)" stroke-width="2.98883" stroke-linecap="butt" stroke-miterlimit="10" stroke-linejoin="miter" fill="none" stroke="#000000" d="M14.62924-60.59412C14.62924-52.51451 8.0796-45.96487 0-45.96487-8.0796-45.96487-14.62924-52.51451-14.62924-60.59412-14.62924-68.67372-8.0796-75.22336 0-75.22336 8.0796-75.22336 14.62924-68.67372 14.62924-60.59412ZM0-60.59412"/>
<path transform="matrix(.3,0,0,-.3,172.73555,38.776357)" d="M75.22336-60.59412C75.22336-52.51451 68.67372-45.96487 60.59412-45.96487 52.51451-45.96487 45.96487-52.51451 45.96487-60.59412 45.96487-68.67372 52.51451-75.22336 60.59412-75.22336 68.67372-75.22336 75.22336-68.67372 75.22336-60.59412ZM60.59412-60.59412" fill="#7f807f" fill-opacity=".5"/>
<path transform="matrix(.3,0,0,-.3,171.8389,37.879709)" d="M75.22336-60.59412C75.22336-52.51451 68.67372-45.96487 60.59412-45.96487 52.51451-45.96487 45.96487-52.51451 45.96487-60.59412 45.96487-68.67372 52.51451-75.22336 60.59412-75.22336 68.67372-75.22336 75.22336-68.67372 75.22336-60.59412ZM60.59412-60.59412" fill="#ffffff"/>
<path transform="matrix(.3,0,0,-.3,171.8389,37.879709)" stroke-width="2.98883" stroke-linecap="butt" stroke-miterlimit="10" stroke-linejoin="miter" fill="none" stroke="#000000" d="M75.22336-60.59412C75.22336-52.51451 68.67372-45.96487 60.59412-45.96487 52.51451-45.96487 45.96487-52.51451 45.96487-60.59412 45.96487-68.67372 52.51451-75.22336 60.59412-75.22336 68.67372-75.22336 75.22336-68.67372 75.22336-60.59412ZM60.59412-60.59412"/>
<path transform="matrix(.3,0,0,-.3,172.73555,38.776357)" d="M135.81749-60.59412C135.81749-52.51451 129.26786-45.96487 121.18825-45.96487 113.10864-45.96487 106.559-52.51451 106.559-60.59412 106.559-68.67372 113.10864-75.22336 121.18825-75.22336 129.26786-75.22336 135.81749-68.67372 135.81749-60.59412ZM121.18825-60.59412" fill="#7f807f" fill-opacity=".5"/>
<path transform="matrix(.3,0,0,-.3,171.8389,37.879709)" d="M135.81749-60.59412C135.81749-52.51451 129.26786-45.96487 121.18825-45.96487 113.10864-45.96487 106.559-52.51451 106.559-60.59412 106.559-68.67372 113.10864-75.22336 121.18825-75.22336 129.26786-75.22336 135.81749-68.67372 135.81749-60.59412ZM121.18825-60.59412" fill="#ffffff"/>
<path transform="matrix(.3,0,0,-.3,171.8389,37.879709)" stroke-width="2.98883" stroke-linecap="butt" stroke-miterlimit="10" stroke-linejoin="miter" fill="none" stroke="#000000" d="M135.81749-60.59412C135.81749-52.51451 129.26786-45.96487 121.18825-45.96487 113.10864-45.96487 106.559-52.51451 106.559-60.59412 106.559-68.67372 113.10864-75.22336 121.18825-75.22336 129.26786-75.22336 135.81749-68.67372 135.81749-60.59412ZM121.18825-60.59412"/>
<path transform="matrix(.3,0,0,-.3,172.73555,38.776357)" d="M14.62924-121.18825C14.62924-113.10864 8.0796-106.559 0-106.559-8.0796-106.559-14.62924-113.10864-14.62924-121.18825-14.62924-129.26786-8.0796-135.81749 0-135.81749 8.0796-135.81749 14.62924-129.26786 14.62924-121.18825ZM0-121.18825" fill="#7f807f" fill-opacity=".5"/>
<path transform="matrix(.3,0,0,-.3,171.8389,37.879709)" d="M14.62924-121.18825C14.62924-113.10864 8.0796-106.559 0-106.559-8.0796-106.559-14.62924-113.10864-14.62924-121.18825-14.62924-129.26786-8.0796-135.81749 0-135.81749 8.0796-135.81749 14.62924-129.26786 14.62924-121.18825ZM0-121.18825" fill="#ffffff"/>
<path transform="matrix(.3,0,0,-.3,171.8389,37.879709)" stroke-width="2.98883" stroke-linecap="butt" stroke-miterlimit="10" stroke-linejoin="miter" fill="none" stroke="#000000" d="M14.62924-121.18825C14.62924-113.10864 8.0796-106.559 0-106.559-8.0796-106.559-14.62924-113.10864-14.62924-121.18825-14.62924-129.26786-8.0796-135.81749 0-135.81749 8.0796-135.81749 14.62924-129.26786 14.62924-121.18825ZM0-121.18825"/>
<path transform="matrix(.3,0,0,-.3,172.73555,38.776357)" d="M75.22336-121.18825C75.22336-113.10864 68.67372-106.559 60.59412-106.559 52.51451-106.559 45.96487-113.10864 45.96487-121.18825 45.96487-129.26786 52.51451-135.81749 60.59412-135.81749 68.67372-135.81749 75.22336-129.26786 75.22336-121.18825ZM60.59412-121.18825" fill="#7f807f" fill-opacity=".5"/>
<path transform="matrix(.3,0,0,-.3,171.8389,37.879709)" d="M75.22336-121.18825C75.22336-113.10864 68.67372-106.559 60.59412-106.559 52.51451-106.559 45.96487-113.10864 45.96487-121.18825 45.96487-129.26786 52.51451-135.81749 60.59412-135.81749 68.67372-135.81749 75.22336-129.26786 75.22336-121.18825ZM60.59412-121.18825" fill="#ffffff"/>
<path transform="matrix(.3,0,0,-.3,171.8389,37.879709)" stroke-width="2.98883" stroke-linecap="butt" stroke-miterlimit="10" stroke-linejoin="miter" fill="none" stroke="#000000" d="M75.22336-121.18825C75.22336-113.10864 68.67372-106.559 60.59412-106.559 52.51451-106.559 45.96487-113.10864 45.96487-121.18825 45.96487-129.26786 52.51451-135.81749 60.59412-135.81749 68.67372-135.81749 75.22336-129.26786 75.22336-121.18825ZM60.59412-121.18825"/>
<path transform="matrix(.3,0,0,-.3,172.73555,38.776357)" d="M135.81749-121.18825C135.81749-113.10864 129.26786-106.559 121.18825-106.559 113.10864-106.559 106.559-113.10864 106.559-121.18825 106.559-129.26786 113.10864-135.81749 121.18825-135.81749 129.26786-135.81749 135.81749-129.26786 135.81749-121.18825ZM121.18825-121.18825" fill="#7f807f" fill-opacity=".5"/>
<path transform="matrix(.3,0,0,-.3,171.8389,37.879709)" d="M135.81749-121.18825C135.81749-113.10864 129.26786-106.559 121.18825-106.559 113.10864-106.559 106.559-113.10864 106.559-121.18825 106.559-129.26786 113.10864-135.81749 121.18825-135.81749 129.26786-135.81749 135.81749-129.26786 135.81749-121.18825ZM121.18825-121.18825" fill="#ffffff"/>
<path transform="matrix(.3,0,0,-.3,171.8389,37.879709)" stroke-width="2.98883" stroke-linecap="butt" stroke-miterlimit="10" stroke-linejoin="miter" fill="none" stroke="#000000" d="M135.81749-121.18825C135.81749-113.10864 129.26786-106.559 121.18825-106.559 113.10864-106.559 106.559-113.10864 106.559-121.18825 106.559-129.26786 113.10864-135.81749 121.18825-135.81749 129.26786-135.81749 135.81749-129.26786 135.81749-121.18825ZM121.18825-121.18825"/>
<path transform="matrix(.3,0,0,-.3,171.8389,37.879709)" stroke-width=".3985" stroke-linecap="butt" stroke-miterlimit="10" stroke-linejoin="miter" fill="none" stroke="#000000" stroke-opacity="0" d="M344.78813 0C344.78813 33.71658 317.4562 61.04851 283.73963 61.04851 250.02303 61.04851 222.6911 33.71658 222.6911 0 222.6911-33.71658 250.02303-61.04851 283.73963-61.04851 317.4562-61.04851 344.78813-33.71658 344.78813 0ZM283.73963 0"/>
<text xml:space="preserve" transform="matrix(.51000007 0 -0 .51000007 114.35731 148.71501)" font-size="24.7871" font-family="SFRM2488"><tspan y="-211.2" x="250.689 268.31263 280.87968 293.44673 299.71788">Qubit</tspan></text>
<path transform="matrix(.3,0,0,-.3,171.8389,37.879709)" stroke-width="2.98883" stroke-linecap="butt" stroke-miterlimit="10" stroke-linejoin="miter" fill="none" stroke="#000000" d="M16.12366 0H44.47046"/>
<path transform="matrix(.3,0,0,-.3,171.8389,37.879709)" stroke-width="2.98883" stroke-linecap="butt" stroke-miterlimit="10" stroke-linejoin="miter" fill="none" stroke="#000000" d="M76.71777 0H105.06459"/>
<path transform="matrix(.3,0,0,-.3,171.8389,37.879709)" stroke-width="2.98883" stroke-linecap="butt" stroke-miterlimit="10" stroke-linejoin="miter" fill="none" stroke="#000000" d="M16.12366-60.59412H44.47046"/>
<path transform="matrix(.3,0,0,-.3,171.8389,37.879709)" stroke-width="2.98883" stroke-linecap="butt" stroke-miterlimit="10" stroke-linejoin="miter" fill="none" stroke="#000000" d="M76.71777-60.59412H105.06459"/>
<path transform="matrix(.3,0,0,-.3,171.8389,37.879709)" stroke-width="2.98883" stroke-linecap="butt" stroke-miterlimit="10" stroke-linejoin="miter" fill="none" stroke="#000000" d="M16.12366-121.18825H44.47046"/>
<path transform="matrix(.3,0,0,-.3,171.8389,37.879709)" stroke-width="2.98883" stroke-linecap="butt" stroke-miterlimit="10" stroke-linejoin="miter" fill="none" stroke="#000000" d="M76.71777-121.18825H105.06459"/>
<path transform="matrix(.3,0,0,-.3,171.8389,37.879709)" stroke-width="2.98883" stroke-linecap="butt" stroke-miterlimit="10" stroke-linejoin="miter" fill="none" stroke="#000000" d="M0-16.12366V-44.47046"/>
<path transform="matrix(.3,0,0,-.3,171.8389,37.879709)" stroke-width="2.98883" stroke-linecap="butt" stroke-miterlimit="10" stroke-linejoin="miter" fill="none" stroke="#000000" d="M0-76.71777V-105.06459"/>
<path transform="matrix(.3,0,0,-.3,171.8389,37.879709)" stroke-width="2.98883" stroke-linecap="butt" stroke-miterlimit="10" stroke-linejoin="miter" fill="none" stroke="#000000" d="M60.59412-16.12366V-44.47046"/>
<path transform="matrix(.3,0,0,-.3,171.8389,37.879709)" stroke-width="2.98883" stroke-linecap="butt" stroke-miterlimit="10" stroke-linejoin="miter" fill="none" stroke="#000000" d="M60.59412-76.71777V-105.06459"/>
<path transform="matrix(.3,0,0,-.3,171.8389,37.879709)" stroke-width="2.98883" stroke-linecap="butt" stroke-miterlimit="10" stroke-linejoin="miter" fill="none" stroke="#000000" d="M121.18825-16.12366V-44.47046"/>
<path transform="matrix(.3,0,0,-.3,171.8389,37.879709)" stroke-width="2.98883" stroke-linecap="butt" stroke-miterlimit="10" stroke-linejoin="miter" fill="none" stroke="#000000" d="M121.18825-76.71777V-105.06459"/>
<path transform="matrix(.3,0,0,-.3,171.8389,37.879709)" stroke-width="2.98883" stroke-linecap="butt" stroke-miterlimit="10" stroke-linejoin="miter" fill="none" stroke="#000000" d="M222.35237 0H144.37053"/>
<path transform="matrix(-.3,-0,0,.3,215.15006,37.879709)" stroke-width="2.39107" stroke-linecap="round" stroke-linejoin="round" fill="none" stroke="#000000" d="M-3.52684 4.70245C-3.23293 2.93903 0 .2939 .8817 0 0-.2939-3.23293-2.93903-3.52684-4.70245"/>
<path transform="matrix(.3,0,0,-.3,171.8389,37.879709)" stroke-width=".3985" stroke-linecap="butt" stroke-miterlimit="10" stroke-linejoin="miter" fill="none" stroke="#000000" d="M121.18825-76.71777V-105.06459"/>
<path transform="matrix(.3,0,0,-.3,171.8389,37.879709)" stroke-width=".3985" stroke-linecap="butt" stroke-miterlimit="10" stroke-linejoin="miter" fill="none" stroke="#000000" stroke-opacity="0" d="M419.12013-90.89117C419.12013-18.80428 360.6838 39.63202 288.59693 39.63202 216.51003 39.63202 158.0737-18.80428 158.0737-90.89117 158.0737-162.97808 216.51003-221.41439 288.59693-221.41439 360.6838-221.41439 419.12013-162.97808 419.12013-90.89117ZM288.59693-90.89117"/>
<text xml:space="preserve" transform="matrix(.51000007 0 -0 .51000007 128.60034 129.62812)" font-size="24.7871" font-family="SFRM2488"><tspan y="-120.31" x="182.865 200.48863 213.0557 225.62276 231.89389 248.22859 264.58808 275.91578 288.48283 301.04988 307.321 317.38459">QubitCoupler</tspan></text>
<path transform="matrix(.3,0,0,-.3,171.8389,37.879709)" stroke-width="2.98883" stroke-linecap="butt" stroke-miterlimit="10" stroke-linejoin="miter" fill="none" stroke="#000000" d="M157.73497-90.89117H131.46541"/>
<path transform="matrix(-.3,-0,0,.3,211.27852,65.14706)" stroke-width="2.39107" stroke-linecap="round" stroke-linejoin="round" fill="none" stroke="#000000" d="M-3.52684 4.70245C-3.23293 2.93903 0 .2939 .8817 0 0-.2939-3.23293-2.93903-3.52684-4.70245"/>
</g>
<path transform="matrix(1,0,0,-1,76.197,182.647)" d="M221.40999 177.16985H88.93945C86.73851 177.16985 84.95435 175.38567 84.95435 173.18474V165.10306C84.95435 162.90212 86.73851 161.11795 88.93945 161.11795H221.40999C223.61093 161.11795 225.3951 162.90212 225.3951 165.10306V173.18474C225.3951 175.38567 223.61093 177.16985 221.40999 177.16985ZM84.95435 161.11795" fill="#7f807f"/>
<path transform="matrix(1,0,0,-1,76.197,182.647)" stroke-width=".99628" stroke-linecap="butt" stroke-miterlimit="10" stroke-linejoin="miter" fill="none" stroke="#000000" d="M221.40999 177.16985H88.93945C86.73851 177.16985 84.95435 175.38567 84.95435 173.18474V165.10306C84.95435 162.90212 86.73851 161.11795 88.93945 161.11795H221.40999C223.61093 161.11795 225.3951 162.90212 225.3951 165.10306V173.18474C225.3951 175.38567 223.61093 177.16985 221.40999 177.16985ZM84.95435 161.11795"/>
<text fill="#ffffff" xml:space="preserve" transform="matrix(1 0 -0 1 0 253.884)" font-size="11.9552" font-family="SFBX1200" font-weight="bold"><tspan y="-236.253" x="202.613 213.12163 219.66112 225.14856 232.62056 241.95758 248.49707 253.98451">Hardware</tspan></text>
<path transform="matrix(1,0,0,-1,80.1821,186.63211)" d="M531.75949 176.63179H399.2889C397.08799 176.63179 395.3038 174.84763 395.3038 172.64669V98.69313C395.3038 96.49219 397.08799 94.70802 399.2889 94.70802H531.75949C533.9604 94.70802 535.74459 96.49219 535.74459 98.69313V172.64669C535.74459 174.84763 533.9604 176.63179 531.75949 176.63179ZM395.3038 94.70802" fill="#7f807f" fill-opacity=".5"/>
<path transform="matrix(1,0,0,-1,76.197,182.647)" d="M531.75949 176.63179H399.2889C397.08799 176.63179 395.3038 174.84763 395.3038 172.64669V98.69313C395.3038 96.49219 397.08799 94.70802 399.2889 94.70802H531.75949C533.9604 94.70802 535.74459 96.49219 535.74459 98.69313V172.64669C535.74459 174.84763 533.9604 176.63179 531.75949 176.63179ZM395.3038 94.70802" fill="#f6f6f6"/>
<path transform="matrix(1,0,0,-1,76.197,182.647)" stroke-width="1.99255" stroke-linecap="butt" stroke-miterlimit="10" stroke-linejoin="miter" fill="none" stroke="#000000" d="M531.75949 176.63179H399.2889C397.08799 176.63179 395.3038 174.84763 395.3038 172.64669V98.69313C395.3038 96.49219 397.08799 94.70802 399.2889 94.70802H531.75949C533.9604 94.70802 535.74459 96.49219 535.74459 98.69313V172.64669C535.74459 174.84763 533.9604 176.63179 531.75949 176.63179ZM395.3038 94.70802"/>
<text xml:space="preserve" transform="matrix(1 0 -0 1 0 253.884)" font-size="11.9552" font-family="SFBX1200" font-weight="bold"><tspan y="-218.388" x="483.698 488.7072 495.8086 502.53938 508.6724 514.1479 519.46798 529.49838 538.3213 549.1527 556.9953 563.1283 570.6003 578.07229 581.8023 589.2743 595.9931">InverseEmbedding:</tspan></text>
<text xml:space="preserve" transform="matrix(1 0 -0 1 0 253.884)" font-size="11.9552" font-family="SFRM1200"><tspan y="-203.942" x="494.027 504.75083 510.6089 521.0099 526.8679 533.3715 537.92648 541.1783 550.9337 556.79177 563.95297 568.5676 575.0712 578.32308 584.82669">Mapoptimalspins</tspan><tspan y="-189.496" x="501.10203 505.65696">to</tspan></text>
<text xml:space="preserve" transform="matrix(1 0 -0 1 0 253.884)" font-size="11.9552" font-family="CMMI12" font-style="italic"><tspan y="-189.496" x="515.211 515.41427">&#x20d7;x</tspan></text>
<text xml:space="preserve" transform="matrix(1 0 -0 1 0 253.884)" font-size="11.9552" font-family="SFRM1200"><tspan y="-189.496" x="525.958 531.81607 536.4307 541.0454 544.29727 550.1553 556.6589 566.4143 571.6148 577.7956">assignment</tspan></text>
<path transform="matrix(1,0,0,-1,76.197,182.647)" d="M531.75949 177.16985H399.2889C397.08799 177.16985 395.3038 175.38567 395.3038 173.18474V165.10306C395.3038 162.90212 397.08799 161.11795 399.2889 161.11795H531.75949C533.9604 161.11795 535.74459 162.90212 535.74459 165.10306V173.18474C535.74459 175.38567 533.9604 177.16985 531.75949 177.16985ZM395.3038 161.11795" fill="#7f807f"/>
<path transform="matrix(1,0,0,-1,76.197,182.647)" stroke-width=".99628" stroke-linecap="butt" stroke-miterlimit="10" stroke-linejoin="miter" fill="none" stroke="#000000" d="M531.75949 177.16985H399.2889C397.08799 177.16985 395.3038 175.38567 395.3038 173.18474V165.10306C395.3038 162.90212 397.08799 161.11795 399.2889 161.11795H531.75949C533.9604 161.11795 535.74459 162.90212 535.74459 165.10306V173.18474C535.74459 175.38567 533.9604 177.16985 531.75949 177.16985ZM395.3038 161.11795"/>
<text fill="#ffffff" xml:space="preserve" transform="matrix(1 0 -0 1 0 253.884)" font-size="11.9552" font-family="SFBX1200" font-weight="bold"><tspan y="-236.253" x="517.437 524.909 531.6278 535.35787 542.82986 548.05429 551.7843 558.5031">Solution</tspan></text>
<path transform="matrix(1,0,0,-1,76.197,182.647)" stroke-width="4.98138" stroke-linecap="butt" stroke-miterlimit="10" stroke-linejoin="miter" fill="none" stroke="#000000" d="M63.41396 0H82.89383"/>
<path transform="matrix(1,0,0,-1,159.09082,182.647)" d="M8.86693 0-5.32016 7.09354 0 0-5.32016-7.09354"/>
<path transform="matrix(1,0,0,-1,76.197,182.647)" stroke-width="4.98138" stroke-linecap="butt" stroke-miterlimit="10" stroke-linejoin="miter" fill="none" stroke="#000000" d="M218.58869 0H238.06856"/>
<path transform="matrix(1,0,0,-1,314.26557,182.647)" d="M8.86693 0-5.32016 7.09354 0 0-5.32016-7.09354"/>
<path transform="matrix(1,0,0,-1,76.197,182.647)" stroke-width="4.98138" stroke-linecap="butt" stroke-miterlimit="10" stroke-linejoin="miter" fill="none" stroke="#000000" d="M373.7634 0H393.2433"/>
<path transform="matrix(1,0,0,-1,469.44029,182.647)" d="M8.86693 0-5.32016 7.09354 0 0-5.32016-7.09354"/>
<path transform="matrix(1,0,0,-1,76.197,182.647)" stroke-width="4.98138" stroke-linecap="butt" stroke-miterlimit="10" stroke-linejoin="miter" fill="none" stroke="#000000" d="M0 93.71175V74.23187"/>
<path transform="matrix(0,1,1,0,76.197,108.41513)" d="M8.86693 0-5.32016 7.09354 0 0-5.32016-7.09354"/>
<path transform="matrix(1,0,0,-1,76.197,182.647)" stroke-width="4.98138" stroke-linecap="butt" stroke-miterlimit="10" stroke-linejoin="miter" fill="none" stroke="#000000" d="M155.17472 93.71175V74.23187"/>
<path transform="matrix(0,1,1,0,231.3717,108.41513)" d="M8.86693 0-5.32016 7.09354 0 0-5.32016-7.09354"/>
<path transform="matrix(1,0,0,-1,76.197,182.647)" stroke-width="4.98138" stroke-linecap="butt" stroke-miterlimit="10" stroke-linejoin="miter" fill="none" stroke="#000000" d="M465.52418 65.36494V84.84482"/>
<path transform="matrix(0,-1,-1,-0,541.7212,97.802188)" d="M8.86693 0-5.32016 7.09354 0 0-5.32016-7.09354"/>
</svg>
