<svg xmlns="http://www.w3.org/2000/svg" xmlns:xlink="http://www.w3.org/1999/xlink" xmlns:inkscape="http://www.inkscape.org/namespaces/inkscape" version="1.1" width="240" height="480" viewBox="0 0 240 480">
<path transform="matrix(.1,0,0,-.1,0,480)" stroke-width="20" stroke-linecap="butt" stroke-miterlimit="10" stroke-linejoin="miter" fill="none" stroke="#000000" d="M300 4200V4500"/>
<path transform="matrix(.1,0,0,-.1,0,480)" stroke-width="20" stroke-linecap="butt" stroke-miterlimit="10" stroke-linejoin="miter" fill="none" stroke="#000000" d="M300 3600V3900M600 3900V4200"/>
<path transform="matrix(.1,0,0,-.1,0,480)" stroke-width="20" stroke-linecap="butt" stroke-miterlimit="10" stroke-linejoin="miter" fill="none" stroke="#000000" d="M300 3000V3300M600 3300V3600M900 3600V3900"/>
<path transform="matrix(.1,0,0,-.1,0,480)" stroke-width="20" stroke-linecap="butt" stroke-miterlimit="10" stroke-linejoin="miter" fill="none" stroke="#000000" d="M300 2400V2700M600 2700V3000M900 3000V3300M1200 3300V3600"/>
<path transform="matrix(.1,0,0,-.1,0,480)" stroke-width="20" stroke-linecap="butt" stroke-miterlimit="10" stroke-linejoin="miter" fill="none" stroke="#000000" d="M300 1800V2100M600 2100V2400M900 2400V2700M1200 2700V3000M1500 3000V3300"/>
<path transform="matrix(.1,0,0,-.1,0,480)" stroke-width="20" stroke-linecap="butt" stroke-miterlimit="10" stroke-linejoin="miter" fill="none" stroke="#000000" d="M300 1200V1500M600 1500V1800M900 1800V2100M1200 2100V2400M1500 2400V2700M1800 2700V3000"/>
<path transform="matrix(.1,0,0,-.1,0,480)" stroke-width="20" stroke-linecap="butt" stroke-miterlimit="10" stroke-linejoin="miter" fill="none" stroke="#000000" d="M300 600V900M600 900V1200M900 1200V1500M1200 1500V1800M1500 1800V2100M1800 2100V2400M2100 2400V2700"/>
<path transform="matrix(.1,0,0,-.1,0,480)" stroke-width="30" stroke-linecap="butt" stroke-miterlimit="10" stroke-linejoin="miter" fill="none" stroke="#ff9f00" d="M300 4500 600 4200M600 4200 900 3900M900 3900 1200 3600M1200 3600 1500 3300M1500 3300 1800 3000M1800 3000 2100 2700"/>
<path transform="matrix(.1,0,0,-.1,0,480)" d="M360 4500C360 4533.14 333.137 4560 300 4560 266.863 4560 240 4533.14 240 4500 240 4466.86 266.863 4440 300 4440 333.137 4440 360 4466.86 360 4500" fill="#ff9f00"/>
<path transform="matrix(.1,0,0,-.1,0,480)" stroke-width="10" stroke-linecap="butt" stroke-miterlimit="10" stroke-linejoin="miter" fill="none" stroke="#000000" d="M360 4500C360 4533.14 333.137 4560 300 4560 266.863 4560 240 4533.14 240 4500 240 4466.86 266.863 4440 300 4440 333.137 4440 360 4466.86 360 4500"/>
<text xml:space="preserve" transform="matrix(1 0 -0 1 0 480)" font-size="9" font-family="Times"><tspan y="-447" x="27.75">1</tspan></text>
<path transform="matrix(.1,0,0,-.1,0,480)" d="M660 4200C660 4233.14 633.137 4260 600 4260 566.863 4260 540 4233.14 540 4200 540 4166.86 566.863 4140 600 4140 633.137 4140 660 4166.86 660 4200" fill="#ff9f00"/>
<path transform="matrix(.1,0,0,-.1,0,480)" stroke-width="10" stroke-linecap="butt" stroke-miterlimit="10" stroke-linejoin="miter" fill="none" stroke="#000000" d="M660 4200C660 4233.14 633.137 4260 600 4260 566.863 4260 540 4233.14 540 4200 540 4166.86 566.863 4140 600 4140 633.137 4140 660 4166.86 660 4200"/>
<text xml:space="preserve" transform="matrix(1 0 -0 1 0 480)" font-size="9" font-family="Times"><tspan y="-417" x="57.75">1</tspan></text>
<path transform="matrix(.1,0,0,-.1,0,480)" d="M960 3900C960 3933.14 933.137 3960 900 3960 866.863 3960 840 3933.14 840 3900 840 3866.86 866.863 3840 900 3840 933.137 3840 960 3866.86 960 3900" fill="#ff9f00"/>
<path transform="matrix(.1,0,0,-.1,0,480)" stroke-width="10" stroke-linecap="butt" stroke-miterlimit="10" stroke-linejoin="miter" fill="none" stroke="#000000" d="M960 3900C960 3933.14 933.137 3960 900 3960 866.863 3960 840 3933.14 840 3900 840 3866.86 866.863 3840 900 3840 933.137 3840 960 3866.86 960 3900"/>
<text xml:space="preserve" transform="matrix(1 0 -0 1 0 480)" font-size="9" font-family="Times"><tspan y="-387" x="87.75">1</tspan></text>
<path transform="matrix(.1,0,0,-.1,0,480)" d="M1260 3600C1260 3633.14 1233.14 3660 1200 3660 1166.86 3660 1140 3633.14 1140 3600 1140 3566.86 1166.86 3540 1200 3540 1233.14 3540 1260 3566.86 1260 3600" fill="#ff9f00"/>
<path transform="matrix(.1,0,0,-.1,0,480)" stroke-width="10" stroke-linecap="butt" stroke-miterlimit="10" stroke-linejoin="miter" fill="none" stroke="#000000" d="M1260 3600C1260 3633.14 1233.14 3660 1200 3660 1166.86 3660 1140 3633.14 1140 3600 1140 3566.86 1166.86 3540 1200 3540 1233.14 3540 1260 3566.86 1260 3600"/>
<text xml:space="preserve" transform="matrix(1 0 -0 1 0 480)" font-size="9" font-family="Times"><tspan y="-357" x="117.75">1</tspan></text>
<path transform="matrix(.1,0,0,-.1,0,480)" d="M1560 3300C1560 3333.14 1533.14 3360 1500 3360 1466.86 3360 1440 3333.14 1440 3300 1440 3266.86 1466.86 3240 1500 3240 1533.14 3240 1560 3266.86 1560 3300" fill="#ff9f00"/>
<path transform="matrix(.1,0,0,-.1,0,480)" stroke-width="10" stroke-linecap="butt" stroke-miterlimit="10" stroke-linejoin="miter" fill="none" stroke="#000000" d="M1560 3300C1560 3333.14 1533.14 3360 1500 3360 1466.86 3360 1440 3333.14 1440 3300 1440 3266.86 1466.86 3240 1500 3240 1533.14 3240 1560 3266.86 1560 3300"/>
<text xml:space="preserve" transform="matrix(1 0 -0 1 0 480)" font-size="9" font-family="Times"><tspan y="-327" x="147.75">1</tspan></text>
<path transform="matrix(.1,0,0,-.1,0,480)" d="M1860 3000C1860 3033.14 1833.14 3060 1800 3060 1766.86 3060 1740 3033.14 1740 3000 1740 2966.86 1766.86 2940 1800 2940 1833.14 2940 1860 2966.86 1860 3000" fill="#ff9f00"/>
<path transform="matrix(.1,0,0,-.1,0,480)" stroke-width="10" stroke-linecap="butt" stroke-miterlimit="10" stroke-linejoin="miter" fill="none" stroke="#000000" d="M1860 3000C1860 3033.14 1833.14 3060 1800 3060 1766.86 3060 1740 3033.14 1740 3000 1740 2966.86 1766.86 2940 1800 2940 1833.14 2940 1860 2966.86 1860 3000"/>
<text xml:space="preserve" transform="matrix(1 0 -0 1 0 480)" font-size="9" font-family="Times"><tspan y="-297" x="177.75">1</tspan></text>
<path transform="matrix(.1,0,0,-.1,0,480)" d="M2160 2700C2160 2733.14 2133.14 2760 2100 2760 2066.86 2760 2040 2733.14 2040 2700 2040 2666.86 2066.86 2640 2100 2640 2133.14 2640 2160 2666.86 2160 2700" fill="#ff9f00"/>
<path transform="matrix(.1,0,0,-.1,0,480)" stroke-width="10" stroke-linecap="butt" stroke-miterlimit="10" stroke-linejoin="miter" fill="none" stroke="#000000" d="M2160 2700C2160 2733.14 2133.14 2760 2100 2760 2066.86 2760 2040 2733.14 2040 2700 2040 2666.86 2066.86 2640 2100 2640 2133.14 2640 2160 2666.86 2160 2700"/>
<text xml:space="preserve" transform="matrix(1 0 -0 1 0 480)" font-size="9" font-family="Times"><tspan y="-267" x="207.75">1</tspan></text>
<path transform="matrix(.1,0,0,-.1,0,480)" stroke-width="30" stroke-linecap="butt" stroke-miterlimit="10" stroke-linejoin="miter" fill="none" stroke="#bfff00" d="M300 3900V4200M300 3900 600 3600M600 3600 900 3300M900 3300 1200 3000M1200 3000 1500 2700M1500 2700 1800 2400"/>
<path transform="matrix(.1,0,0,-.1,0,480)" d="M360 4200C360 4233.14 333.137 4260 300 4260 266.863 4260 240 4233.14 240 4200 240 4166.86 266.863 4140 300 4140 333.137 4140 360 4166.86 360 4200" fill="#bfff00"/>
<path transform="matrix(.1,0,0,-.1,0,480)" stroke-width="10" stroke-linecap="butt" stroke-miterlimit="10" stroke-linejoin="miter" fill="none" stroke="#000000" d="M360 4200C360 4233.14 333.137 4260 300 4260 266.863 4260 240 4233.14 240 4200 240 4166.86 266.863 4140 300 4140 333.137 4140 360 4166.86 360 4200"/>
<text xml:space="preserve" transform="matrix(1 0 -0 1 0 480)" font-size="9" font-family="Times"><tspan y="-417" x="27.75">2</tspan></text>
<path transform="matrix(.1,0,0,-.1,0,480)" d="M360 3900C360 3933.14 333.137 3960 300 3960 266.863 3960 240 3933.14 240 3900 240 3866.86 266.863 3840 300 3840 333.137 3840 360 3866.86 360 3900" fill="#bfff00"/>
<path transform="matrix(.1,0,0,-.1,0,480)" stroke-width="10" stroke-linecap="butt" stroke-miterlimit="10" stroke-linejoin="miter" fill="none" stroke="#000000" d="M360 3900C360 3933.14 333.137 3960 300 3960 266.863 3960 240 3933.14 240 3900 240 3866.86 266.863 3840 300 3840 333.137 3840 360 3866.86 360 3900"/>
<text xml:space="preserve" transform="matrix(1 0 -0 1 0 480)" font-size="9" font-family="Times"><tspan y="-387" x="27.75">2</tspan></text>
<path transform="matrix(.1,0,0,-.1,0,480)" d="M660 3600C660 3633.14 633.137 3660 600 3660 566.863 3660 540 3633.14 540 3600 540 3566.86 566.863 3540 600 3540 633.137 3540 660 3566.86 660 3600" fill="#bfff00"/>
<path transform="matrix(.1,0,0,-.1,0,480)" stroke-width="10" stroke-linecap="butt" stroke-miterlimit="10" stroke-linejoin="miter" fill="none" stroke="#000000" d="M660 3600C660 3633.14 633.137 3660 600 3660 566.863 3660 540 3633.14 540 3600 540 3566.86 566.863 3540 600 3540 633.137 3540 660 3566.86 660 3600"/>
<text xml:space="preserve" transform="matrix(1 0 -0 1 0 480)" font-size="9" font-family="Times"><tspan y="-357" x="57.75">2</tspan></text>
<path transform="matrix(.1,0,0,-.1,0,480)" d="M960 3300C960 3333.14 933.137 3360 900 3360 866.863 3360 840 3333.14 840 3300 840 3266.86 866.863 3240 900 3240 933.137 3240 960 3266.86 960 3300" fill="#bfff00"/>
<path transform="matrix(.1,0,0,-.1,0,480)" stroke-width="10" stroke-linecap="butt" stroke-miterlimit="10" stroke-linejoin="miter" fill="none" stroke="#000000" d="M960 3300C960 3333.14 933.137 3360 900 3360 866.863 3360 840 3333.14 840 3300 840 3266.86 866.863 3240 900 3240 933.137 3240 960 3266.86 960 3300"/>
<text xml:space="preserve" transform="matrix(1 0 -0 1 0 480)" font-size="9" font-family="Times"><tspan y="-327" x="87.75">2</tspan></text>
<path transform="matrix(.1,0,0,-.1,0,480)" d="M1260 3000C1260 3033.14 1233.14 3060 1200 3060 1166.86 3060 1140 3033.14 1140 3000 1140 2966.86 1166.86 2940 1200 2940 1233.14 2940 1260 2966.86 1260 3000" fill="#bfff00"/>
<path transform="matrix(.1,0,0,-.1,0,480)" stroke-width="10" stroke-linecap="butt" stroke-miterlimit="10" stroke-linejoin="miter" fill="none" stroke="#000000" d="M1260 3000C1260 3033.14 1233.14 3060 1200 3060 1166.86 3060 1140 3033.14 1140 3000 1140 2966.86 1166.86 2940 1200 2940 1233.14 2940 1260 2966.86 1260 3000"/>
<text xml:space="preserve" transform="matrix(1 0 -0 1 0 480)" font-size="9" font-family="Times"><tspan y="-297" x="117.75">2</tspan></text>
<path transform="matrix(.1,0,0,-.1,0,480)" d="M1560 2700C1560 2733.14 1533.14 2760 1500 2760 1466.86 2760 1440 2733.14 1440 2700 1440 2666.86 1466.86 2640 1500 2640 1533.14 2640 1560 2666.86 1560 2700" fill="#bfff00"/>
<path transform="matrix(.1,0,0,-.1,0,480)" stroke-width="10" stroke-linecap="butt" stroke-miterlimit="10" stroke-linejoin="miter" fill="none" stroke="#000000" d="M1560 2700C1560 2733.14 1533.14 2760 1500 2760 1466.86 2760 1440 2733.14 1440 2700 1440 2666.86 1466.86 2640 1500 2640 1533.14 2640 1560 2666.86 1560 2700"/>
<text xml:space="preserve" transform="matrix(1 0 -0 1 0 480)" font-size="9" font-family="Times"><tspan y="-267" x="147.75">2</tspan></text>
<path transform="matrix(.1,0,0,-.1,0,480)" d="M1860 2400C1860 2433.14 1833.14 2460 1800 2460 1766.86 2460 1740 2433.14 1740 2400 1740 2366.86 1766.86 2340 1800 2340 1833.14 2340 1860 2366.86 1860 2400" fill="#bfff00"/>
<path transform="matrix(.1,0,0,-.1,0,480)" stroke-width="10" stroke-linecap="butt" stroke-miterlimit="10" stroke-linejoin="miter" fill="none" stroke="#000000" d="M1860 2400C1860 2433.14 1833.14 2460 1800 2460 1766.86 2460 1740 2433.14 1740 2400 1740 2366.86 1766.86 2340 1800 2340 1833.14 2340 1860 2366.86 1860 2400"/>
<text xml:space="preserve" transform="matrix(1 0 -0 1 0 480)" font-size="9" font-family="Times"><tspan y="-237" x="177.75">2</tspan></text>
<path transform="matrix(.1,0,0,-.1,0,480)" stroke-width="30" stroke-linecap="butt" stroke-miterlimit="10" stroke-linejoin="miter" fill="none" stroke="#20ff00" d="M300 3600 600 3900M300 3300V3600M300 3300 600 3000M600 3000 900 2700M900 2700 1200 2400M1200 2400 1500 2100"/>
<path transform="matrix(.1,0,0,-.1,0,480)" d="M360 3600C360 3633.14 333.137 3660 300 3660 266.863 3660 240 3633.14 240 3600 240 3566.86 266.863 3540 300 3540 333.137 3540 360 3566.86 360 3600" fill="#20ff00"/>
<path transform="matrix(.1,0,0,-.1,0,480)" stroke-width="10" stroke-linecap="butt" stroke-miterlimit="10" stroke-linejoin="miter" fill="none" stroke="#000000" d="M360 3600C360 3633.14 333.137 3660 300 3660 266.863 3660 240 3633.14 240 3600 240 3566.86 266.863 3540 300 3540 333.137 3540 360 3566.86 360 3600"/>
<text xml:space="preserve" transform="matrix(1 0 -0 1 0 480)" font-size="9" font-family="Times"><tspan y="-357" x="27.75">3</tspan></text>
<path transform="matrix(.1,0,0,-.1,0,480)" d="M660 3900C660 3933.14 633.137 3960 600 3960 566.863 3960 540 3933.14 540 3900 540 3866.86 566.863 3840 600 3840 633.137 3840 660 3866.86 660 3900" fill="#20ff00"/>
<path transform="matrix(.1,0,0,-.1,0,480)" stroke-width="10" stroke-linecap="butt" stroke-miterlimit="10" stroke-linejoin="miter" fill="none" stroke="#000000" d="M660 3900C660 3933.14 633.137 3960 600 3960 566.863 3960 540 3933.14 540 3900 540 3866.86 566.863 3840 600 3840 633.137 3840 660 3866.86 660 3900"/>
<text xml:space="preserve" transform="matrix(1 0 -0 1 0 480)" font-size="9" font-family="Times"><tspan y="-387" x="57.75">3</tspan></text>
<path transform="matrix(.1,0,0,-.1,0,480)" d="M360 3300C360 3333.14 333.137 3360 300 3360 266.863 3360 240 3333.14 240 3300 240 3266.86 266.863 3240 300 3240 333.137 3240 360 3266.86 360 3300" fill="#20ff00"/>
<path transform="matrix(.1,0,0,-.1,0,480)" stroke-width="10" stroke-linecap="butt" stroke-miterlimit="10" stroke-linejoin="miter" fill="none" stroke="#000000" d="M360 3300C360 3333.14 333.137 3360 300 3360 266.863 3360 240 3333.14 240 3300 240 3266.86 266.863 3240 300 3240 333.137 3240 360 3266.86 360 3300"/>
<text xml:space="preserve" transform="matrix(1 0 -0 1 0 480)" font-size="9" font-family="Times"><tspan y="-327" x="27.75">3</tspan></text>
<path transform="matrix(.1,0,0,-.1,0,480)" d="M660 3000C660 3033.14 633.137 3060 600 3060 566.863 3060 540 3033.14 540 3000 540 2966.86 566.863 2940 600 2940 633.137 2940 660 2966.86 660 3000" fill="#20ff00"/>
<path transform="matrix(.1,0,0,-.1,0,480)" stroke-width="10" stroke-linecap="butt" stroke-miterlimit="10" stroke-linejoin="miter" fill="none" stroke="#000000" d="M660 3000C660 3033.14 633.137 3060 600 3060 566.863 3060 540 3033.14 540 3000 540 2966.86 566.863 2940 600 2940 633.137 2940 660 2966.86 660 3000"/>
<text xml:space="preserve" transform="matrix(1 0 -0 1 0 480)" font-size="9" font-family="Times"><tspan y="-297" x="57.75">3</tspan></text>
<path transform="matrix(.1,0,0,-.1,0,480)" d="M960 2700C960 2733.14 933.137 2760 900 2760 866.863 2760 840 2733.14 840 2700 840 2666.86 866.863 2640 900 2640 933.137 2640 960 2666.86 960 2700" fill="#20ff00"/>
<path transform="matrix(.1,0,0,-.1,0,480)" stroke-width="10" stroke-linecap="butt" stroke-miterlimit="10" stroke-linejoin="miter" fill="none" stroke="#000000" d="M960 2700C960 2733.14 933.137 2760 900 2760 866.863 2760 840 2733.14 840 2700 840 2666.86 866.863 2640 900 2640 933.137 2640 960 2666.86 960 2700"/>
<text xml:space="preserve" transform="matrix(1 0 -0 1 0 480)" font-size="9" font-family="Times"><tspan y="-267" x="87.75">3</tspan></text>
<path transform="matrix(.1,0,0,-.1,0,480)" d="M1260 2400C1260 2433.14 1233.14 2460 1200 2460 1166.86 2460 1140 2433.14 1140 2400 1140 2366.86 1166.86 2340 1200 2340 1233.14 2340 1260 2366.86 1260 2400" fill="#20ff00"/>
<path transform="matrix(.1,0,0,-.1,0,480)" stroke-width="10" stroke-linecap="butt" stroke-miterlimit="10" stroke-linejoin="miter" fill="none" stroke="#000000" d="M1260 2400C1260 2433.14 1233.14 2460 1200 2460 1166.86 2460 1140 2433.14 1140 2400 1140 2366.86 1166.86 2340 1200 2340 1233.14 2340 1260 2366.86 1260 2400"/>
<text xml:space="preserve" transform="matrix(1 0 -0 1 0 480)" font-size="9" font-family="Times"><tspan y="-237" x="117.75">3</tspan></text>
<path transform="matrix(.1,0,0,-.1,0,480)" d="M1560 2100C1560 2133.14 1533.14 2160 1500 2160 1466.86 2160 1440 2133.14 1440 2100 1440 2066.86 1466.86 2040 1500 2040 1533.14 2040 1560 2066.86 1560 2100" fill="#20ff00"/>
<path transform="matrix(.1,0,0,-.1,0,480)" stroke-width="10" stroke-linecap="butt" stroke-miterlimit="10" stroke-linejoin="miter" fill="none" stroke="#000000" d="M1560 2100C1560 2133.14 1533.14 2160 1500 2160 1466.86 2160 1440 2133.14 1440 2100 1440 2066.86 1466.86 2040 1500 2040 1533.14 2040 1560 2066.86 1560 2100"/>
<text xml:space="preserve" transform="matrix(1 0 -0 1 0 480)" font-size="9" font-family="Times"><tspan y="-207" x="147.75">3</tspan></text>
<path transform="matrix(.1,0,0,-.1,0,480)" stroke-width="30" stroke-linecap="butt" stroke-miterlimit="10" stroke-linejoin="miter" fill="none" stroke="#00ff80" d="M300 3000 600 3300M600 3300 900 3600M300 2700V3000M300 2700 600 2400M600 2400 900 2100M900 2100 1200 1800"/>
<path transform="matrix(.1,0,0,-.1,0,480)" d="M360 3000C360 3033.14 333.137 3060 300 3060 266.863 3060 240 3033.14 240 3000 240 2966.86 266.863 2940 300 2940 333.137 2940 360 2966.86 360 3000" fill="#00ff80"/>
<path transform="matrix(.1,0,0,-.1,0,480)" stroke-width="10" stroke-linecap="butt" stroke-miterlimit="10" stroke-linejoin="miter" fill="none" stroke="#000000" d="M360 3000C360 3033.14 333.137 3060 300 3060 266.863 3060 240 3033.14 240 3000 240 2966.86 266.863 2940 300 2940 333.137 2940 360 2966.86 360 3000"/>
<text xml:space="preserve" transform="matrix(1 0 -0 1 0 480)" font-size="9" font-family="Times"><tspan y="-297" x="27.75">4</tspan></text>
<path transform="matrix(.1,0,0,-.1,0,480)" d="M660 3300C660 3333.14 633.137 3360 600 3360 566.863 3360 540 3333.14 540 3300 540 3266.86 566.863 3240 600 3240 633.137 3240 660 3266.86 660 3300" fill="#00ff80"/>
<path transform="matrix(.1,0,0,-.1,0,480)" stroke-width="10" stroke-linecap="butt" stroke-miterlimit="10" stroke-linejoin="miter" fill="none" stroke="#000000" d="M660 3300C660 3333.14 633.137 3360 600 3360 566.863 3360 540 3333.14 540 3300 540 3266.86 566.863 3240 600 3240 633.137 3240 660 3266.86 660 3300"/>
<text xml:space="preserve" transform="matrix(1 0 -0 1 0 480)" font-size="9" font-family="Times"><tspan y="-327" x="57.75">4</tspan></text>
<path transform="matrix(.1,0,0,-.1,0,480)" d="M960 3600C960 3633.14 933.137 3660 900 3660 866.863 3660 840 3633.14 840 3600 840 3566.86 866.863 3540 900 3540 933.137 3540 960 3566.86 960 3600" fill="#00ff80"/>
<path transform="matrix(.1,0,0,-.1,0,480)" stroke-width="10" stroke-linecap="butt" stroke-miterlimit="10" stroke-linejoin="miter" fill="none" stroke="#000000" d="M960 3600C960 3633.14 933.137 3660 900 3660 866.863 3660 840 3633.14 840 3600 840 3566.86 866.863 3540 900 3540 933.137 3540 960 3566.86 960 3600"/>
<text xml:space="preserve" transform="matrix(1 0 -0 1 0 480)" font-size="9" font-family="Times"><tspan y="-357" x="87.75">4</tspan></text>
<path transform="matrix(.1,0,0,-.1,0,480)" d="M360 2700C360 2733.14 333.137 2760 300 2760 266.863 2760 240 2733.14 240 2700 240 2666.86 266.863 2640 300 2640 333.137 2640 360 2666.86 360 2700" fill="#00ff80"/>
<path transform="matrix(.1,0,0,-.1,0,480)" stroke-width="10" stroke-linecap="butt" stroke-miterlimit="10" stroke-linejoin="miter" fill="none" stroke="#000000" d="M360 2700C360 2733.14 333.137 2760 300 2760 266.863 2760 240 2733.14 240 2700 240 2666.86 266.863 2640 300 2640 333.137 2640 360 2666.86 360 2700"/>
<text xml:space="preserve" transform="matrix(1 0 -0 1 0 480)" font-size="9" font-family="Times"><tspan y="-267" x="27.75">4</tspan></text>
<path transform="matrix(.1,0,0,-.1,0,480)" d="M660 2400C660 2433.14 633.137 2460 600 2460 566.863 2460 540 2433.14 540 2400 540 2366.86 566.863 2340 600 2340 633.137 2340 660 2366.86 660 2400" fill="#00ff80"/>
<path transform="matrix(.1,0,0,-.1,0,480)" stroke-width="10" stroke-linecap="butt" stroke-miterlimit="10" stroke-linejoin="miter" fill="none" stroke="#000000" d="M660 2400C660 2433.14 633.137 2460 600 2460 566.863 2460 540 2433.14 540 2400 540 2366.86 566.863 2340 600 2340 633.137 2340 660 2366.86 660 2400"/>
<text xml:space="preserve" transform="matrix(1 0 -0 1 0 480)" font-size="9" font-family="Times"><tspan y="-237" x="57.75">4</tspan></text>
<path transform="matrix(.1,0,0,-.1,0,480)" d="M960 2100C960 2133.14 933.137 2160 900 2160 866.863 2160 840 2133.14 840 2100 840 2066.86 866.863 2040 900 2040 933.137 2040 960 2066.86 960 2100" fill="#00ff80"/>
<path transform="matrix(.1,0,0,-.1,0,480)" stroke-width="10" stroke-linecap="butt" stroke-miterlimit="10" stroke-linejoin="miter" fill="none" stroke="#000000" d="M960 2100C960 2133.14 933.137 2160 900 2160 866.863 2160 840 2133.14 840 2100 840 2066.86 866.863 2040 900 2040 933.137 2040 960 2066.86 960 2100"/>
<text xml:space="preserve" transform="matrix(1 0 -0 1 0 480)" font-size="9" font-family="Times"><tspan y="-207" x="87.75">4</tspan></text>
<path transform="matrix(.1,0,0,-.1,0,480)" d="M1260 1800C1260 1833.14 1233.14 1860 1200 1860 1166.86 1860 1140 1833.14 1140 1800 1140 1766.86 1166.86 1740 1200 1740 1233.14 1740 1260 1766.86 1260 1800" fill="#00ff80"/>
<path transform="matrix(.1,0,0,-.1,0,480)" stroke-width="10" stroke-linecap="butt" stroke-miterlimit="10" stroke-linejoin="miter" fill="none" stroke="#000000" d="M1260 1800C1260 1833.14 1233.14 1860 1200 1860 1166.86 1860 1140 1833.14 1140 1800 1140 1766.86 1166.86 1740 1200 1740 1233.14 1740 1260 1766.86 1260 1800"/>
<text xml:space="preserve" transform="matrix(1 0 -0 1 0 480)" font-size="9" font-family="Times"><tspan y="-177" x="117.75">4</tspan></text>
<path transform="matrix(.1,0,0,-.1,0,480)" stroke-width="30" stroke-linecap="butt" stroke-miterlimit="10" stroke-linejoin="miter" fill="none" stroke="#00dfff" d="M300 2400 600 2700M600 2700 900 3000M900 3000 1200 3300M300 2100V2400M300 2100 600 1800M600 1800 900 1500"/>
<path transform="matrix(.1,0,0,-.1,0,480)" d="M360 2400C360 2433.14 333.137 2460 300 2460 266.863 2460 240 2433.14 240 2400 240 2366.86 266.863 2340 300 2340 333.137 2340 360 2366.86 360 2400" fill="#00dfff"/>
<path transform="matrix(.1,0,0,-.1,0,480)" stroke-width="10" stroke-linecap="butt" stroke-miterlimit="10" stroke-linejoin="miter" fill="none" stroke="#000000" d="M360 2400C360 2433.14 333.137 2460 300 2460 266.863 2460 240 2433.14 240 2400 240 2366.86 266.863 2340 300 2340 333.137 2340 360 2366.86 360 2400"/>
<text xml:space="preserve" transform="matrix(1 0 -0 1 0 480)" font-size="9" font-family="Times"><tspan y="-237" x="27.75">5</tspan></text>
<path transform="matrix(.1,0,0,-.1,0,480)" d="M660 2700C660 2733.14 633.137 2760 600 2760 566.863 2760 540 2733.14 540 2700 540 2666.86 566.863 2640 600 2640 633.137 2640 660 2666.86 660 2700" fill="#00dfff"/>
<path transform="matrix(.1,0,0,-.1,0,480)" stroke-width="10" stroke-linecap="butt" stroke-miterlimit="10" stroke-linejoin="miter" fill="none" stroke="#000000" d="M660 2700C660 2733.14 633.137 2760 600 2760 566.863 2760 540 2733.14 540 2700 540 2666.86 566.863 2640 600 2640 633.137 2640 660 2666.86 660 2700"/>
<text xml:space="preserve" transform="matrix(1 0 -0 1 0 480)" font-size="9" font-family="Times"><tspan y="-267" x="57.75">5</tspan></text>
<path transform="matrix(.1,0,0,-.1,0,480)" d="M960 3000C960 3033.14 933.137 3060 900 3060 866.863 3060 840 3033.14 840 3000 840 2966.86 866.863 2940 900 2940 933.137 2940 960 2966.86 960 3000" fill="#00dfff"/>
<path transform="matrix(.1,0,0,-.1,0,480)" stroke-width="10" stroke-linecap="butt" stroke-miterlimit="10" stroke-linejoin="miter" fill="none" stroke="#000000" d="M960 3000C960 3033.14 933.137 3060 900 3060 866.863 3060 840 3033.14 840 3000 840 2966.86 866.863 2940 900 2940 933.137 2940 960 2966.86 960 3000"/>
<text xml:space="preserve" transform="matrix(1 0 -0 1 0 480)" font-size="9" font-family="Times"><tspan y="-297" x="87.75">5</tspan></text>
<path transform="matrix(.1,0,0,-.1,0,480)" d="M1260 3300C1260 3333.14 1233.14 3360 1200 3360 1166.86 3360 1140 3333.14 1140 3300 1140 3266.86 1166.86 3240 1200 3240 1233.14 3240 1260 3266.86 1260 3300" fill="#00dfff"/>
<path transform="matrix(.1,0,0,-.1,0,480)" stroke-width="10" stroke-linecap="butt" stroke-miterlimit="10" stroke-linejoin="miter" fill="none" stroke="#000000" d="M1260 3300C1260 3333.14 1233.14 3360 1200 3360 1166.86 3360 1140 3333.14 1140 3300 1140 3266.86 1166.86 3240 1200 3240 1233.14 3240 1260 3266.86 1260 3300"/>
<text xml:space="preserve" transform="matrix(1 0 -0 1 0 480)" font-size="9" font-family="Times"><tspan y="-327" x="117.75">5</tspan></text>
<path transform="matrix(.1,0,0,-.1,0,480)" d="M360 2100C360 2133.14 333.137 2160 300 2160 266.863 2160 240 2133.14 240 2100 240 2066.86 266.863 2040 300 2040 333.137 2040 360 2066.86 360 2100" fill="#00dfff"/>
<path transform="matrix(.1,0,0,-.1,0,480)" stroke-width="10" stroke-linecap="butt" stroke-miterlimit="10" stroke-linejoin="miter" fill="none" stroke="#000000" d="M360 2100C360 2133.14 333.137 2160 300 2160 266.863 2160 240 2133.14 240 2100 240 2066.86 266.863 2040 300 2040 333.137 2040 360 2066.86 360 2100"/>
<text xml:space="preserve" transform="matrix(1 0 -0 1 0 480)" font-size="9" font-family="Times"><tspan y="-207" x="27.75">5</tspan></text>
<path transform="matrix(.1,0,0,-.1,0,480)" d="M660 1800C660 1833.14 633.137 1860 600 1860 566.863 1860 540 1833.14 540 1800 540 1766.86 566.863 1740 600 1740 633.137 1740 660 1766.86 660 1800" fill="#00dfff"/>
<path transform="matrix(.1,0,0,-.1,0,480)" stroke-width="10" stroke-linecap="butt" stroke-miterlimit="10" stroke-linejoin="miter" fill="none" stroke="#000000" d="M660 1800C660 1833.14 633.137 1860 600 1860 566.863 1860 540 1833.14 540 1800 540 1766.86 566.863 1740 600 1740 633.137 1740 660 1766.86 660 1800"/>
<text xml:space="preserve" transform="matrix(1 0 -0 1 0 480)" font-size="9" font-family="Times"><tspan y="-177" x="57.75">5</tspan></text>
<path transform="matrix(.1,0,0,-.1,0,480)" d="M960 1500C960 1533.14 933.137 1560 900 1560 866.863 1560 840 1533.14 840 1500 840 1466.86 866.863 1440 900 1440 933.137 1440 960 1466.86 960 1500" fill="#00dfff"/>
<path transform="matrix(.1,0,0,-.1,0,480)" stroke-width="10" stroke-linecap="butt" stroke-miterlimit="10" stroke-linejoin="miter" fill="none" stroke="#000000" d="M960 1500C960 1533.14 933.137 1560 900 1560 866.863 1560 840 1533.14 840 1500 840 1466.86 866.863 1440 900 1440 933.137 1440 960 1466.86 960 1500"/>
<text xml:space="preserve" transform="matrix(1 0 -0 1 0 480)" font-size="9" font-family="Times"><tspan y="-147" x="87.75">5</tspan></text>
<path transform="matrix(.1,0,0,-.1,0,480)" stroke-width="30" stroke-linecap="butt" stroke-miterlimit="10" stroke-linejoin="miter" fill="none" stroke="#0040ff" d="M300 1800 600 2100M600 2100 900 2400M900 2400 1200 2700M1200 2700 1500 3000M300 1500V1800M300 1500 600 1200"/>
<path transform="matrix(.1,0,0,-.1,0,480)" d="M360 1800C360 1833.14 333.137 1860 300 1860 266.863 1860 240 1833.14 240 1800 240 1766.86 266.863 1740 300 1740 333.137 1740 360 1766.86 360 1800" fill="#0040ff"/>
<path transform="matrix(.1,0,0,-.1,0,480)" stroke-width="10" stroke-linecap="butt" stroke-miterlimit="10" stroke-linejoin="miter" fill="none" stroke="#000000" d="M360 1800C360 1833.14 333.137 1860 300 1860 266.863 1860 240 1833.14 240 1800 240 1766.86 266.863 1740 300 1740 333.137 1740 360 1766.86 360 1800"/>
<text xml:space="preserve" transform="matrix(1 0 -0 1 0 480)" font-size="9" font-family="Times"><tspan y="-177" x="27.75">6</tspan></text>
<path transform="matrix(.1,0,0,-.1,0,480)" d="M660 2100C660 2133.14 633.137 2160 600 2160 566.863 2160 540 2133.14 540 2100 540 2066.86 566.863 2040 600 2040 633.137 2040 660 2066.86 660 2100" fill="#0040ff"/>
<path transform="matrix(.1,0,0,-.1,0,480)" stroke-width="10" stroke-linecap="butt" stroke-miterlimit="10" stroke-linejoin="miter" fill="none" stroke="#000000" d="M660 2100C660 2133.14 633.137 2160 600 2160 566.863 2160 540 2133.14 540 2100 540 2066.86 566.863 2040 600 2040 633.137 2040 660 2066.86 660 2100"/>
<text xml:space="preserve" transform="matrix(1 0 -0 1 0 480)" font-size="9" font-family="Times"><tspan y="-207" x="57.75">6</tspan></text>
<path transform="matrix(.1,0,0,-.1,0,480)" d="M960 2400C960 2433.14 933.137 2460 900 2460 866.863 2460 840 2433.14 840 2400 840 2366.86 866.863 2340 900 2340 933.137 2340 960 2366.86 960 2400" fill="#0040ff"/>
<path transform="matrix(.1,0,0,-.1,0,480)" stroke-width="10" stroke-linecap="butt" stroke-miterlimit="10" stroke-linejoin="miter" fill="none" stroke="#000000" d="M960 2400C960 2433.14 933.137 2460 900 2460 866.863 2460 840 2433.14 840 2400 840 2366.86 866.863 2340 900 2340 933.137 2340 960 2366.86 960 2400"/>
<text xml:space="preserve" transform="matrix(1 0 -0 1 0 480)" font-size="9" font-family="Times"><tspan y="-237" x="87.75">6</tspan></text>
<path transform="matrix(.1,0,0,-.1,0,480)" d="M1260 2700C1260 2733.14 1233.14 2760 1200 2760 1166.86 2760 1140 2733.14 1140 2700 1140 2666.86 1166.86 2640 1200 2640 1233.14 2640 1260 2666.86 1260 2700" fill="#0040ff"/>
<path transform="matrix(.1,0,0,-.1,0,480)" stroke-width="10" stroke-linecap="butt" stroke-miterlimit="10" stroke-linejoin="miter" fill="none" stroke="#000000" d="M1260 2700C1260 2733.14 1233.14 2760 1200 2760 1166.86 2760 1140 2733.14 1140 2700 1140 2666.86 1166.86 2640 1200 2640 1233.14 2640 1260 2666.86 1260 2700"/>
<text xml:space="preserve" transform="matrix(1 0 -0 1 0 480)" font-size="9" font-family="Times"><tspan y="-267" x="117.75">6</tspan></text>
<path transform="matrix(.1,0,0,-.1,0,480)" d="M1560 3000C1560 3033.14 1533.14 3060 1500 3060 1466.86 3060 1440 3033.14 1440 3000 1440 2966.86 1466.86 2940 1500 2940 1533.14 2940 1560 2966.86 1560 3000" fill="#0040ff"/>
<path transform="matrix(.1,0,0,-.1,0,480)" stroke-width="10" stroke-linecap="butt" stroke-miterlimit="10" stroke-linejoin="miter" fill="none" stroke="#000000" d="M1560 3000C1560 3033.14 1533.14 3060 1500 3060 1466.86 3060 1440 3033.14 1440 3000 1440 2966.86 1466.86 2940 1500 2940 1533.14 2940 1560 2966.86 1560 3000"/>
<text xml:space="preserve" transform="matrix(1 0 -0 1 0 480)" font-size="9" font-family="Times"><tspan y="-297" x="147.75">6</tspan></text>
<path transform="matrix(.1,0,0,-.1,0,480)" d="M360 1500C360 1533.14 333.137 1560 300 1560 266.863 1560 240 1533.14 240 1500 240 1466.86 266.863 1440 300 1440 333.137 1440 360 1466.86 360 1500" fill="#0040ff"/>
<path transform="matrix(.1,0,0,-.1,0,480)" stroke-width="10" stroke-linecap="butt" stroke-miterlimit="10" stroke-linejoin="miter" fill="none" stroke="#000000" d="M360 1500C360 1533.14 333.137 1560 300 1560 266.863 1560 240 1533.14 240 1500 240 1466.86 266.863 1440 300 1440 333.137 1440 360 1466.86 360 1500"/>
<text xml:space="preserve" transform="matrix(1 0 -0 1 0 480)" font-size="9" font-family="Times"><tspan y="-147" x="27.75">6</tspan></text>
<path transform="matrix(.1,0,0,-.1,0,480)" d="M660 1200C660 1233.14 633.137 1260 600 1260 566.863 1260 540 1233.14 540 1200 540 1166.86 566.863 1140 600 1140 633.137 1140 660 1166.86 660 1200" fill="#0040ff"/>
<path transform="matrix(.1,0,0,-.1,0,480)" stroke-width="10" stroke-linecap="butt" stroke-miterlimit="10" stroke-linejoin="miter" fill="none" stroke="#000000" d="M660 1200C660 1233.14 633.137 1260 600 1260 566.863 1260 540 1233.14 540 1200 540 1166.86 566.863 1140 600 1140 633.137 1140 660 1166.86 660 1200"/>
<text xml:space="preserve" transform="matrix(1 0 -0 1 0 480)" font-size="9" font-family="Times"><tspan y="-117" x="57.75">6</tspan></text>
<path transform="matrix(.1,0,0,-.1,0,480)" stroke-width="30" stroke-linecap="butt" stroke-miterlimit="10" stroke-linejoin="miter" fill="none" stroke="#6000ff" d="M300 1200 600 1500M600 1500 900 1800M900 1800 1200 2100M1200 2100 1500 2400M1500 2400 1800 2700M300 900V1200"/>
<path transform="matrix(.1,0,0,-.1,0,480)" d="M360 1200C360 1233.14 333.137 1260 300 1260 266.863 1260 240 1233.14 240 1200 240 1166.86 266.863 1140 300 1140 333.137 1140 360 1166.86 360 1200" fill="#6000ff"/>
<path transform="matrix(.1,0,0,-.1,0,480)" stroke-width="10" stroke-linecap="butt" stroke-miterlimit="10" stroke-linejoin="miter" fill="none" stroke="#000000" d="M360 1200C360 1233.14 333.137 1260 300 1260 266.863 1260 240 1233.14 240 1200 240 1166.86 266.863 1140 300 1140 333.137 1140 360 1166.86 360 1200"/>
<text xml:space="preserve" transform="matrix(1 0 -0 1 0 480)" font-size="9" font-family="Times"><tspan y="-117" x="27.75">7</tspan></text>
<path transform="matrix(.1,0,0,-.1,0,480)" d="M660 1500C660 1533.14 633.137 1560 600 1560 566.863 1560 540 1533.14 540 1500 540 1466.86 566.863 1440 600 1440 633.137 1440 660 1466.86 660 1500" fill="#6000ff"/>
<path transform="matrix(.1,0,0,-.1,0,480)" stroke-width="10" stroke-linecap="butt" stroke-miterlimit="10" stroke-linejoin="miter" fill="none" stroke="#000000" d="M660 1500C660 1533.14 633.137 1560 600 1560 566.863 1560 540 1533.14 540 1500 540 1466.86 566.863 1440 600 1440 633.137 1440 660 1466.86 660 1500"/>
<text xml:space="preserve" transform="matrix(1 0 -0 1 0 480)" font-size="9" font-family="Times"><tspan y="-147" x="57.75">7</tspan></text>
<path transform="matrix(.1,0,0,-.1,0,480)" d="M960 1800C960 1833.14 933.137 1860 900 1860 866.863 1860 840 1833.14 840 1800 840 1766.86 866.863 1740 900 1740 933.137 1740 960 1766.86 960 1800" fill="#6000ff"/>
<path transform="matrix(.1,0,0,-.1,0,480)" stroke-width="10" stroke-linecap="butt" stroke-miterlimit="10" stroke-linejoin="miter" fill="none" stroke="#000000" d="M960 1800C960 1833.14 933.137 1860 900 1860 866.863 1860 840 1833.14 840 1800 840 1766.86 866.863 1740 900 1740 933.137 1740 960 1766.86 960 1800"/>
<text xml:space="preserve" transform="matrix(1 0 -0 1 0 480)" font-size="9" font-family="Times"><tspan y="-177" x="87.75">7</tspan></text>
<path transform="matrix(.1,0,0,-.1,0,480)" d="M1260 2100C1260 2133.14 1233.14 2160 1200 2160 1166.86 2160 1140 2133.14 1140 2100 1140 2066.86 1166.86 2040 1200 2040 1233.14 2040 1260 2066.86 1260 2100" fill="#6000ff"/>
<path transform="matrix(.1,0,0,-.1,0,480)" stroke-width="10" stroke-linecap="butt" stroke-miterlimit="10" stroke-linejoin="miter" fill="none" stroke="#000000" d="M1260 2100C1260 2133.14 1233.14 2160 1200 2160 1166.86 2160 1140 2133.14 1140 2100 1140 2066.86 1166.86 2040 1200 2040 1233.14 2040 1260 2066.86 1260 2100"/>
<text xml:space="preserve" transform="matrix(1 0 -0 1 0 480)" font-size="9" font-family="Times"><tspan y="-207" x="117.75">7</tspan></text>
<path transform="matrix(.1,0,0,-.1,0,480)" d="M1560 2400C1560 2433.14 1533.14 2460 1500 2460 1466.86 2460 1440 2433.14 1440 2400 1440 2366.86 1466.86 2340 1500 2340 1533.14 2340 1560 2366.86 1560 2400" fill="#6000ff"/>
<path transform="matrix(.1,0,0,-.1,0,480)" stroke-width="10" stroke-linecap="butt" stroke-miterlimit="10" stroke-linejoin="miter" fill="none" stroke="#000000" d="M1560 2400C1560 2433.14 1533.14 2460 1500 2460 1466.86 2460 1440 2433.14 1440 2400 1440 2366.86 1466.86 2340 1500 2340 1533.14 2340 1560 2366.86 1560 2400"/>
<text xml:space="preserve" transform="matrix(1 0 -0 1 0 480)" font-size="9" font-family="Times"><tspan y="-237" x="147.75">7</tspan></text>
<path transform="matrix(.1,0,0,-.1,0,480)" d="M1860 2700C1860 2733.14 1833.14 2760 1800 2760 1766.86 2760 1740 2733.14 1740 2700 1740 2666.86 1766.86 2640 1800 2640 1833.14 2640 1860 2666.86 1860 2700" fill="#6000ff"/>
<path transform="matrix(.1,0,0,-.1,0,480)" stroke-width="10" stroke-linecap="butt" stroke-miterlimit="10" stroke-linejoin="miter" fill="none" stroke="#000000" d="M1860 2700C1860 2733.14 1833.14 2760 1800 2760 1766.86 2760 1740 2733.14 1740 2700 1740 2666.86 1766.86 2640 1800 2640 1833.14 2640 1860 2666.86 1860 2700"/>
<text xml:space="preserve" transform="matrix(1 0 -0 1 0 480)" font-size="9" font-family="Times"><tspan y="-267" x="177.75">7</tspan></text>
<path transform="matrix(.1,0,0,-.1,0,480)" d="M360 900C360 933.137 333.137 960 300 960 266.863 960 240 933.137 240 900 240 866.863 266.863 840 300 840 333.137 840 360 866.863 360 900" fill="#6000ff"/>
<path transform="matrix(.1,0,0,-.1,0,480)" stroke-width="10" stroke-linecap="butt" stroke-miterlimit="10" stroke-linejoin="miter" fill="none" stroke="#000000" d="M360 900C360 933.137 333.137 960 300 960 266.863 960 240 933.137 240 900 240 866.863 266.863 840 300 840 333.137 840 360 866.863 360 900"/>
<text xml:space="preserve" transform="matrix(1 0 -0 1 0 480)" font-size="9" font-family="Times"><tspan y="-87" x="27.75">7</tspan></text>
<path transform="matrix(.1,0,0,-.1,0,480)" stroke-width="30" stroke-linecap="butt" stroke-miterlimit="10" stroke-linejoin="miter" fill="none" stroke="#ff00ff" d="M300 600 600 900M600 900 900 1200M900 1200 1200 1500M1200 1500 1500 1800M1500 1800 1800 2100M1800 2100 2100 2400"/>
<path transform="matrix(.1,0,0,-.1,0,480)" d="M360 600C360 633.137 333.137 660 300 660 266.863 660 240 633.137 240 600 240 566.863 266.863 540 300 540 333.137 540 360 566.863 360 600" fill="#ff00ff"/>
<path transform="matrix(.1,0,0,-.1,0,480)" stroke-width="10" stroke-linecap="butt" stroke-miterlimit="10" stroke-linejoin="miter" fill="none" stroke="#000000" d="M360 600C360 633.137 333.137 660 300 660 266.863 660 240 633.137 240 600 240 566.863 266.863 540 300 540 333.137 540 360 566.863 360 600"/>
<text xml:space="preserve" transform="matrix(1 0 -0 1 0 480)" font-size="9" font-family="Times"><tspan y="-57" x="27.75">8</tspan></text>
<path transform="matrix(.1,0,0,-.1,0,480)" d="M660 900C660 933.137 633.137 960 600 960 566.863 960 540 933.137 540 900 540 866.863 566.863 840 600 840 633.137 840 660 866.863 660 900" fill="#ff00ff"/>
<path transform="matrix(.1,0,0,-.1,0,480)" stroke-width="10" stroke-linecap="butt" stroke-miterlimit="10" stroke-linejoin="miter" fill="none" stroke="#000000" d="M660 900C660 933.137 633.137 960 600 960 566.863 960 540 933.137 540 900 540 866.863 566.863 840 600 840 633.137 840 660 866.863 660 900"/>
<text xml:space="preserve" transform="matrix(1 0 -0 1 0 480)" font-size="9" font-family="Times"><tspan y="-87" x="57.75">8</tspan></text>
<path transform="matrix(.1,0,0,-.1,0,480)" d="M960 1200C960 1233.14 933.137 1260 900 1260 866.863 1260 840 1233.14 840 1200 840 1166.86 866.863 1140 900 1140 933.137 1140 960 1166.86 960 1200" fill="#ff00ff"/>
<path transform="matrix(.1,0,0,-.1,0,480)" stroke-width="10" stroke-linecap="butt" stroke-miterlimit="10" stroke-linejoin="miter" fill="none" stroke="#000000" d="M960 1200C960 1233.14 933.137 1260 900 1260 866.863 1260 840 1233.14 840 1200 840 1166.86 866.863 1140 900 1140 933.137 1140 960 1166.86 960 1200"/>
<text xml:space="preserve" transform="matrix(1 0 -0 1 0 480)" font-size="9" font-family="Times"><tspan y="-117" x="87.75">8</tspan></text>
<path transform="matrix(.1,0,0,-.1,0,480)" d="M1260 1500C1260 1533.14 1233.14 1560 1200 1560 1166.86 1560 1140 1533.14 1140 1500 1140 1466.86 1166.86 1440 1200 1440 1233.14 1440 1260 1466.86 1260 1500" fill="#ff00ff"/>
<path transform="matrix(.1,0,0,-.1,0,480)" stroke-width="10" stroke-linecap="butt" stroke-miterlimit="10" stroke-linejoin="miter" fill="none" stroke="#000000" d="M1260 1500C1260 1533.14 1233.14 1560 1200 1560 1166.86 1560 1140 1533.14 1140 1500 1140 1466.86 1166.86 1440 1200 1440 1233.14 1440 1260 1466.86 1260 1500"/>
<text xml:space="preserve" transform="matrix(1 0 -0 1 0 480)" font-size="9" font-family="Times"><tspan y="-147" x="117.75">8</tspan></text>
<path transform="matrix(.1,0,0,-.1,0,480)" d="M1560 1800C1560 1833.14 1533.14 1860 1500 1860 1466.86 1860 1440 1833.14 1440 1800 1440 1766.86 1466.86 1740 1500 1740 1533.14 1740 1560 1766.86 1560 1800" fill="#ff00ff"/>
<path transform="matrix(.1,0,0,-.1,0,480)" stroke-width="10" stroke-linecap="butt" stroke-miterlimit="10" stroke-linejoin="miter" fill="none" stroke="#000000" d="M1560 1800C1560 1833.14 1533.14 1860 1500 1860 1466.86 1860 1440 1833.14 1440 1800 1440 1766.86 1466.86 1740 1500 1740 1533.14 1740 1560 1766.86 1560 1800"/>
<text xml:space="preserve" transform="matrix(1 0 -0 1 0 480)" font-size="9" font-family="Times"><tspan y="-177" x="147.75">8</tspan></text>
<path transform="matrix(.1,0,0,-.1,0,480)" d="M1860 2100C1860 2133.14 1833.14 2160 1800 2160 1766.86 2160 1740 2133.14 1740 2100 1740 2066.86 1766.86 2040 1800 2040 1833.14 2040 1860 2066.86 1860 2100" fill="#ff00ff"/>
<path transform="matrix(.1,0,0,-.1,0,480)" stroke-width="10" stroke-linecap="butt" stroke-miterlimit="10" stroke-linejoin="miter" fill="none" stroke="#000000" d="M1860 2100C1860 2133.14 1833.14 2160 1800 2160 1766.86 2160 1740 2133.14 1740 2100 1740 2066.86 1766.86 2040 1800 2040 1833.14 2040 1860 2066.86 1860 2100"/>
<text xml:space="preserve" transform="matrix(1 0 -0 1 0 480)" font-size="9" font-family="Times"><tspan y="-207" x="177.75">8</tspan></text>
<path transform="matrix(.1,0,0,-.1,0,480)" d="M2160 2400C2160 2433.14 2133.14 2460 2100 2460 2066.86 2460 2040 2433.14 2040 2400 2040 2366.86 2066.86 2340 2100 2340 2133.14 2340 2160 2366.86 2160 2400" fill="#ff00ff"/>
<path transform="matrix(.1,0,0,-.1,0,480)" stroke-width="10" stroke-linecap="butt" stroke-miterlimit="10" stroke-linejoin="miter" fill="none" stroke="#000000" d="M2160 2400C2160 2433.14 2133.14 2460 2100 2460 2066.86 2460 2040 2433.14 2040 2400 2040 2366.86 2066.86 2340 2100 2340 2133.14 2340 2160 2366.86 2160 2400"/>
<text xml:space="preserve" transform="matrix(1 0 -0 1 0 480)" font-size="9" font-family="Times"><tspan y="-237" x="207.75">8</tspan></text>
</svg>
