<svg xmlns="http://www.w3.org/2000/svg" xmlns:xlink="http://www.w3.org/1999/xlink" version="1.1" width="189.78316" height="66.64432" viewBox="0 0 189.78316 66.64432">
<g>
<path stroke-width="1.417323" stroke-linecap="butt" stroke-miterlimit="4" stroke-linejoin="miter" fill="none" stroke="#000000" d="M.719 0 .707 56.691"/>
<path stroke-width="1.417323" stroke-linecap="butt" stroke-miterlimit="4" stroke-linejoin="miter" fill="none" stroke="#000000" d="M43.238 0 43.227 56.691"/>
<path stroke-width="1.417323" stroke-linecap="butt" stroke-miterlimit="4" stroke-linejoin="miter" fill="none" stroke="#000000" d="M.566 55.973 43.094 55.996"/>
<path stroke-width="1.417323" stroke-linecap="butt" stroke-miterlimit="4" stroke-linejoin="miter" fill="none" stroke="#000000" d="M71.586 0 71.574 56.691"/>
<path stroke-width="1.417323" stroke-linecap="butt" stroke-miterlimit="4" stroke-linejoin="miter" fill="none" stroke="#000000" d="M114.105 0 114.094 56.691"/>
<path stroke-width="1.417323" stroke-linecap="butt" stroke-miterlimit="4" stroke-linejoin="miter" fill="none" stroke="#000000" d="M71.434 55.973 113.961 55.996"/>
<path stroke-width="1.417323" stroke-linecap="butt" stroke-miterlimit="4" stroke-linejoin="miter" fill="none" stroke="#000000" d="M142.453 0 142.441 56.691"/>
<path stroke-width="1.417323" stroke-linecap="butt" stroke-miterlimit="4" stroke-linejoin="miter" fill="none" stroke="#000000" d="M184.973 0 184.961 56.691"/>
<path stroke-width="1.417323" stroke-linecap="butt" stroke-miterlimit="4" stroke-linejoin="miter" fill="none" stroke="#000000" d="M142.297 55.973 184.828 55.996"/>
<path transform="matrix(1,0,0,.687785,0,0)" stroke-width="1.025401" stroke-linecap="butt" stroke-miterlimit="4" stroke-linejoin="miter" fill="none" stroke="#000000" d="M.699 5.765C1.371 4.907 2.445 4.379 3.535 4.368 4.625 4.356 5.707 4.867 6.395 5.714 6.43 5.759 6.465 5.799 6.5 5.844 7.117 6.6 8.098 7.037 9.07 6.997 10.043 6.957 10.984 6.435 11.535 5.634"/>
<path transform="matrix(1,0,0,.687785,0,0)" stroke-width="1.025401" stroke-linecap="butt" stroke-miterlimit="4" stroke-linejoin="miter" fill="none" stroke="#000000" d="M11.176 6.049C11.848 5.185 12.922 4.657 14.012 4.646 15.102 4.634 16.184 5.146 16.871 5.992 16.906 6.037 16.941 6.083 16.977 6.128 17.59 6.878 18.574 7.321 19.547 7.281 20.52 7.241 21.461 6.719 22.012 5.912"/>
<path transform="matrix(1,0,0,.687785,0,0)" stroke-width="1.025401" stroke-linecap="butt" stroke-miterlimit="4" stroke-linejoin="miter" fill="none" stroke="#000000" d="M21.938 6.015C22.609 5.157 23.68 4.623 24.77 4.612 25.863 4.606 26.945 5.112 27.633 5.963 27.668 6.003 27.699 6.049 27.738 6.094 28.352 6.849 29.336 7.287 30.309 7.247 31.281 7.207 32.223 6.685 32.773 5.884"/>
<path transform="matrix(1,0,0,.687785,0,0)" stroke-width="1.025401" stroke-linecap="butt" stroke-miterlimit="4" stroke-linejoin="miter" fill="none" stroke="#000000" d="M32.414 6.293C33.086 5.435 34.156 4.907 35.246 4.896 36.336 4.884 37.422 5.395 38.109 6.242 38.145 6.287 38.176 6.327 38.215 6.372 38.828 7.128 39.812 7.571 40.785 7.525 41.758 7.486 42.699 6.963 43.25 6.162"/>
<path transform="matrix(1,0,0,.687785,0,0)" stroke-width="1.025401" stroke-linecap="butt" stroke-miterlimit="4" stroke-linejoin="miter" fill="none" stroke="#000000" d="M71.652 5.776C72.324 4.918 73.398 4.39 74.488 4.379 75.578 4.368 76.66 4.879 77.348 5.725 77.383 5.77 77.418 5.816 77.453 5.856 78.07 6.611 79.051 7.054 80.023 7.008 80.996 6.969 81.938 6.446 82.488 5.645"/>
<path transform="matrix(1,0,0,.687785,0,0)" stroke-width="1.025401" stroke-linecap="butt" stroke-miterlimit="4" stroke-linejoin="miter" fill="none" stroke="#000000" d="M82.129 6.06C82.801 5.197 83.875 4.669 84.965 4.657 86.055 4.651 87.137 5.157 87.824 6.003 87.859 6.049 87.895 6.094 87.93 6.139 88.547 6.889 89.527 7.332 90.5 7.292 91.473 7.253 92.414 6.73 92.965 5.929"/>
<path transform="matrix(1,0,0,.687785,0,0)" stroke-width="1.025401" stroke-linecap="butt" stroke-miterlimit="4" stroke-linejoin="miter" fill="none" stroke="#000000" d="M92.891 6.026C93.562 5.168 94.637 4.634 95.727 4.629 96.816 4.617 97.898 5.129 98.586 5.975 98.621 6.015 98.656 6.06 98.691 6.105 99.305 6.861 100.289 7.298 101.262 7.258 102.234 7.219 103.176 6.696 103.727 5.895"/>
<path transform="matrix(1,0,0,.687785,0,0)" stroke-width="1.025401" stroke-linecap="butt" stroke-miterlimit="4" stroke-linejoin="miter" fill="none" stroke="#000000" d="M103.367 6.304C104.039 5.447 105.113 4.918 106.203 4.907 107.293 4.896 108.375 5.407 109.062 6.253 109.098 6.299 109.133 6.344 109.168 6.384 109.781 7.139 110.766 7.582 111.738 7.542 112.711 7.497 113.652 6.98 114.203 6.174"/>
<path transform="matrix(1,0,0,.687785,0,0)" stroke-width="1.025401" stroke-linecap="butt" stroke-miterlimit="4" stroke-linejoin="miter" fill="none" stroke="#000000" d="M142.539 6.582C143.207 5.719 144.281 5.191 145.371 5.18 146.461 5.168 147.547 5.679 148.23 6.526 148.27 6.571 148.301 6.617 148.336 6.662 148.953 7.412 149.934 7.855 150.91 7.815 151.883 7.775 152.824 7.253 153.375 6.446"/>
<path transform="matrix(1,0,0,.687785,0,0)" stroke-width="1.025401" stroke-linecap="butt" stroke-miterlimit="4" stroke-linejoin="miter" fill="none" stroke="#000000" d="M153.016 6.861C153.684 6.003 154.758 5.469 155.848 5.464 156.938 5.452 158.023 5.963 158.707 6.81 158.746 6.849 158.777 6.895 158.812 6.94 159.43 7.696 160.41 8.133 161.383 8.093 162.359 8.053 163.301 7.531 163.852 6.73"/>
<path transform="matrix(1,0,0,.687785,0,0)" stroke-width="1.025401" stroke-linecap="butt" stroke-miterlimit="4" stroke-linejoin="miter" fill="none" stroke="#000000" d="M163.773 6.827C164.445 5.969 165.52 5.441 166.609 5.43 167.699 5.418 168.785 5.929 169.469 6.776 169.504 6.821 169.539 6.866 169.574 6.906 170.191 7.662 171.172 8.105 172.145 8.059 173.117 8.019 174.059 7.497 174.609 6.696"/>
<path transform="matrix(1,0,0,.687785,0,0)" stroke-width="1.025401" stroke-linecap="butt" stroke-miterlimit="4" stroke-linejoin="miter" fill="none" stroke="#000000" d="M174.25 7.111C174.922 6.247 175.996 5.719 177.086 5.708 178.176 5.697 179.262 6.208 179.945 7.054 179.98 7.099 180.016 7.145 180.051 7.19 180.668 7.94 181.648 8.383 182.621 8.343 183.594 8.303 184.535 7.781 185.086 6.974"/>
<path stroke-width=".749999" stroke-linecap="butt" stroke-miterlimit="4" stroke-linejoin="miter" fill="none" stroke="#000000" d="M.625 38.973H43.152"/>
<path stroke-width=".749999" stroke-linecap="butt" stroke-miterlimit="4" stroke-linejoin="miter" fill="none" stroke="#000000" d="M71.461 26.398H113.988"/>
<path stroke-width=".749999" stroke-linecap="butt" stroke-miterlimit="4" stroke-linejoin="miter" fill="none" stroke="#000000" d="M142.324 31.59H184.852"/>
<path d="M13.734 50.832C13.656 51.176 13.625 51.238 13.188 51.238 13.078 51.238 12.969 51.238 12.969 51.426 12.969 51.504 13.016 51.551 13.094 51.551 13.359 51.551 13.656 51.52 13.922 51.52 14.266 51.52 14.594 51.551 14.922 51.551 14.969 51.551 15.094 51.551 15.094 51.348 15.094 51.238 15 51.238 14.859 51.238 14.359 51.238 14.359 51.176 14.359 51.082 14.359 50.957 14.781 49.332 14.844 49.082 14.969 49.379 15.25 49.723 15.766 49.723 16.922 49.723 18.172 48.27 18.172 46.801 18.172 45.863 17.594 45.207 16.844 45.207 16.344 45.207 15.859 45.566 15.531 45.957 15.438 45.41 15 45.207 14.641 45.207 14.172 45.207 13.984 45.598 13.906 45.77 13.719 46.113 13.594 46.707 13.594 46.738 13.594 46.848 13.688 46.848 13.703 46.848 13.812 46.848 13.812 46.832 13.875 46.613 14.047 45.91 14.25 45.426 14.609 45.426 14.781 45.426 14.922 45.504 14.922 45.879 14.922 46.113 14.891 46.223 14.844 46.395ZM15.484 46.504C15.547 46.238 15.828 45.957 16 45.801 16.359 45.504 16.641 45.426 16.812 45.426 17.203 45.426 17.453 45.77 17.453 46.363 17.453 46.957 17.125 48.098 16.938 48.473 16.594 49.176 16.125 49.504 15.75 49.504 15.094 49.504 14.969 48.676 14.969 48.613 14.969 48.598 14.969 48.582 15 48.457ZM15.484 46.504"/>
<path d="M20.621 46.668C20.621 46.48 20.621 46.48 20.418 46.48 19.965 46.918 19.34 46.918 19.059 46.918V47.168C19.215 47.168 19.684 47.168 20.059 46.98V50.527C20.059 50.762 20.059 50.855 19.371 50.855H19.105V51.105C19.23 51.105 20.09 51.074 20.34 51.074 20.559 51.074 21.434 51.105 21.59 51.105V50.855H21.324C20.621 50.855 20.621 50.762 20.621 50.527ZM20.621 46.668"/>
<path d="M29.59 42.52C29.652 42.426 29.668 42.395 29.668 42.332 29.668 42.223 29.574 42.129 29.465 42.129 29.371 42.129 29.324 42.207 29.262 42.27 28.762 42.957 28.09 43.223 27.371 43.223 26.668 43.223 26.059 42.973 25.496 42.457 25.309 42.285 25.105 42.129 24.793 42.129 24.027 42.129 23.324 42.973 23.324 44.145 23.324 45.348 24.043 46.16 24.793 46.16 25.512 46.16 26.074 45.27 26.074 44.145 26.074 44.004 26.074 43.535 25.871 43.02 26.527 43.395 27.012 43.441 27.371 43.441 28.137 43.441 28.637 43.129 28.699 43.098H28.715L24.23 49.77C24.152 49.91 24.152 49.957 24.152 49.973 24.152 50.082 24.246 50.176 24.34 50.176 24.449 50.176 24.465 50.129 24.543 50.02ZM24.793 45.941C24.59 45.941 23.934 45.801 23.934 44.145 23.934 42.488 24.59 42.363 24.793 42.363 25.324 42.363 25.84 43.098 25.84 44.145 25.84 45.223 25.309 45.941 24.793 45.941ZM29.215 49.957C29.012 49.957 28.355 49.816 28.355 48.16 28.355 46.504 28.996 46.379 29.215 46.379 29.746 46.379 30.246 47.113 30.246 48.16 30.246 49.238 29.73 49.957 29.215 49.957ZM30.496 48.16C30.496 47.02 29.902 46.16 29.199 46.16 28.449 46.16 27.73 46.988 27.73 48.16 27.73 49.363 28.449 50.176 29.199 50.176 29.934 50.176 30.496 49.285 30.496 48.16ZM30.496 48.16"/>
<path d="M84.113 43.742C84.035 44.086 84.004 44.148 83.566 44.148 83.457 44.148 83.348 44.148 83.348 44.336 83.348 44.414 83.395 44.461 83.473 44.461 83.738 44.461 84.035 44.43 84.301 44.43 84.645 44.43 84.973 44.461 85.301 44.461 85.348 44.461 85.473 44.461 85.473 44.258 85.473 44.148 85.379 44.148 85.238 44.148 84.738 44.148 84.738 44.086 84.738 43.992 84.738 43.867 85.16 42.242 85.223 41.992 85.348 42.289 85.629 42.633 86.145 42.633 87.301 42.633 88.551 41.18 88.551 39.711 88.551 38.773 87.973 38.117 87.223 38.117 86.723 38.117 86.238 38.477 85.91 38.867 85.816 38.32 85.379 38.117 85.02 38.117 84.551 38.117 84.363 38.508 84.285 38.68 84.098 39.023 83.973 39.617 83.973 39.648 83.973 39.758 84.066 39.758 84.082 39.758 84.191 39.758 84.191 39.742 84.254 39.523 84.426 38.82 84.629 38.336 84.988 38.336 85.16 38.336 85.301 38.414 85.301 38.789 85.301 39.023 85.27 39.133 85.223 39.305ZM85.863 39.414C85.926 39.148 86.207 38.867 86.379 38.711 86.738 38.414 87.02 38.336 87.191 38.336 87.582 38.336 87.832 38.68 87.832 39.273 87.832 39.867 87.504 41.008 87.316 41.383 86.973 42.086 86.504 42.414 86.129 42.414 85.473 42.414 85.348 41.586 85.348 41.523 85.348 41.508 85.348 41.492 85.379 41.367ZM85.863 39.414"/>
<path d="M92.188 42.754H91.953C91.938 42.91 91.859 43.316 91.766 43.379 91.719 43.426 91.188 43.426 91.078 43.426H89.797C90.531 42.785 90.781 42.582 91.188 42.254 91.703 41.848 92.188 41.41 92.188 40.754 92.188 39.91 91.453 39.395 90.562 39.395 89.703 39.395 89.109 40.004 89.109 40.645 89.109 40.988 89.406 41.035 89.484 41.035 89.641 41.035 89.844 40.91 89.844 40.66 89.844 40.535 89.797 40.285 89.438 40.285 89.656 39.801 90.125 39.645 90.453 39.645 91.156 39.645 91.516 40.191 91.516 40.754 91.516 41.363 91.078 41.832 90.859 42.082L89.188 43.754C89.109 43.816 89.109 43.832 89.109 44.02H91.984ZM92.188 42.754"/>
<path d="M99.973 35.43C100.035 35.336 100.051 35.305 100.051 35.242 100.051 35.133 99.957 35.039 99.848 35.039 99.754 35.039 99.707 35.117 99.645 35.18 99.145 35.867 98.473 36.133 97.754 36.133 97.051 36.133 96.441 35.883 95.879 35.367 95.691 35.195 95.488 35.039 95.176 35.039 94.41 35.039 93.707 35.883 93.707 37.055 93.707 38.258 94.426 39.07 95.176 39.07 95.895 39.07 96.457 38.18 96.457 37.055 96.457 36.914 96.457 36.445 96.254 35.93 96.91 36.305 97.395 36.352 97.754 36.352 98.52 36.352 99.02 36.039 99.082 36.008H99.098L94.613 42.68C94.535 42.82 94.535 42.867 94.535 42.883 94.535 42.992 94.629 43.086 94.723 43.086 94.832 43.086 94.848 43.039 94.926 42.93ZM95.176 38.852C94.973 38.852 94.316 38.711 94.316 37.055 94.316 35.398 94.973 35.273 95.176 35.273 95.707 35.273 96.223 36.008 96.223 37.055 96.223 38.133 95.691 38.852 95.176 38.852ZM99.598 42.867C99.395 42.867 98.738 42.727 98.738 41.07 98.738 39.414 99.379 39.289 99.598 39.289 100.129 39.289 100.629 40.023 100.629 41.07 100.629 42.148 100.113 42.867 99.598 42.867ZM100.879 41.07C100.879 39.93 100.285 39.07 99.582 39.07 98.832 39.07 98.113 39.898 98.113 41.07 98.113 42.273 98.832 43.086 99.582 43.086 100.316 43.086 100.879 42.195 100.879 41.07ZM100.879 41.07"/>
<path d="M157.578 47.176C157.5 47.52 157.469 47.582 157.031 47.582 156.922 47.582 156.812 47.582 156.812 47.77 156.812 47.848 156.859 47.895 156.938 47.895 157.203 47.895 157.5 47.863 157.766 47.863 158.109 47.863 158.438 47.895 158.766 47.895 158.812 47.895 158.938 47.895 158.938 47.691 158.938 47.582 158.844 47.582 158.703 47.582 158.203 47.582 158.203 47.52 158.203 47.426 158.203 47.301 158.625 45.676 158.688 45.426 158.812 45.723 159.094 46.066 159.609 46.066 160.766 46.066 162.016 44.613 162.016 43.145 162.016 42.207 161.438 41.551 160.688 41.551 160.188 41.551 159.703 41.91 159.375 42.301 159.281 41.754 158.844 41.551 158.484 41.551 158.016 41.551 157.828 41.941 157.75 42.113 157.562 42.457 157.438 43.051 157.438 43.082 157.438 43.191 157.531 43.191 157.547 43.191 157.656 43.191 157.656 43.176 157.719 42.957 157.891 42.254 158.094 41.77 158.453 41.77 158.625 41.77 158.766 41.848 158.766 42.223 158.766 42.457 158.734 42.566 158.688 42.738ZM159.328 42.848C159.391 42.582 159.672 42.301 159.844 42.145 160.203 41.848 160.484 41.77 160.656 41.77 161.047 41.77 161.297 42.113 161.297 42.707 161.297 43.301 160.969 44.441 160.781 44.816 160.438 45.52 159.969 45.848 159.594 45.848 158.938 45.848 158.812 45.02 158.812 44.957 158.812 44.941 158.812 44.926 158.844 44.801ZM159.328 42.848"/>
<path d="M168.969 38.863C169.031 38.77 169.047 38.738 169.047 38.676 169.047 38.566 168.953 38.473 168.844 38.473 168.75 38.473 168.703 38.551 168.641 38.613 168.141 39.301 167.469 39.566 166.75 39.566 166.047 39.566 165.438 39.316 164.875 38.801 164.688 38.629 164.484 38.473 164.172 38.473 163.406 38.473 162.703 39.316 162.703 40.488 162.703 41.691 163.422 42.504 164.172 42.504 164.891 42.504 165.453 41.613 165.453 40.488 165.453 40.348 165.453 39.879 165.25 39.363 165.906 39.738 166.391 39.785 166.75 39.785 167.516 39.785 168.016 39.473 168.078 39.441H168.094L163.609 46.113C163.531 46.254 163.531 46.301 163.531 46.316 163.531 46.426 163.625 46.52 163.719 46.52 163.828 46.52 163.844 46.473 163.922 46.363ZM164.172 42.285C163.969 42.285 163.312 42.145 163.312 40.488 163.312 38.832 163.969 38.707 164.172 38.707 164.703 38.707 165.219 39.441 165.219 40.488 165.219 41.566 164.688 42.285 164.172 42.285ZM168.594 46.301C168.391 46.301 167.734 46.16 167.734 44.504 167.734 42.848 168.375 42.723 168.594 42.723 169.125 42.723 169.625 43.457 169.625 44.504 169.625 45.582 169.109 46.301 168.594 46.301ZM169.875 44.504C169.875 43.363 169.281 42.504 168.578 42.504 167.828 42.504 167.109 43.332 167.109 44.504 167.109 45.707 167.828 46.52 168.578 46.52 169.312 46.52 169.875 45.629 169.875 44.504ZM169.875 44.504"/>
<path d="M11.074 64.555C11.043 64.711 10.98 64.945 10.98 64.992 10.98 65.164 11.121 65.258 11.277 65.258 11.402 65.258 11.574 65.18 11.652 64.977 11.652 64.961 11.777 64.492 11.84 64.242L12.059 63.352C12.105 63.117 12.168 62.898 12.23 62.68 12.262 62.508 12.34 62.211 12.355 62.18 12.496 61.867 13.027 60.961 13.98 60.961 14.434 60.961 14.512 61.336 14.512 61.664 14.512 61.914 14.449 62.195 14.371 62.492L14.09 63.648 13.887 64.398C13.855 64.602 13.762 64.945 13.762 64.992 13.762 65.164 13.902 65.258 14.043 65.258 14.355 65.258 14.418 65.008 14.496 64.695 14.637 64.133 15.012 62.68 15.09 62.289 15.121 62.164 15.652 60.961 16.746 60.961 17.168 60.961 17.277 61.305 17.277 61.664 17.277 62.227 16.855 63.367 16.652 63.898 16.574 64.133 16.527 64.242 16.527 64.445 16.527 64.914 16.871 65.258 17.34 65.258 18.277 65.258 18.652 63.805 18.652 63.727 18.652 63.617 18.559 63.617 18.527 63.617 18.434 63.617 18.434 63.648 18.387 63.805 18.23 64.336 17.918 65.039 17.371 65.039 17.199 65.039 17.121 64.945 17.121 64.711 17.121 64.461 17.215 64.227 17.309 64.008 17.496 63.477 17.918 62.383 17.918 61.805 17.918 61.164 17.512 60.742 16.762 60.742 16.027 60.742 15.512 61.18 15.137 61.711 15.137 61.586 15.105 61.242 14.824 61.008 14.574 60.789 14.262 60.742 14.012 60.742 13.105 60.742 12.621 61.383 12.449 61.617 12.402 61.039 11.98 60.742 11.527 60.742 11.074 60.742 10.887 61.133 10.793 61.305 10.621 61.664 10.496 62.242 10.496 62.273 10.496 62.383 10.59 62.383 10.605 62.383 10.715 62.383 10.715 62.367 10.777 62.148 10.949 61.445 11.152 60.961 11.512 60.961 11.668 60.961 11.809 61.039 11.809 61.414 11.809 61.633 11.777 61.742 11.652 62.258ZM11.074 64.555"/>
<path d="M21.277 62.207C21.277 62.02 21.277 62.02 21.074 62.02 20.621 62.457 19.996 62.457 19.715 62.457V62.707C19.871 62.707 20.34 62.707 20.715 62.52V66.066C20.715 66.301 20.715 66.395 20.027 66.395H19.762V66.645C19.887 66.645 20.746 66.613 20.996 66.613 21.215 66.613 22.09 66.645 22.246 66.645V66.395H21.98C21.277 66.395 21.277 66.301 21.277 66.066ZM21.277 62.207"/>
<text fill="#2b0000" xml:space="preserve" transform="matrix(1 0 0 1 0 0)" font-size="11.000012" font-family="TimesNewRomanPSMT"><tspan y="65.70563" x="24.850184 30.19619">&#x043a;&#x0433;</tspan><tspan y="65.64852" x="95.69291 101.03892">&#x043a;&#x0433;</tspan></text>
<path d="M81.809 64.5C81.777 64.656 81.715 64.891 81.715 64.938 81.715 65.109 81.855 65.203 82.012 65.203 82.137 65.203 82.309 65.125 82.387 64.922 82.387 64.906 82.512 64.438 82.574 64.188L82.793 63.297C82.84 63.062 82.902 62.844 82.965 62.625 82.996 62.453 83.074 62.156 83.09 62.125 83.23 61.812 83.762 60.906 84.715 60.906 85.168 60.906 85.246 61.281 85.246 61.609 85.246 61.859 85.184 62.141 85.105 62.438L84.824 63.594 84.621 64.344C84.59 64.547 84.496 64.891 84.496 64.938 84.496 65.109 84.637 65.203 84.777 65.203 85.09 65.203 85.152 64.953 85.23 64.641 85.371 64.078 85.746 62.625 85.824 62.234 85.855 62.109 86.387 60.906 87.48 60.906 87.902 60.906 88.012 61.25 88.012 61.609 88.012 62.172 87.59 63.312 87.387 63.844 87.309 64.078 87.262 64.188 87.262 64.391 87.262 64.859 87.605 65.203 88.074 65.203 89.012 65.203 89.387 63.75 89.387 63.672 89.387 63.562 89.293 63.562 89.262 63.562 89.168 63.562 89.168 63.594 89.121 63.75 88.965 64.281 88.652 64.984 88.105 64.984 87.934 64.984 87.855 64.891 87.855 64.656 87.855 64.406 87.949 64.172 88.043 63.953 88.23 63.422 88.652 62.328 88.652 61.75 88.652 61.109 88.246 60.688 87.496 60.688 86.762 60.688 86.246 61.125 85.871 61.656 85.871 61.531 85.84 61.188 85.559 60.953 85.309 60.734 84.996 60.688 84.746 60.688 83.84 60.688 83.355 61.328 83.184 61.562 83.137 60.984 82.715 60.688 82.262 60.688 81.809 60.688 81.621 61.078 81.527 61.25 81.355 61.609 81.23 62.188 81.23 62.219 81.23 62.328 81.324 62.328 81.34 62.328 81.449 62.328 81.449 62.312 81.512 62.094 81.684 61.391 81.887 60.906 82.246 60.906 82.402 60.906 82.543 60.984 82.543 61.359 82.543 61.578 82.512 61.688 82.387 62.203ZM81.809 64.5"/>
<path d="M93.195 65.32H92.961C92.945 65.477 92.867 65.883 92.773 65.945 92.727 65.992 92.195 65.992 92.086 65.992H90.805C91.539 65.352 91.789 65.148 92.195 64.82 92.711 64.414 93.195 63.977 93.195 63.32 93.195 62.477 92.461 61.961 91.57 61.961 90.711 61.961 90.117 62.57 90.117 63.211 90.117 63.555 90.414 63.602 90.492 63.602 90.648 63.602 90.852 63.477 90.852 63.227 90.852 63.102 90.805 62.852 90.445 62.852 90.664 62.367 91.133 62.211 91.461 62.211 92.164 62.211 92.523 62.758 92.523 63.32 92.523 63.93 92.086 64.398 91.867 64.648L90.195 66.32C90.117 66.383 90.117 66.398 90.117 66.586H92.992ZM93.195 65.32"/>
<text fill="#2b0000" xml:space="preserve" transform="matrix(1 0 0 1 0 0)" font-size="11.000012" font-family="TimesNewRomanPSMT"><tspan y="65.10751" x="179.99703 185.34304">&#x043a;&#x0433;</tspan></text>
<path d="M138.789 64.254C138.758 64.41 138.695 64.645 138.695 64.691 138.695 64.863 138.836 64.957 138.992 64.957 139.117 64.957 139.289 64.879 139.367 64.676 139.367 64.66 139.492 64.191 139.555 63.941L139.773 63.051C139.82 62.816 139.883 62.598 139.945 62.379 139.977 62.207 140.055 61.91 140.07 61.879 140.211 61.566 140.742 60.66 141.695 60.66 142.148 60.66 142.227 61.035 142.227 61.363 142.227 61.613 142.164 61.895 142.086 62.191L141.805 63.348 141.602 64.098C141.57 64.301 141.477 64.645 141.477 64.691 141.477 64.863 141.617 64.957 141.758 64.957 142.07 64.957 142.133 64.707 142.211 64.395 142.352 63.832 142.727 62.379 142.805 61.988 142.836 61.863 143.367 60.66 144.461 60.66 144.883 60.66 144.992 61.004 144.992 61.363 144.992 61.926 144.57 63.066 144.367 63.598 144.289 63.832 144.242 63.941 144.242 64.145 144.242 64.613 144.586 64.957 145.055 64.957 145.992 64.957 146.367 63.504 146.367 63.426 146.367 63.316 146.273 63.316 146.242 63.316 146.148 63.316 146.148 63.348 146.102 63.504 145.945 64.035 145.633 64.738 145.086 64.738 144.914 64.738 144.836 64.645 144.836 64.41 144.836 64.16 144.93 63.926 145.023 63.707 145.211 63.176 145.633 62.082 145.633 61.504 145.633 60.863 145.227 60.441 144.477 60.441 143.742 60.441 143.227 60.879 142.852 61.41 142.852 61.285 142.82 60.941 142.539 60.707 142.289 60.488 141.977 60.441 141.727 60.441 140.82 60.441 140.336 61.082 140.164 61.316 140.117 60.738 139.695 60.441 139.242 60.441 138.789 60.441 138.602 60.832 138.508 61.004 138.336 61.363 138.211 61.941 138.211 61.973 138.211 62.082 138.305 62.082 138.32 62.082 138.43 62.082 138.43 62.066 138.492 61.848 138.664 61.145 138.867 60.66 139.227 60.66 139.383 60.66 139.523 60.738 139.523 61.113 139.523 61.332 139.492 61.441 139.367 61.957ZM138.789 64.254"/>
<path d="M148.988 61.906C148.988 61.719 148.988 61.719 148.785 61.719 148.332 62.156 147.707 62.156 147.426 62.156V62.406C147.582 62.406 148.051 62.406 148.426 62.219V65.766C148.426 66 148.426 66.094 147.738 66.094H147.473V66.344C147.598 66.344 148.457 66.312 148.707 66.312 148.926 66.312 149.801 66.344 149.957 66.344V66.094H149.691C148.988 66.094 148.988 66 148.988 65.766ZM148.988 61.906"/>
<path d="M157.422 62.551H160.203C160.344 62.551 160.531 62.551 160.531 62.348 160.531 62.16 160.344 62.16 160.203 62.16H157.422V59.363C157.422 59.223 157.422 59.035 157.219 59.035 157.016 59.035 157.016 59.223 157.016 59.363V62.16H154.234C154.094 62.16 153.906 62.16 153.906 62.348 153.906 62.551 154.094 62.551 154.234 62.551H157.016V65.348C157.016 65.488 157.016 65.676 157.219 65.676 157.422 65.676 157.422 65.488 157.422 65.348ZM157.422 62.551"/>
<path d="M164.184 64.254C164.152 64.41 164.09 64.645 164.09 64.691 164.09 64.863 164.23 64.957 164.387 64.957 164.512 64.957 164.684 64.879 164.762 64.676 164.762 64.66 164.887 64.191 164.949 63.941L165.168 63.051C165.215 62.816 165.277 62.598 165.34 62.379 165.371 62.207 165.449 61.91 165.465 61.879 165.605 61.566 166.137 60.66 167.09 60.66 167.543 60.66 167.621 61.035 167.621 61.363 167.621 61.613 167.559 61.895 167.48 62.191L167.199 63.348 166.996 64.098C166.965 64.301 166.871 64.645 166.871 64.691 166.871 64.863 167.012 64.957 167.152 64.957 167.465 64.957 167.527 64.707 167.605 64.395 167.746 63.832 168.121 62.379 168.199 61.988 168.23 61.863 168.762 60.66 169.855 60.66 170.277 60.66 170.387 61.004 170.387 61.363 170.387 61.926 169.965 63.066 169.762 63.598 169.684 63.832 169.637 63.941 169.637 64.145 169.637 64.613 169.98 64.957 170.449 64.957 171.387 64.957 171.762 63.504 171.762 63.426 171.762 63.316 171.668 63.316 171.637 63.316 171.543 63.316 171.543 63.348 171.496 63.504 171.34 64.035 171.027 64.738 170.48 64.738 170.309 64.738 170.23 64.645 170.23 64.41 170.23 64.16 170.324 63.926 170.418 63.707 170.605 63.176 171.027 62.082 171.027 61.504 171.027 60.863 170.621 60.441 169.871 60.441 169.137 60.441 168.621 60.879 168.246 61.41 168.246 61.285 168.215 60.941 167.934 60.707 167.684 60.488 167.371 60.441 167.121 60.441 166.215 60.441 165.73 61.082 165.559 61.316 165.512 60.738 165.09 60.441 164.637 60.441 164.184 60.441 163.996 60.832 163.902 61.004 163.73 61.363 163.605 61.941 163.605 61.973 163.605 62.082 163.699 62.082 163.715 62.082 163.824 62.082 163.824 62.066 163.887 61.848 164.059 61.145 164.262 60.66 164.621 60.66 164.777 60.66 164.918 60.738 164.918 61.113 164.918 61.332 164.887 61.441 164.762 61.957ZM164.184 64.254"/>
<path d="M175.57 65.078H175.336C175.32 65.234 175.242 65.641 175.148 65.703 175.102 65.75 174.57 65.75 174.461 65.75H173.18C173.914 65.109 174.164 64.906 174.57 64.578 175.086 64.172 175.57 63.734 175.57 63.078 175.57 62.234 174.836 61.719 173.945 61.719 173.086 61.719 172.492 62.328 172.492 62.969 172.492 63.312 172.789 63.359 172.867 63.359 173.023 63.359 173.227 63.234 173.227 62.984 173.227 62.859 173.18 62.609 172.82 62.609 173.039 62.125 173.508 61.969 173.836 61.969 174.539 61.969 174.898 62.516 174.898 63.078 174.898 63.688 174.461 64.156 174.242 64.406L172.57 66.078C172.492 66.141 172.492 66.156 172.492 66.344H175.367ZM175.57 65.078"/>
<path d="M57.562 27.879H60.344C60.484 27.879 60.672 27.879 60.672 27.676 60.672 27.488 60.484 27.488 60.344 27.488H57.562V24.691C57.562 24.551 57.562 24.363 57.359 24.363 57.156 24.363 57.156 24.551 57.156 24.691V27.488H54.375C54.234 27.488 54.047 27.488 54.047 27.676 54.047 27.879 54.234 27.879 54.375 27.879H57.156V30.676C57.156 30.816 57.156 31.004 57.359 31.004 57.562 31.004 57.562 30.816 57.562 30.676ZM57.562 27.879"/>
<path d="M131.484 26.477C131.641 26.477 131.828 26.477 131.828 26.289 131.828 26.086 131.641 26.086 131.5 26.086H125.531C125.391 26.086 125.203 26.086 125.203 26.289 125.203 26.477 125.391 26.477 125.531 26.477ZM131.5 28.414C131.641 28.414 131.828 28.414 131.828 28.211 131.828 28.023 131.641 28.023 131.484 28.023H125.531C125.391 28.023 125.203 28.023 125.203 28.211 125.203 28.414 125.391 28.414 125.531 28.414ZM131.5 28.414"/>
</g>
</svg>
