<svg width="28" height="28" viewBox="0 0 28 28" fill="none" xmlns="http://www.w3.org/2000/svg">
<path d="M1 1H27V27H1V1Z" fill="white"/>
<path d="M6.41667 20.5C6.41667 21.0746 6.64494 21.6257 7.05127 22.0321C7.4576 22.4384 8.0087 22.6667 8.58333 22.6667C9.15797 22.6667 9.70907 22.4384 10.1154 22.0321C10.5217 21.6257 10.75 21.0746 10.75 20.5C10.75 19.9254 10.5217 19.3743 10.1154 18.9679C9.70907 18.5616 9.15797 18.3333 8.58333 18.3333C8.0087 18.3333 7.4576 18.5616 7.05127 18.9679C6.64494 19.3743 6.41667 19.9254 6.41667 20.5Z" fill="white"/>
<path d="M6.41667 7.5C6.41667 8.07464 6.64494 8.62574 7.05127 9.03207C7.4576 9.43839 8.0087 9.66667 8.58333 9.66667C9.15797 9.66667 9.70907 9.43839 10.1154 9.03207C10.5217 8.62574 10.75 8.07464 10.75 7.5C10.75 6.92536 10.5217 6.37426 10.1154 5.96794C9.70907 5.56161 9.15797 5.33333 8.58333 5.33333C8.0087 5.33333 7.4576 5.56161 7.05127 5.96794C6.64494 6.37426 6.41667 6.92536 6.41667 7.5Z" fill="white"/>
<path d="M17.25 7.5C17.25 8.07464 17.4783 8.62574 17.8846 9.03207C18.2909 9.43839 18.842 9.66667 19.4167 9.66667C19.9913 9.66667 20.5424 9.43839 20.9487 9.03207C21.3551 8.62574 21.5833 8.07464 21.5833 7.5C21.5833 6.92536 21.3551 6.37426 20.9487 5.96794C20.5424 5.56161 19.9913 5.33333 19.4167 5.33333C18.842 5.33333 18.2909 5.56161 17.8846 5.96794C17.4783 6.37426 17.25 6.92536 17.25 7.5Z" fill="white"/>
<path d="M8.58333 9.66667V18.3333Z" fill="white"/>
<path d="M10.75 20.5H17.25C17.8246 20.5 18.3757 20.2717 18.7821 19.8654C19.1884 19.4591 19.4167 18.908 19.4167 18.3333V12.9167" fill="white"/>
<path d="M16.1667 16.1667L19.4167 12.9167L22.6667 16.1667" fill="white"/>
<path d="M1 1V0.5H0.5V1H1ZM27 1H27.5V0.5H27V1ZM27 27V27.5H27.5V27H27ZM1 27H0.5V27.5H1V27ZM6.41667 20.5H5.91667H6.41667ZM8.58333 18.3333L8.58333 18.8333L8.58333 18.3333ZM6.41667 7.5L5.91667 7.5L6.41667 7.5ZM8.58333 5.33333L8.58333 4.83333L8.58333 5.33333ZM19.4167 9.66667V10.1667V9.66667ZM19.4167 5.33333V4.83333V5.33333ZM19.4167 12.9167L19.7702 12.5631C19.575 12.3679 19.2584 12.3679 19.0631 12.5631L19.4167 12.9167ZM15.8131 15.8131L15.4596 16.1667L16.1667 16.8738L16.5202 16.5202L15.8131 15.8131ZM22.3131 16.5202L22.6667 16.8738L23.3738 16.1667L23.0202 15.8131L22.3131 16.5202ZM1 1.5H27V0.5H1V1.5ZM26.5 1V27H27.5V1H26.5ZM27 26.5H1V27.5H27V26.5ZM1.5 27V1H0.5V27H1.5ZM5.91667 20.5C5.91667 21.2072 6.19762 21.8855 6.69772 22.3856L7.40482 21.6785C7.09226 21.366 6.91667 20.942 6.91667 20.5H5.91667ZM6.69772 22.3856C7.19781 22.8857 7.87609 23.1667 8.58333 23.1667V22.1667C8.14131 22.1667 7.71738 21.9911 7.40482 21.6785L6.69772 22.3856ZM8.58333 23.1667C9.29058 23.1667 9.96885 22.8857 10.469 22.3856L9.76184 21.6785C9.44928 21.9911 9.02536 22.1667 8.58333 22.1667V23.1667ZM10.469 22.3856C10.969 21.8855 11.25 21.2072 11.25 20.5H10.25C10.25 20.942 10.0744 21.366 9.76184 21.6785L10.469 22.3856ZM11.25 20.5C11.25 19.7928 10.969 19.1145 10.469 18.6144L9.76184 19.3215C10.0744 19.6341 10.25 20.058 10.25 20.5H11.25ZM10.469 18.6144C9.96885 18.1143 9.29058 17.8333 8.58333 17.8333L8.58333 18.8333C9.02536 18.8333 9.44928 19.0089 9.76184 19.3215L10.469 18.6144ZM8.58333 17.8333C7.87609 17.8333 7.19781 18.1143 6.69772 18.6144L7.40482 19.3215C7.71738 19.0089 8.14131 18.8333 8.58333 18.8333L8.58333 17.8333ZM6.69772 18.6144C6.19762 19.1145 5.91667 19.7928 5.91667 20.5H6.91667C6.91667 20.058 7.09226 19.6341 7.40482 19.3215L6.69772 18.6144ZM5.91667 7.5C5.91667 8.20724 6.19762 8.88552 6.69772 9.38562L7.40482 8.67851C7.09226 8.36595 6.91667 7.94203 6.91667 7.5L5.91667 7.5ZM6.69772 9.38562C7.19781 9.88572 7.87609 10.1667 8.58333 10.1667L8.58333 9.16667C8.14131 9.16667 7.71738 8.99107 7.40482 8.67851L6.69772 9.38562ZM8.58333 10.1667C9.29058 10.1667 9.96885 9.88572 10.469 9.38562L9.76184 8.67851C9.44928 8.99107 9.02536 9.16667 8.58333 9.16667L8.58333 10.1667ZM10.469 9.38562C10.969 8.88552 11.25 8.20724 11.25 7.5H10.25C10.25 7.94203 10.0744 8.36595 9.76184 8.67851L10.469 9.38562ZM11.25 7.5C11.25 6.79276 10.969 6.11448 10.469 5.61438L9.76184 6.32149C10.0744 6.63405 10.25 7.05797 10.25 7.5H11.25ZM10.469 5.61438C9.96885 5.11429 9.29058 4.83333 8.58333 4.83333L8.58333 5.83333C9.02536 5.83333 9.44928 6.00893 9.76184 6.32149L10.469 5.61438ZM8.58333 4.83333C7.87609 4.83333 7.19781 5.11428 6.69772 5.61438L7.40482 6.32149C7.71738 6.00893 8.14131 5.83333 8.58333 5.83333L8.58333 4.83333ZM6.69772 5.61438C6.19762 6.11448 5.91667 6.79276 5.91667 7.5L6.91667 7.5C6.91667 7.05797 7.09226 6.63405 7.40482 6.32149L6.69772 5.61438ZM16.75 7.5C16.75 8.20724 17.031 8.88552 17.531 9.38562L18.2382 8.67851C17.9256 8.36595 17.75 7.94203 17.75 7.5H16.75ZM17.531 9.38562C18.0311 9.88572 18.7094 10.1667 19.4167 10.1667V9.16667C18.9746 9.16667 18.5507 8.99107 18.2382 8.67851L17.531 9.38562ZM19.4167 10.1667C20.1239 10.1667 20.8022 9.88572 21.3023 9.38562L20.5952 8.67851C20.2826 8.99107 19.8587 9.16667 19.4167 9.16667V10.1667ZM21.3023 9.38562C21.8024 8.88552 22.0833 8.20724 22.0833 7.5H21.0833C21.0833 7.94203 20.9077 8.36595 20.5952 8.67851L21.3023 9.38562ZM22.0833 7.5C22.0833 6.79276 21.8024 6.11448 21.3023 5.61438L20.5952 6.32149C20.9077 6.63405 21.0833 7.05797 21.0833 7.5H22.0833ZM21.3023 5.61438C20.8022 5.11429 20.1239 4.83333 19.4167 4.83333V5.83333C19.8587 5.83333 20.2826 6.00893 20.5952 6.32149L21.3023 5.61438ZM19.4167 4.83333C18.7094 4.83333 18.0311 5.11429 17.531 5.61438L18.2382 6.32149C18.5507 6.00893 18.9746 5.83333 19.4167 5.83333V4.83333ZM17.531 5.61438C17.031 6.11448 16.75 6.79276 16.75 7.5H17.75C17.75 7.05797 17.9256 6.63405 18.2382 6.32149L17.531 5.61438ZM8.08333 9.66667V18.3333H9.08333V9.66667H8.08333ZM10.75 21H17.25V20H10.75V21ZM17.25 21C17.9572 21 18.6355 20.719 19.1356 20.219L18.4285 19.5118C18.116 19.8244 17.692 20 17.25 20V21ZM19.1356 20.219C19.6357 19.7189 19.9167 19.0406 19.9167 18.3333H18.9167C18.9167 18.7754 18.7411 19.1993 18.4285 19.5118L19.1356 20.219ZM19.9167 18.3333V12.9167H18.9167V18.3333H19.9167ZM16.5202 16.5202L19.7702 13.2702L19.0631 12.5631L15.8131 15.8131L16.5202 16.5202ZM19.0631 13.2702L22.3131 16.5202L23.0202 15.8131L19.7702 12.5631L19.0631 13.2702Z" fill="#222222"/>
</svg>
