<svg width="296" height="150" viewBox="0 0 296 150" fill="none" xmlns="http://www.w3.org/2000/svg">
<rect x="1" y="1" width="294" height="148" fill="#91C8E4" stroke="black" stroke-width="2"/>
<rect x="117" y="111" width="178" height="38" fill="white"/>
<rect x="117" y="111" width="178" height="38" stroke="black" stroke-width="2"/>
<path d="M124.685 136H123.208L127.48 124.364H128.935L133.208 136H131.73L128.253 126.205H128.162L124.685 136ZM125.23 131.455H131.185V132.705H125.23V131.455ZM134.534 136V127.273H138.102C139.042 127.273 139.788 127.485 140.341 127.909C140.894 128.333 141.171 128.894 141.171 129.591C141.171 130.121 141.013 130.532 140.699 130.824C140.385 131.112 139.981 131.307 139.489 131.409C139.811 131.455 140.123 131.568 140.426 131.75C140.733 131.932 140.987 132.182 141.188 132.5C141.388 132.814 141.489 133.201 141.489 133.659C141.489 134.106 141.375 134.506 141.148 134.858C140.921 135.21 140.595 135.489 140.171 135.693C139.746 135.898 139.239 136 138.648 136H134.534ZM135.807 134.773H138.648C139.11 134.773 139.472 134.663 139.733 134.443C139.995 134.223 140.125 133.924 140.125 133.545C140.125 133.095 139.995 132.741 139.733 132.483C139.472 132.222 139.11 132.091 138.648 132.091H135.807V134.773ZM135.807 130.932H138.102C138.462 130.932 138.771 130.883 139.029 130.784C139.286 130.682 139.483 130.538 139.62 130.352C139.76 130.163 139.83 129.939 139.83 129.682C139.83 129.314 139.676 129.027 139.37 128.818C139.063 128.606 138.64 128.5 138.102 128.5H135.807V130.932ZM142.715 128.523V127.273H149.806V128.523H146.942V136H145.601V128.523H142.715ZM154.55 136.182C153.762 136.182 153.071 135.994 152.476 135.619C151.885 135.244 151.423 134.72 151.09 134.045C150.76 133.371 150.595 132.583 150.595 131.682C150.595 130.773 150.76 129.979 151.09 129.301C151.423 128.623 151.885 128.097 152.476 127.722C153.071 127.347 153.762 127.159 154.55 127.159C155.338 127.159 156.027 127.347 156.618 127.722C157.213 128.097 157.675 128.623 158.004 129.301C158.338 129.979 158.504 130.773 158.504 131.682C158.504 132.583 158.338 133.371 158.004 134.045C157.675 134.72 157.213 135.244 156.618 135.619C156.027 135.994 155.338 136.182 154.55 136.182ZM154.55 134.977C155.148 134.977 155.641 134.824 156.027 134.517C156.413 134.21 156.699 133.807 156.885 133.307C157.071 132.807 157.163 132.265 157.163 131.682C157.163 131.098 157.071 130.555 156.885 130.051C156.699 129.547 156.413 129.14 156.027 128.83C155.641 128.519 155.148 128.364 154.55 128.364C153.951 128.364 153.459 128.519 153.073 128.83C152.686 129.14 152.4 129.547 152.215 130.051C152.029 130.555 151.936 131.098 151.936 131.682C151.936 132.265 152.029 132.807 152.215 133.307C152.4 133.807 152.686 134.21 153.073 134.517C153.459 134.824 153.951 134.977 154.55 134.977ZM160.247 139.273V127.273H161.543V128.659H161.702C161.8 128.508 161.937 128.314 162.111 128.08C162.289 127.841 162.543 127.629 162.872 127.443C163.206 127.254 163.656 127.159 164.225 127.159C164.959 127.159 165.607 127.343 166.168 127.71C166.728 128.078 167.166 128.598 167.48 129.273C167.795 129.947 167.952 130.742 167.952 131.659C167.952 132.583 167.795 133.384 167.48 134.062C167.166 134.737 166.73 135.259 166.173 135.631C165.617 135.998 164.975 136.182 164.247 136.182C163.687 136.182 163.238 136.089 162.901 135.903C162.564 135.714 162.304 135.5 162.122 135.261C161.94 135.019 161.8 134.818 161.702 134.659H161.588V139.273H160.247ZM161.565 131.636C161.565 132.295 161.662 132.877 161.855 133.381C162.048 133.881 162.331 134.273 162.702 134.557C163.073 134.837 163.528 134.977 164.065 134.977C164.626 134.977 165.094 134.83 165.469 134.534C165.848 134.235 166.132 133.833 166.321 133.33C166.514 132.822 166.611 132.258 166.611 131.636C166.611 131.023 166.516 130.47 166.327 129.977C166.141 129.481 165.859 129.089 165.48 128.801C165.105 128.509 164.634 128.364 164.065 128.364C163.52 128.364 163.062 128.502 162.69 128.778C162.319 129.051 162.039 129.434 161.85 129.926C161.66 130.415 161.565 130.985 161.565 131.636ZM173.239 136.182C172.421 136.182 171.716 135.989 171.125 135.602C170.534 135.216 170.08 134.684 169.761 134.006C169.443 133.328 169.284 132.553 169.284 131.682C169.284 130.795 169.447 130.013 169.773 129.335C170.102 128.653 170.561 128.121 171.148 127.739C171.739 127.352 172.428 127.159 173.216 127.159C173.83 127.159 174.383 127.273 174.875 127.5C175.368 127.727 175.771 128.045 176.085 128.455C176.4 128.864 176.595 129.341 176.671 129.886H175.33C175.227 129.489 175 129.136 174.648 128.83C174.299 128.519 173.83 128.364 173.239 128.364C172.716 128.364 172.258 128.5 171.864 128.773C171.474 129.042 171.169 129.422 170.949 129.915C170.733 130.403 170.625 130.977 170.625 131.636C170.625 132.311 170.731 132.898 170.943 133.398C171.159 133.898 171.462 134.286 171.852 134.562C172.246 134.839 172.708 134.977 173.239 134.977C173.587 134.977 173.903 134.917 174.188 134.795C174.472 134.674 174.712 134.5 174.909 134.273C175.106 134.045 175.246 133.773 175.33 133.455H176.671C176.595 133.97 176.407 134.434 176.108 134.847C175.813 135.256 175.421 135.581 174.932 135.824C174.447 136.062 173.883 136.182 173.239 136.182ZM178.327 136V127.273H179.668V131.068H180.554L183.69 127.273H185.418L181.895 131.477L185.463 136H183.736L180.872 132.318H179.668V136H178.327ZM187.957 134.023L192.162 127.273H193.707V136H192.367V129.25L188.185 136H186.617V127.273H187.957V134.023ZM199.518 136.182C198.678 136.182 197.952 135.996 197.342 135.625C196.736 135.25 196.268 134.727 195.939 134.057C195.613 133.383 195.45 132.598 195.45 131.705C195.45 130.811 195.613 130.023 195.939 129.341C196.268 128.655 196.727 128.121 197.314 127.739C197.905 127.352 198.594 127.159 199.382 127.159C199.837 127.159 200.286 127.235 200.729 127.386C201.172 127.538 201.575 127.784 201.939 128.125C202.303 128.462 202.592 128.909 202.808 129.466C203.024 130.023 203.132 130.708 203.132 131.523V132.091H196.405V130.932H201.768C201.768 130.439 201.67 130 201.473 129.614C201.28 129.227 201.003 128.922 200.643 128.699C200.287 128.475 199.867 128.364 199.382 128.364C198.848 128.364 198.386 128.496 197.996 128.761C197.609 129.023 197.312 129.364 197.104 129.784C196.895 130.205 196.791 130.655 196.791 131.136V131.909C196.791 132.568 196.905 133.127 197.132 133.585C197.363 134.04 197.683 134.386 198.092 134.625C198.501 134.86 198.977 134.977 199.518 134.977C199.871 134.977 200.189 134.928 200.473 134.83C200.761 134.727 201.009 134.576 201.217 134.375C201.426 134.17 201.587 133.917 201.7 133.614L202.996 133.977C202.859 134.417 202.63 134.803 202.308 135.136C201.986 135.466 201.589 135.723 201.115 135.909C200.642 136.091 200.109 136.182 199.518 136.182ZM209.064 136V127.273H210.405V131.068H211.291L214.428 127.273H216.155L212.632 131.477L216.2 136H214.473L211.609 132.318H210.405V136H209.064ZM220.54 136.182C219.752 136.182 219.061 135.994 218.466 135.619C217.875 135.244 217.413 134.72 217.079 134.045C216.75 133.371 216.585 132.583 216.585 131.682C216.585 130.773 216.75 129.979 217.079 129.301C217.413 128.623 217.875 128.097 218.466 127.722C219.061 127.347 219.752 127.159 220.54 127.159C221.328 127.159 222.017 127.347 222.608 127.722C223.203 128.097 223.665 128.623 223.994 129.301C224.328 129.979 224.494 130.773 224.494 131.682C224.494 132.583 224.328 133.371 223.994 134.045C223.665 134.72 223.203 135.244 222.608 135.619C222.017 135.994 221.328 136.182 220.54 136.182ZM220.54 134.977C221.138 134.977 221.631 134.824 222.017 134.517C222.403 134.21 222.689 133.807 222.875 133.307C223.061 132.807 223.153 132.265 223.153 131.682C223.153 131.098 223.061 130.555 222.875 130.051C222.689 129.547 222.403 129.14 222.017 128.83C221.631 128.519 221.138 128.364 220.54 128.364C219.941 128.364 219.449 128.519 219.062 128.83C218.676 129.14 218.39 129.547 218.204 130.051C218.019 130.555 217.926 131.098 217.926 131.682C217.926 132.265 218.019 132.807 218.204 133.307C218.39 133.807 218.676 134.21 219.062 134.517C219.449 134.824 219.941 134.977 220.54 134.977ZM232.078 131.023V132.273H227.26V131.023H232.078ZM227.578 127.273V136H226.237V127.273H227.578ZM233.101 127.273V136H231.76V127.273H233.101ZM238.791 136.182C237.973 136.182 237.268 135.989 236.677 135.602C236.087 135.216 235.632 134.684 235.314 134.006C234.996 133.328 234.837 132.553 234.837 131.682C234.837 130.795 234.999 130.013 235.325 129.335C235.655 128.653 236.113 128.121 236.7 127.739C237.291 127.352 237.98 127.159 238.768 127.159C239.382 127.159 239.935 127.273 240.427 127.5C240.92 127.727 241.323 128.045 241.638 128.455C241.952 128.864 242.147 129.341 242.223 129.886H240.882C240.78 129.489 240.552 129.136 240.2 128.83C239.852 128.519 239.382 128.364 238.791 128.364C238.268 128.364 237.81 128.5 237.416 128.773C237.026 129.042 236.721 129.422 236.501 129.915C236.285 130.403 236.177 130.977 236.177 131.636C236.177 132.311 236.284 132.898 236.496 133.398C236.712 133.898 237.015 134.286 237.405 134.562C237.799 134.839 238.261 134.977 238.791 134.977C239.14 134.977 239.456 134.917 239.74 134.795C240.024 134.674 240.265 134.5 240.462 134.273C240.659 134.045 240.799 133.773 240.882 133.455H242.223C242.147 133.97 241.96 134.434 241.66 134.847C241.365 135.256 240.973 135.581 240.484 135.824C239.999 136.062 239.435 136.182 238.791 136.182ZM243.879 136V127.273H250.743V136H249.402V128.523H245.22V136H243.879ZM256.547 136.182C255.706 136.182 254.98 135.996 254.371 135.625C253.765 135.25 253.297 134.727 252.967 134.057C252.641 133.383 252.479 132.598 252.479 131.705C252.479 130.811 252.641 130.023 252.967 129.341C253.297 128.655 253.755 128.121 254.342 127.739C254.933 127.352 255.622 127.159 256.41 127.159C256.865 127.159 257.314 127.235 257.757 127.386C258.2 127.538 258.604 127.784 258.967 128.125C259.331 128.462 259.621 128.909 259.837 129.466C260.052 130.023 260.16 130.708 260.16 131.523V132.091H253.433V130.932H258.797C258.797 130.439 258.698 130 258.501 129.614C258.308 129.227 258.032 128.922 257.672 128.699C257.316 128.475 256.895 128.364 256.41 128.364C255.876 128.364 255.414 128.496 255.024 128.761C254.638 129.023 254.34 129.364 254.132 129.784C253.924 130.205 253.819 130.655 253.819 131.136V131.909C253.819 132.568 253.933 133.127 254.16 133.585C254.391 134.04 254.712 134.386 255.121 134.625C255.53 134.86 256.005 134.977 256.547 134.977C256.899 134.977 257.217 134.928 257.501 134.83C257.789 134.727 258.037 134.576 258.246 134.375C258.454 134.17 258.615 133.917 258.729 133.614L260.024 133.977C259.888 134.417 259.658 134.803 259.337 135.136C259.015 135.466 258.617 135.723 258.143 135.909C257.67 136.091 257.138 136.182 256.547 136.182ZM261.896 136V127.273H263.237V131.068H264.123L267.26 127.273H268.987L265.464 131.477L269.033 136H267.305L264.442 132.318H263.237V136H261.896ZM269.686 128.523V127.273H276.777V128.523H273.913V136H272.572V128.523H269.686ZM279.588 130.432H282.088C283.111 130.432 283.893 130.691 284.434 131.21C284.976 131.729 285.247 132.386 285.247 133.182C285.247 133.705 285.126 134.18 284.883 134.608C284.641 135.032 284.285 135.371 283.815 135.625C283.345 135.875 282.77 136 282.088 136H278.429V127.273H279.77V134.75H282.088C282.618 134.75 283.054 134.61 283.395 134.33C283.736 134.049 283.906 133.689 283.906 133.25C283.906 132.788 283.736 132.411 283.395 132.119C283.054 131.828 282.618 131.682 282.088 131.682H279.588V130.432ZM286.633 136V127.273H287.974V136H286.633Z" fill="black" fill-opacity="0.8"/>
<path d="M158.657 45L166.691 21.7273H173.032L181.055 45H158.657ZM165.225 40.9432H174.498L169.952 27.0455H169.771L165.225 40.9432ZM187.515 45H182.242L190.277 21.7273H196.617L204.64 45H199.367L193.538 27.0455H193.356L187.515 45ZM187.186 35.8523H199.64V39.6932H187.186V35.8523ZM203.359 25.7841V21.7273H222.473V25.7841H215.348V45H210.484V25.7841H203.359ZM226.436 45H221.163L229.198 21.7273H235.538L243.561 45H238.288L232.459 27.0455H232.277L226.436 45ZM226.107 35.8523H238.561V39.6932H226.107V35.8523ZM248.749 45.2955C247.999 45.2955 247.355 45.0303 246.817 44.5C246.287 43.9621 246.022 43.3182 246.022 42.5682C246.022 41.8258 246.287 41.1894 246.817 40.6591C247.355 40.1288 247.999 39.8636 248.749 39.8636C249.476 39.8636 250.113 40.1288 250.658 40.6591C251.204 41.1894 251.476 41.8258 251.476 42.5682C251.476 43.0682 251.347 43.5265 251.09 43.9432C250.84 44.3523 250.51 44.6818 250.101 44.9318C249.692 45.1742 249.241 45.2955 248.749 45.2955ZM259.394 21.7273L265.019 39.4091H265.235L270.871 21.7273H276.326L268.303 45H261.962L253.928 21.7273H259.394Z" fill="black" fill-opacity="0.8"/>
<rect x="1" y="111" width="116" height="38" fill="white"/>
<rect x="1" y="111" width="116" height="38" stroke="black" stroke-width="2"/>
<path d="M9.37015 136V124.364H13.302C14.2149 124.364 14.9611 124.528 15.5406 124.858C16.1239 125.184 16.5558 125.625 16.8361 126.182C17.1164 126.739 17.2565 127.36 17.2565 128.045C17.2565 128.731 17.1164 129.354 16.8361 129.915C16.5595 130.475 16.1315 130.922 15.552 131.256C14.9724 131.585 14.23 131.75 13.3247 131.75H10.5065V130.5H13.2792C13.9042 130.5 14.4061 130.392 14.7849 130.176C15.1637 129.96 15.4383 129.669 15.6088 129.301C15.783 128.93 15.8702 128.511 15.8702 128.045C15.8702 127.58 15.783 127.163 15.6088 126.795C15.4383 126.428 15.1618 126.14 14.7792 125.932C14.3967 125.72 13.8891 125.614 13.2565 125.614H10.7792V136H9.37015ZM21.6088 136.205C21.0557 136.205 20.5538 136.1 20.1031 135.892C19.6523 135.68 19.2944 135.375 19.0292 134.977C18.7641 134.576 18.6315 134.091 18.6315 133.523C18.6315 133.023 18.73 132.617 18.9269 132.307C19.1239 131.992 19.3872 131.746 19.7167 131.568C20.0463 131.39 20.4099 131.258 20.8076 131.17C21.2091 131.08 21.6126 131.008 22.0179 130.955C22.5482 130.886 22.9781 130.835 23.3076 130.801C23.641 130.763 23.8834 130.701 24.0349 130.614C24.1902 130.527 24.2679 130.375 24.2679 130.159V130.114C24.2679 129.553 24.1144 129.117 23.8076 128.807C23.5046 128.496 23.0444 128.341 22.4269 128.341C21.7868 128.341 21.2849 128.481 20.9213 128.761C20.5576 129.042 20.3019 129.341 20.1542 129.659L18.8815 129.205C19.1088 128.674 19.4118 128.261 19.7906 127.966C20.1732 127.667 20.5898 127.458 21.0406 127.341C21.4951 127.22 21.9421 127.159 22.3815 127.159C22.6618 127.159 22.9838 127.193 23.3474 127.261C23.7148 127.326 24.069 127.46 24.4099 127.665C24.7546 127.869 25.0406 128.178 25.2679 128.591C25.4951 129.004 25.6088 129.557 25.6088 130.25V136H24.2679V134.818H24.1997C24.1088 135.008 23.9573 135.21 23.7451 135.426C23.533 135.642 23.2508 135.826 22.8985 135.977C22.5463 136.129 22.1163 136.205 21.6088 136.205ZM21.8133 135C22.3436 135 22.7906 134.896 23.1542 134.688C23.5216 134.479 23.7982 134.21 23.9838 133.881C24.1732 133.551 24.2679 133.205 24.2679 132.841V131.614C24.211 131.682 24.086 131.744 23.8929 131.801C23.7035 131.854 23.4838 131.902 23.2338 131.943C22.9876 131.981 22.747 132.015 22.5122 132.045C22.2811 132.072 22.0936 132.095 21.9497 132.114C21.6012 132.159 21.2754 132.233 20.9724 132.335C20.6732 132.434 20.4307 132.583 20.2451 132.784C20.0633 132.981 19.9724 133.25 19.9724 133.591C19.9724 134.057 20.1448 134.409 20.4894 134.648C20.8379 134.883 21.2792 135 21.8133 135ZM27.2068 133.773H28.6386C28.6689 134.167 28.8469 134.466 29.1727 134.67C29.5022 134.875 29.9302 134.977 30.4568 134.977C30.9946 134.977 31.4549 134.867 31.8374 134.648C32.22 134.424 32.4113 134.064 32.4113 133.568C32.4113 133.277 32.3393 133.023 32.1954 132.807C32.0515 132.587 31.8488 132.417 31.5874 132.295C31.3261 132.174 31.0174 132.114 30.6613 132.114H29.1613V130.909H30.6613C31.1954 130.909 31.5893 130.788 31.8431 130.545C32.1007 130.303 32.2295 130 32.2295 129.636C32.2295 129.246 32.0912 128.934 31.8147 128.699C31.5382 128.46 31.1462 128.341 30.6386 128.341C30.1272 128.341 29.7011 128.456 29.3602 128.688C29.0193 128.915 28.8393 129.208 28.8204 129.568H27.4113C27.4265 129.098 27.5704 128.684 27.8431 128.324C28.1158 127.96 28.4871 127.676 28.9568 127.472C29.4265 127.263 29.9643 127.159 30.5704 127.159C31.184 127.159 31.7162 127.267 32.167 127.483C32.6215 127.695 32.9719 127.985 33.2181 128.352C33.4681 128.716 33.5931 129.129 33.5931 129.591C33.5931 130.083 33.4549 130.481 33.1783 130.784C32.9018 131.087 32.5552 131.303 32.1386 131.432V131.523C32.4681 131.545 32.7541 131.652 32.9965 131.841C33.2427 132.027 33.434 132.271 33.5704 132.574C33.7068 132.873 33.7749 133.205 33.7749 133.568C33.7749 134.098 33.6329 134.561 33.3488 134.955C33.0647 135.345 32.6746 135.648 32.1783 135.864C31.6821 136.076 31.1158 136.182 30.4795 136.182C29.8621 136.182 29.309 136.081 28.8204 135.881C28.3318 135.676 27.9435 135.394 27.6556 135.034C27.3715 134.67 27.2219 134.25 27.2068 133.773ZM41.8317 124L42.5136 124.818C42.2484 125.076 41.9416 125.256 41.5931 125.358C41.2446 125.46 40.8507 125.523 40.4113 125.545C39.9719 125.568 39.4832 125.591 38.9454 125.614C38.3393 125.636 37.8374 125.784 37.4397 126.057C37.042 126.33 36.7351 126.723 36.5192 127.239C36.3033 127.754 36.1651 128.386 36.1045 129.136H36.2181C36.5136 128.591 36.9226 128.189 37.4454 127.932C37.9681 127.674 38.5287 127.545 39.1272 127.545C39.809 127.545 40.4226 127.705 40.9681 128.023C41.5136 128.341 41.9454 128.812 42.2636 129.438C42.5817 130.062 42.7408 130.833 42.7408 131.75C42.7408 132.663 42.5779 133.451 42.2522 134.114C41.9302 134.777 41.4776 135.288 40.8942 135.648C40.3147 136.004 39.6348 136.182 38.8545 136.182C38.0742 136.182 37.3904 135.998 36.8033 135.631C36.2162 135.259 35.7598 134.71 35.434 133.983C35.1082 133.252 34.9454 132.348 34.9454 131.273V130.341C34.9454 128.398 35.2749 126.924 35.934 125.92C36.5969 124.917 37.5931 124.398 38.9226 124.364C39.3923 124.348 39.8109 124.345 40.1783 124.352C40.5457 124.36 40.8658 124.343 41.1386 124.301C41.4113 124.259 41.6423 124.159 41.8317 124ZM38.8545 134.977C39.381 134.977 39.8336 134.845 40.2124 134.58C40.595 134.314 40.8886 133.941 41.0931 133.46C41.2976 132.975 41.3999 132.405 41.3999 131.75C41.3999 131.114 41.2957 130.572 41.0874 130.125C40.8829 129.678 40.5893 129.337 40.2067 129.102C39.8242 128.867 39.3658 128.75 38.8317 128.75C38.4416 128.75 38.0912 128.816 37.7806 128.949C37.47 129.081 37.2048 129.277 36.9851 129.534C36.7654 129.792 36.595 130.106 36.4738 130.477C36.3564 130.848 36.2939 131.273 36.2863 131.75C36.2863 132.727 36.5154 133.509 36.9738 134.097C37.4321 134.684 38.059 134.977 38.8545 134.977ZM48.0334 136.182C47.2455 136.182 46.5542 135.994 45.9596 135.619C45.3686 135.244 44.9065 134.72 44.5732 134.045C44.2436 133.371 44.0789 132.583 44.0789 131.682C44.0789 130.773 44.2436 129.979 44.5732 129.301C44.9065 128.623 45.3686 128.097 45.9596 127.722C46.5542 127.347 47.2455 127.159 48.0334 127.159C48.8213 127.159 49.5107 127.347 50.1016 127.722C50.6963 128.097 51.1584 128.623 51.488 129.301C51.8213 129.979 51.988 130.773 51.988 131.682C51.988 132.583 51.8213 133.371 51.488 134.045C51.1584 134.72 50.6963 135.244 50.1016 135.619C49.5107 135.994 48.8213 136.182 48.0334 136.182ZM48.0334 134.977C48.6319 134.977 49.1243 134.824 49.5107 134.517C49.8971 134.21 50.183 133.807 50.3686 133.307C50.5542 132.807 50.6471 132.265 50.6471 131.682C50.6471 131.098 50.5542 130.555 50.3686 130.051C50.183 129.547 49.8971 129.14 49.5107 128.83C49.1243 128.519 48.6319 128.364 48.0334 128.364C47.4349 128.364 46.9425 128.519 46.5561 128.83C46.1698 129.14 45.8838 129.547 45.6982 130.051C45.5126 130.555 45.4198 131.098 45.4198 131.682C45.4198 132.265 45.5126 132.807 45.6982 133.307C45.8838 133.807 46.1698 134.21 46.5561 134.517C46.9425 134.824 47.4349 134.977 48.0334 134.977ZM53.7308 139.273V127.273H55.0263V128.659H55.1854C55.2839 128.508 55.4202 128.314 55.5945 128.08C55.7725 127.841 56.0263 127.629 56.3558 127.443C56.6892 127.254 57.1399 127.159 57.7081 127.159C58.443 127.159 59.0907 127.343 59.6513 127.71C60.2119 128.078 60.6494 128.598 60.9638 129.273C61.2782 129.947 61.4354 130.742 61.4354 131.659C61.4354 132.583 61.2782 133.384 60.9638 134.062C60.6494 134.737 60.2138 135.259 59.657 135.631C59.1002 135.998 58.4581 136.182 57.7308 136.182C57.1702 136.182 56.7214 136.089 56.3842 135.903C56.0471 135.714 55.7877 135.5 55.6058 135.261C55.424 135.019 55.2839 134.818 55.1854 134.659H55.0717V139.273H53.7308ZM55.049 131.636C55.049 132.295 55.1456 132.877 55.3388 133.381C55.532 133.881 55.8142 134.273 56.1854 134.557C56.5566 134.837 57.0111 134.977 57.549 134.977C58.1096 134.977 58.5774 134.83 58.9524 134.534C59.3312 134.235 59.6153 133.833 59.8047 133.33C59.9979 132.822 60.0945 132.258 60.0945 131.636C60.0945 131.023 59.9998 130.47 59.8104 129.977C59.6248 129.481 59.3426 129.089 58.9638 128.801C58.5888 128.509 58.1172 128.364 57.549 128.364C57.0036 128.364 56.5452 128.502 56.174 128.778C55.8028 129.051 55.5225 129.434 55.3331 129.926C55.1437 130.415 55.049 130.985 55.049 131.636ZM66.8274 133.773H68.2592C68.2895 134.167 68.4675 134.466 68.7933 134.67C69.1228 134.875 69.5509 134.977 70.0774 134.977C70.6153 134.977 71.0755 134.867 71.4581 134.648C71.8406 134.424 72.0319 134.064 72.0319 133.568C72.0319 133.277 71.96 133.023 71.816 132.807C71.6721 132.587 71.4694 132.417 71.2081 132.295C70.9467 132.174 70.638 132.114 70.2819 132.114H68.7819V130.909H70.2819C70.816 130.909 71.21 130.788 71.4637 130.545C71.7213 130.303 71.8501 130 71.8501 129.636C71.8501 129.246 71.7119 128.934 71.4353 128.699C71.1588 128.46 70.7668 128.341 70.2592 128.341C69.7478 128.341 69.3217 128.456 68.9808 128.688C68.6399 128.915 68.46 129.208 68.441 129.568H67.0319C67.0471 129.098 67.191 128.684 67.4637 128.324C67.7365 127.96 68.1077 127.676 68.5774 127.472C69.0471 127.263 69.585 127.159 70.191 127.159C70.8047 127.159 71.3369 127.267 71.7876 127.483C72.2422 127.695 72.5925 127.985 72.8387 128.352C73.0887 128.716 73.2137 129.129 73.2137 129.591C73.2137 130.083 73.0755 130.481 72.799 130.784C72.5225 131.087 72.1759 131.303 71.7592 131.432V131.523C72.0887 131.545 72.3747 131.652 72.6172 131.841C72.8634 132.027 73.0547 132.271 73.191 132.574C73.3274 132.873 73.3956 133.205 73.3956 133.568C73.3956 134.098 73.2535 134.561 72.9694 134.955C72.6853 135.345 72.2952 135.648 71.799 135.864C71.3028 136.076 70.7365 136.182 70.1001 136.182C69.4827 136.182 68.9297 136.081 68.441 135.881C67.9524 135.676 67.5641 135.394 67.2762 135.034C66.9922 134.67 66.8425 134.25 66.8274 133.773ZM77.5433 136.205C76.9902 136.205 76.4883 136.1 76.0376 135.892C75.5868 135.68 75.2289 135.375 74.9637 134.977C74.6986 134.576 74.566 134.091 74.566 133.523C74.566 133.023 74.6645 132.617 74.8615 132.307C75.0584 131.992 75.3217 131.746 75.6512 131.568C75.9808 131.39 76.3444 131.258 76.7421 131.17C77.1437 131.08 77.5471 131.008 77.9524 130.955C78.4827 130.886 78.9126 130.835 79.2421 130.801C79.5755 130.763 79.8179 130.701 79.9694 130.614C80.1247 130.527 80.2024 130.375 80.2024 130.159V130.114C80.2024 129.553 80.049 129.117 79.7421 128.807C79.4391 128.496 78.9789 128.341 78.3615 128.341C77.7213 128.341 77.2194 128.481 76.8558 128.761C76.4921 129.042 76.2365 129.341 76.0887 129.659L74.816 129.205C75.0433 128.674 75.3463 128.261 75.7251 127.966C76.1077 127.667 76.5243 127.458 76.9751 127.341C77.4296 127.22 77.8766 127.159 78.316 127.159C78.5963 127.159 78.9183 127.193 79.2819 127.261C79.6493 127.326 80.0035 127.46 80.3444 127.665C80.6891 127.869 80.9751 128.178 81.2024 128.591C81.4296 129.004 81.5433 129.557 81.5433 130.25V136H80.2024V134.818H80.1342C80.0433 135.008 79.8918 135.21 79.6796 135.426C79.4675 135.642 79.1853 135.826 78.833 135.977C78.4808 136.129 78.0508 136.205 77.5433 136.205ZM77.7478 135C78.2781 135 78.7251 134.896 79.0887 134.688C79.4562 134.479 79.7327 134.21 79.9183 133.881C80.1077 133.551 80.2024 133.205 80.2024 132.841V131.614C80.1455 131.682 80.0205 131.744 79.8274 131.801C79.638 131.854 79.4183 131.902 79.1683 131.943C78.9221 131.981 78.6815 132.015 78.4467 132.045C78.2156 132.072 78.0281 132.095 77.8842 132.114C77.5357 132.159 77.2099 132.233 76.9069 132.335C76.6077 132.434 76.3652 132.583 76.1796 132.784C75.9978 132.981 75.9069 133.25 75.9069 133.591C75.9069 134.057 76.0793 134.409 76.424 134.648C76.7724 134.883 77.2137 135 77.7478 135ZM82.7549 138.5V134.75H83.4822C83.6602 134.564 83.8136 134.364 83.9424 134.148C84.0712 133.932 84.1829 133.676 84.2776 133.381C84.3761 133.081 84.4594 132.718 84.5276 132.29C84.5958 131.858 84.6564 131.337 84.7094 130.727L85.0049 127.273H90.5504V134.75H91.8913V138.5H90.5504V136H84.0958V138.5H82.7549ZM85.0049 134.75H89.2094V128.523H86.2549L86.0276 130.727C85.9329 131.64 85.8155 132.437 85.6754 133.119C85.5352 133.801 85.3117 134.345 85.0049 134.75ZM95.9353 136.205C95.3822 136.205 94.8803 136.1 94.4296 135.892C93.9788 135.68 93.6209 135.375 93.3557 134.977C93.0906 134.576 92.958 134.091 92.958 133.523C92.958 133.023 93.0565 132.617 93.2535 132.307C93.4504 131.992 93.7137 131.746 94.0432 131.568C94.3728 131.39 94.7364 131.258 95.1341 131.17C95.5356 131.08 95.9391 131.008 96.3444 130.955C96.8747 130.886 97.3046 130.835 97.6341 130.801C97.9675 130.763 98.2099 130.701 98.3614 130.614C98.5167 130.527 98.5944 130.375 98.5944 130.159V130.114C98.5944 129.553 98.441 129.117 98.1341 128.807C97.8311 128.496 97.3709 128.341 96.7535 128.341C96.1133 128.341 95.6114 128.481 95.2478 128.761C94.8841 129.042 94.6285 129.341 94.4807 129.659L93.208 129.205C93.4353 128.674 93.7383 128.261 94.1171 127.966C94.4997 127.667 94.9163 127.458 95.3671 127.341C95.8216 127.22 96.2686 127.159 96.708 127.159C96.9883 127.159 97.3103 127.193 97.6739 127.261C98.0413 127.326 98.3955 127.46 98.7364 127.665C99.0811 127.869 99.3671 128.178 99.5944 128.591C99.8216 129.004 99.9353 129.557 99.9353 130.25V136H98.5944V134.818H98.5262C98.4353 135.008 98.2838 135.21 98.0716 135.426C97.8595 135.642 97.5773 135.826 97.225 135.977C96.8728 136.129 96.4428 136.205 95.9353 136.205ZM96.1398 135C96.6701 135 97.1171 134.896 97.4807 134.688C97.8481 134.479 98.1247 134.21 98.3103 133.881C98.4997 133.551 98.5944 133.205 98.5944 132.841V131.614C98.5375 131.682 98.4125 131.744 98.2194 131.801C98.03 131.854 97.8103 131.902 97.5603 131.943C97.3141 131.981 97.0735 132.015 96.8387 132.045C96.6076 132.072 96.4201 132.095 96.2762 132.114C95.9277 132.159 95.6019 132.233 95.2989 132.335C94.9997 132.434 94.7572 132.583 94.5716 132.784C94.3898 132.981 94.2989 133.25 94.2989 133.591C94.2989 134.057 94.4713 134.409 94.816 134.648C95.1644 134.883 95.6057 135 96.1398 135ZM108.806 127.273V136H107.465V127.273H108.806ZM108.283 131.432V132.682C107.98 132.795 107.679 132.896 107.38 132.983C107.081 133.066 106.766 133.133 106.437 133.182C106.107 133.227 105.745 133.25 105.351 133.25C104.363 133.25 103.569 132.983 102.971 132.449C102.376 131.915 102.079 131.114 102.079 130.045V127.25H103.42V130.045C103.42 130.492 103.505 130.86 103.675 131.148C103.846 131.436 104.077 131.65 104.368 131.79C104.66 131.93 104.988 132 105.351 132C105.92 132 106.433 131.949 106.891 131.847C107.353 131.741 107.817 131.602 108.283 131.432Z" fill="black" fill-opacity="0.8"/>
<rect x="31" y="73" width="184" height="38" fill="white"/>
<rect x="31" y="73" width="184" height="38" stroke="black" stroke-width="2"/>
<path d="M50.5677 90H49.1586C49.0752 89.5947 48.9294 89.2386 48.7211 88.9318C48.5165 88.625 48.2665 88.3674 47.9711 88.1591C47.6794 87.947 47.3555 87.7879 46.9995 87.6818C46.6434 87.5758 46.2722 87.5227 45.8858 87.5227C45.1813 87.5227 44.543 87.7008 43.9711 88.0568C43.4029 88.4129 42.9502 88.9375 42.6131 89.6307C42.2798 90.3239 42.1131 91.1742 42.1131 92.1818C42.1131 93.1894 42.2798 94.0398 42.6131 94.733C42.9502 95.4261 43.4029 95.9508 43.9711 96.3068C44.543 96.6629 45.1813 96.8409 45.8858 96.8409C46.2722 96.8409 46.6434 96.7879 46.9995 96.6818C47.3555 96.5758 47.6794 96.4186 47.9711 96.2102C48.2665 95.9981 48.5165 95.7386 48.7211 95.4318C48.9294 95.1212 49.0752 94.7652 49.1586 94.3636H50.5677C50.4616 94.9583 50.2684 95.4905 49.9881 95.9602C49.7078 96.4299 49.3593 96.8295 48.9427 97.1591C48.526 97.4848 48.0582 97.733 47.5393 97.9034C47.0241 98.0739 46.473 98.1591 45.8858 98.1591C44.8934 98.1591 44.0108 97.9167 43.2381 97.4318C42.4654 96.947 41.8574 96.2576 41.4143 95.3636C40.9711 94.4697 40.7495 93.4091 40.7495 92.1818C40.7495 90.9545 40.9711 89.8939 41.4143 89C41.8574 88.1061 42.4654 87.4167 43.2381 86.9318C44.0108 86.447 44.8934 86.2045 45.8858 86.2045C46.473 86.2045 47.0241 86.2898 47.5393 86.4602C48.0582 86.6307 48.526 86.8807 48.9427 87.2102C49.3593 87.536 49.7078 87.9337 49.9881 88.4034C50.2684 88.8693 50.4616 89.4015 50.5677 90ZM55.9043 98.1818C55.1164 98.1818 54.4251 97.9943 53.8304 97.6193C53.2395 97.2443 52.7774 96.7197 52.4441 96.0455C52.1145 95.3712 51.9497 94.5833 51.9497 93.6818C51.9497 92.7727 52.1145 91.9792 52.4441 91.3011C52.7774 90.6231 53.2395 90.0966 53.8304 89.7216C54.4251 89.3466 55.1164 89.1591 55.9043 89.1591C56.6922 89.1591 57.3816 89.3466 57.9725 89.7216C58.5672 90.0966 59.0293 90.6231 59.3588 91.3011C59.6922 91.9792 59.8588 92.7727 59.8588 93.6818C59.8588 94.5833 59.6922 95.3712 59.3588 96.0455C59.0293 96.7197 58.5672 97.2443 57.9725 97.6193C57.3816 97.9943 56.6922 98.1818 55.9043 98.1818ZM55.9043 96.9773C56.5028 96.9773 56.9952 96.8239 57.3816 96.517C57.7679 96.2102 58.0539 95.8068 58.2395 95.3068C58.4251 94.8068 58.5179 94.2652 58.5179 93.6818C58.5179 93.0985 58.4251 92.5549 58.2395 92.0511C58.0539 91.5473 57.7679 91.1402 57.3816 90.8295C56.9952 90.5189 56.5028 90.3636 55.9043 90.3636C55.3058 90.3636 54.8134 90.5189 54.427 90.8295C54.0407 91.1402 53.7547 91.5473 53.5691 92.0511C53.3835 92.5549 53.2907 93.0985 53.2907 93.6818C53.2907 94.2652 53.3835 94.8068 53.5691 95.3068C53.7547 95.8068 54.0407 96.2102 54.427 96.517C54.8134 96.8239 55.3058 96.9773 55.9043 96.9773ZM61.6017 98V89.2727H65.1699C66.1093 89.2727 66.8555 89.4848 67.4085 89.9091C67.9616 90.3333 68.2381 90.8939 68.2381 91.5909C68.2381 92.1212 68.0809 92.5322 67.7665 92.8239C67.4521 93.1117 67.0487 93.3068 66.5563 93.4091C66.8782 93.4545 67.1907 93.5682 67.4938 93.75C67.8006 93.9318 68.0544 94.1818 68.2551 94.5C68.4559 94.8144 68.5563 95.2008 68.5563 95.6591C68.5563 96.1061 68.4426 96.5057 68.2153 96.858C67.9881 97.2102 67.6623 97.4886 67.2381 97.6932C66.8138 97.8977 66.3063 98 65.7153 98H61.6017ZM62.8744 96.7727H65.7153C66.1775 96.7727 66.5392 96.6629 66.8006 96.4432C67.0619 96.2235 67.1926 95.9242 67.1926 95.5455C67.1926 95.0947 67.0619 94.7405 66.8006 94.483C66.5392 94.2216 66.1775 94.0909 65.7153 94.0909H62.8744V96.7727ZM62.8744 92.9318H65.1699C65.5297 92.9318 65.8385 92.8826 66.096 92.7841C66.3536 92.6818 66.5506 92.5379 66.6869 92.3523C66.8271 92.1629 66.8972 91.9394 66.8972 91.6818C66.8972 91.3144 66.7438 91.0265 66.4369 90.8182C66.1301 90.6061 65.7078 90.5 65.1699 90.5H62.8744V92.9318ZM70.2821 101.273V89.2727H71.5775V90.6591H71.7366C71.8351 90.5076 71.9715 90.3144 72.1457 90.0795C72.3238 89.8409 72.5775 89.6288 72.9071 89.4432C73.2404 89.2538 73.6912 89.1591 74.2594 89.1591C74.9942 89.1591 75.6419 89.3428 76.2025 89.7102C76.7631 90.0777 77.2006 90.5985 77.515 91.2727C77.8294 91.947 77.9866 92.7424 77.9866 93.6591C77.9866 94.5833 77.8294 95.3845 77.515 96.0625C77.2006 96.7367 76.765 97.2595 76.2082 97.6307C75.6514 97.9981 75.0094 98.1818 74.2821 98.1818C73.7215 98.1818 73.2726 98.089 72.9355 97.9034C72.5984 97.714 72.3389 97.5 72.1571 97.2614C71.9753 97.0189 71.8351 96.8182 71.7366 96.6591H71.623V101.273H70.2821ZM71.6003 93.6364C71.6003 94.2955 71.6969 94.8769 71.89 95.3807C72.0832 95.8807 72.3654 96.2727 72.7366 96.5568C73.1078 96.8371 73.5624 96.9773 74.1003 96.9773C74.6609 96.9773 75.1287 96.8295 75.5037 96.5341C75.8825 96.2348 76.1666 95.8333 76.3559 95.3295C76.5491 94.822 76.6457 94.2576 76.6457 93.6364C76.6457 93.0227 76.551 92.4697 76.3616 91.9773C76.176 91.4811 75.8938 91.089 75.515 90.8011C75.14 90.5095 74.6684 90.3636 74.1003 90.3636C73.5548 90.3636 73.0965 90.5019 72.7253 90.7784C72.3541 91.0511 72.0738 91.4337 71.8844 91.9261C71.695 92.4148 71.6003 92.9848 71.6003 93.6364ZM83.3872 98.1818C82.5463 98.1818 81.8209 97.9962 81.211 97.625C80.605 97.25 80.1372 96.7273 79.8076 96.0568C79.4819 95.3826 79.319 94.5985 79.319 93.7045C79.319 92.8106 79.4819 92.0227 79.8076 91.3409C80.1372 90.6553 80.5955 90.1212 81.1826 89.7386C81.7735 89.3523 82.4629 89.1591 83.2508 89.1591C83.7054 89.1591 84.1542 89.2348 84.5974 89.3864C85.0406 89.5379 85.444 89.7841 85.8076 90.125C86.1713 90.4621 86.461 90.9091 86.6769 91.4659C86.8929 92.0227 87.0008 92.7083 87.0008 93.5227V94.0909H80.2735V92.9318H85.6372C85.6372 92.4394 85.5387 92 85.3417 91.6136C85.1485 91.2273 84.872 90.9223 84.5122 90.6989C84.1561 90.4754 83.7357 90.3636 83.2508 90.3636C82.7167 90.3636 82.2546 90.4962 81.8644 90.7614C81.4781 91.0227 81.1807 91.3636 80.9724 91.7841C80.7641 92.2045 80.6599 92.6553 80.6599 93.1364V93.9091C80.6599 94.5682 80.7735 95.1269 81.0008 95.5852C81.2319 96.0398 81.5519 96.3864 81.961 96.625C82.3701 96.8598 82.8455 96.9773 83.3872 96.9773C83.7394 96.9773 84.0576 96.928 84.3417 96.8295C84.6296 96.7273 84.8777 96.5758 85.086 96.375C85.2944 96.1705 85.4554 95.9167 85.569 95.6136L86.8644 95.9773C86.7281 96.4167 86.4989 96.803 86.1769 97.1364C85.855 97.4659 85.4573 97.7235 84.9838 97.9091C84.5103 98.0909 83.9781 98.1818 83.3872 98.1818ZM93.5093 96.1818L96.5548 89.2727H97.8275L94.0548 98H92.9639L89.2593 89.2727H90.5093L93.5093 96.1818ZM90.0775 89.2727V98H88.7366V89.2727H90.0775ZM96.9411 98V89.2727H98.282V98H96.9411ZM104.092 98.1818C103.251 98.1818 102.525 97.9962 101.916 97.625C101.309 97.25 100.842 96.7273 100.512 96.0568C100.186 95.3826 100.023 94.5985 100.023 93.7045C100.023 92.8106 100.186 92.0227 100.512 91.3409C100.842 90.6553 101.3 90.1212 101.887 89.7386C102.478 89.3523 103.167 89.1591 103.955 89.1591C104.41 89.1591 104.859 89.2348 105.302 89.3864C105.745 89.5379 106.148 89.7841 106.512 90.125C106.876 90.4621 107.166 90.9091 107.381 91.4659C107.597 92.0227 107.705 92.7083 107.705 93.5227V94.0909H100.978V92.9318H106.342C106.342 92.4394 106.243 92 106.046 91.6136C105.853 91.2273 105.577 90.9223 105.217 90.6989C104.861 90.4754 104.44 90.3636 103.955 90.3636C103.421 90.3636 102.959 90.4962 102.569 90.7614C102.183 91.0227 101.885 91.3636 101.677 91.7841C101.469 92.2045 101.364 92.6553 101.364 93.1364V93.9091C101.364 94.5682 101.478 95.1269 101.705 95.5852C101.936 96.0398 102.256 96.3864 102.666 96.625C103.075 96.8598 103.55 96.9773 104.092 96.9773C104.444 96.9773 104.762 96.928 105.046 96.8295C105.334 96.7273 105.582 96.5758 105.791 96.375C105.999 96.1705 106.16 95.9167 106.273 95.6136L107.569 95.9773C107.433 96.4167 107.203 96.803 106.881 97.1364C106.559 97.4659 106.162 97.7235 105.688 97.9091C105.215 98.0909 104.683 98.1818 104.092 98.1818ZM115.282 93.0227V94.2727H110.464V93.0227H115.282ZM110.782 89.2727V98H109.441V89.2727H110.782ZM116.305 89.2727V98H114.964V89.2727H116.305ZM124.29 93.0227V94.2727H119.472V93.0227H124.29ZM119.79 89.2727V98H118.45V89.2727H119.79ZM125.313 89.2727V98H123.972V89.2727H125.313ZM128.617 92.4318H131.117C132.14 92.4318 132.922 92.6913 133.464 93.2102C134.005 93.7292 134.276 94.3864 134.276 95.1818C134.276 95.7045 134.155 96.1799 133.913 96.608C133.67 97.0322 133.314 97.3712 132.844 97.625C132.375 97.875 131.799 98 131.117 98H127.458V89.2727H128.799V96.75H131.117C131.647 96.75 132.083 96.6098 132.424 96.3295C132.765 96.0492 132.935 95.6894 132.935 95.25C132.935 94.7879 132.765 94.411 132.424 94.1193C132.083 93.8277 131.647 93.6818 131.117 93.6818H128.617V92.4318ZM135.663 98V89.2727H137.004V98H135.663ZM142.813 98.1818C141.972 98.1818 141.247 97.9962 140.637 97.625C140.031 97.25 139.563 96.7273 139.234 96.0568C138.908 95.3826 138.745 94.5985 138.745 93.7045C138.745 92.8106 138.908 92.0227 139.234 91.3409C139.563 90.6553 140.022 90.1212 140.609 89.7386C141.2 89.3523 141.889 89.1591 142.677 89.1591C143.131 89.1591 143.58 89.2348 144.023 89.3864C144.467 89.5379 144.87 89.7841 145.234 90.125C145.597 90.4621 145.887 90.9091 146.103 91.4659C146.319 92.0227 146.427 92.7083 146.427 93.5227V94.0909H139.7V92.9318H145.063C145.063 92.4394 144.965 92 144.768 91.6136C144.575 91.2273 144.298 90.9223 143.938 90.6989C143.582 90.4754 143.162 90.3636 142.677 90.3636C142.143 90.3636 141.681 90.4962 141.29 90.7614C140.904 91.0227 140.607 91.3636 140.398 91.7841C140.19 92.2045 140.086 92.6553 140.086 93.1364V93.9091C140.086 94.5682 140.2 95.1269 140.427 95.5852C140.658 96.0398 140.978 96.3864 141.387 96.625C141.796 96.8598 142.272 96.9773 142.813 96.9773C143.165 96.9773 143.484 96.928 143.768 96.8295C144.056 96.7273 144.304 96.5758 144.512 96.375C144.72 96.1705 144.881 95.9167 144.995 95.6136L146.29 95.9773C146.154 96.4167 145.925 96.803 145.603 97.1364C145.281 97.4659 144.883 97.7235 144.41 97.9091C143.936 98.0909 143.404 98.1818 142.813 98.1818ZM151.586 98V96.75H151.904C152.165 96.75 152.383 96.6989 152.557 96.5966C152.732 96.4905 152.872 96.3068 152.978 96.0455C153.088 95.7803 153.171 95.4129 153.228 94.9432C153.289 94.4697 153.332 93.8674 153.359 93.1364L153.518 89.2727H159.336V98H157.995V90.5227H154.79L154.654 93.6364C154.624 94.3523 154.559 94.983 154.461 95.5284C154.366 96.0701 154.22 96.5246 154.023 96.892C153.83 97.2595 153.573 97.536 153.251 97.7216C152.929 97.9072 152.525 98 152.04 98H151.586ZM165.151 98.1818C164.31 98.1818 163.585 97.9962 162.975 97.625C162.369 97.25 161.901 96.7273 161.572 96.0568C161.246 95.3826 161.083 94.5985 161.083 93.7045C161.083 92.8106 161.246 92.0227 161.572 91.3409C161.901 90.6553 162.36 90.1212 162.947 89.7386C163.538 89.3523 164.227 89.1591 165.015 89.1591C165.469 89.1591 165.918 89.2348 166.361 89.3864C166.805 89.5379 167.208 89.7841 167.572 90.125C167.935 90.4621 168.225 90.9091 168.441 91.4659C168.657 92.0227 168.765 92.7083 168.765 93.5227V94.0909H162.038V92.9318H167.401C167.401 92.4394 167.303 92 167.106 91.6136C166.913 91.2273 166.636 90.9223 166.276 90.6989C165.92 90.4754 165.5 90.3636 165.015 90.3636C164.481 90.3636 164.019 90.4962 163.628 90.7614C163.242 91.0227 162.945 91.3636 162.736 91.7841C162.528 92.2045 162.424 92.6553 162.424 93.1364V93.9091C162.424 94.5682 162.538 95.1269 162.765 95.5852C162.996 96.0398 163.316 96.3864 163.725 96.625C164.134 96.8598 164.61 96.9773 165.151 96.9773C165.503 96.9773 165.822 96.928 166.106 96.8295C166.394 96.7273 166.642 96.5758 166.85 96.375C167.058 96.1705 167.219 95.9167 167.333 95.6136L168.628 95.9773C168.492 96.4167 168.263 96.803 167.941 97.1364C167.619 97.4659 167.221 97.7235 166.748 97.9091C166.274 98.0909 165.742 98.1818 165.151 98.1818ZM170.501 98V89.2727H171.841V93.0682H172.728L175.864 89.2727H177.591L174.069 93.4773L177.637 98H175.91L173.046 94.3182H171.841V98H170.501ZM185.654 89.2727V96.75H186.881V100.818H185.54V98H178.79V89.2727H180.131V96.75H184.313V89.2727H185.654ZM189.983 96.0227L194.188 89.2727H195.733V98H194.393V91.25L190.211 98H188.643V89.2727H189.983V96.0227ZM199.226 96.0227L203.431 89.2727H204.976V98H203.635V91.25L199.454 98H197.885V89.2727H199.226V96.0227Z" fill="black" fill-opacity="0.8"/>
</svg>
