<svg width="601" height="301" viewBox="0 0 601 301" fill="none" xmlns="http://www.w3.org/2000/svg">
<rect x="223.209" y="78.2903" width="135.258" height="67.629" fill="#91C8E4" stroke="#1E1E1E" stroke-width="2" stroke-linecap="round"/>
<path d="M231.995 124.29L240.029 101.018H246.37L254.393 124.29H231.995ZM238.563 120.233H247.836L243.29 106.336H243.109L238.563 120.233ZM260.853 124.29H255.581L263.615 101.018H269.956L277.978 124.29H272.706L266.876 106.336H266.694L260.853 124.29ZM260.524 115.143H272.978V118.983H260.524V115.143ZM276.697 105.074V101.018H295.811V105.074H288.686V124.29H283.822V105.074H276.697ZM299.774 124.29H294.502L302.536 101.018H308.877L316.899 124.29H311.627L305.797 106.336H305.615L299.774 124.29ZM299.445 115.143H311.899V118.983H299.445V115.143ZM322.087 124.586C321.337 124.586 320.693 124.321 320.155 123.79C319.625 123.252 319.36 122.608 319.36 121.858C319.36 121.116 319.625 120.48 320.155 119.949C320.693 119.419 321.337 119.154 322.087 119.154C322.814 119.154 323.451 119.419 323.996 119.949C324.542 120.48 324.814 121.116 324.814 121.858C324.814 122.358 324.685 122.817 324.428 123.233C324.178 123.643 323.848 123.972 323.439 124.222C323.03 124.465 322.579 124.586 322.087 124.586ZM332.732 101.018L338.357 118.699H338.573L344.209 101.018H349.664L341.641 124.29H335.3L327.266 101.018H332.732Z" fill="black" fill-opacity="0.8"/>
<rect x="1" y="1" width="135.258" height="67.629" fill="white" stroke="#1E1E1E" stroke-width="2" stroke-linecap="round"/>
<path d="M18.3529 41V29.3636H22.5006C23.4059 29.3636 24.1559 29.5284 24.7506 29.858C25.3453 30.1875 25.7904 30.6383 26.0858 31.2102C26.3813 31.7784 26.529 32.4186 26.529 33.1307C26.529 33.8466 26.3794 34.4905 26.0801 35.0625C25.7847 35.6307 25.3377 36.0814 24.7392 36.4148C24.1445 36.7443 23.3964 36.9091 22.4949 36.9091H19.6426V35.4205H22.3358C22.9078 35.4205 23.3718 35.322 23.7279 35.125C24.0839 34.9242 24.3453 34.6515 24.512 34.3068C24.6786 33.9621 24.762 33.5701 24.762 33.1307C24.762 32.6913 24.6786 32.3011 24.512 31.9602C24.3453 31.6193 24.082 31.3523 23.7222 31.1591C23.3661 30.9659 22.8964 30.8693 22.3131 30.8693H20.1086V41H18.3529ZM30.6085 41.1932C30.0555 41.1932 29.5555 41.0909 29.1085 40.8864C28.6616 40.678 28.3074 40.3769 28.046 39.983C27.7885 39.589 27.6597 39.1061 27.6597 38.5341C27.6597 38.0417 27.7544 37.6364 27.9438 37.3182C28.1332 37 28.3888 36.7481 28.7108 36.5625C29.0328 36.3769 29.3926 36.2367 29.7904 36.142C30.1881 36.0473 30.5934 35.9754 31.0063 35.9261C31.529 35.8655 31.9532 35.8163 32.279 35.7784C32.6047 35.7367 32.8415 35.6705 32.9892 35.5795C33.1369 35.4886 33.2108 35.3409 33.2108 35.1364V35.0966C33.2108 34.6004 33.0707 34.2159 32.7904 33.9432C32.5138 33.6705 32.101 33.5341 31.5517 33.5341C30.9797 33.5341 30.529 33.661 30.1994 33.9148C29.8737 34.1648 29.6483 34.4432 29.5233 34.75L27.9267 34.3864C28.1161 33.8561 28.3926 33.428 28.7563 33.1023C29.1237 32.7727 29.546 32.5341 30.0233 32.3864C30.5006 32.2348 31.0025 32.1591 31.529 32.1591C31.8775 32.1591 32.2468 32.2008 32.6369 32.2841C33.0309 32.3636 33.3983 32.5114 33.7392 32.7273C34.0839 32.9432 34.3661 33.2519 34.5858 33.6534C34.8055 34.0511 34.9154 34.5682 34.9154 35.2045V41H33.2563V39.8068H33.1881C33.0782 40.0265 32.9135 40.2424 32.6938 40.4545C32.4741 40.6667 32.1919 40.8428 31.8472 40.983C31.5025 41.1231 31.0896 41.1932 30.6085 41.1932ZM30.9779 39.8295C31.4475 39.8295 31.8491 39.7367 32.1824 39.5511C32.5195 39.3655 32.7752 39.1231 32.9494 38.8239C33.1275 38.5208 33.2165 38.197 33.2165 37.8523V36.7273C33.1559 36.7879 33.0385 36.8447 32.8642 36.8977C32.6938 36.947 32.4987 36.9905 32.279 37.0284C32.0593 37.0625 31.8453 37.0947 31.6369 37.125C31.4286 37.1515 31.2544 37.1742 31.1142 37.1932C30.7847 37.2348 30.4835 37.3049 30.2108 37.4034C29.9419 37.5019 29.726 37.6439 29.5631 37.8295C29.404 38.0114 29.3244 38.2538 29.3244 38.5568C29.3244 38.9773 29.4797 39.2955 29.7904 39.5114C30.101 39.7235 30.4968 39.8295 30.9779 39.8295ZM36.3571 38.6932H38.0957C38.1185 39.0492 38.2794 39.3239 38.5787 39.517C38.8817 39.7102 39.2738 39.8068 39.7548 39.8068C40.2435 39.8068 40.6601 39.7027 41.0048 39.4943C41.3495 39.2822 41.5219 38.9545 41.5219 38.5114C41.5219 38.2462 41.4556 38.0152 41.323 37.8182C41.1942 37.6174 41.0105 37.4621 40.7719 37.3523C40.537 37.2424 40.2586 37.1875 39.9366 37.1875H38.5162V35.8523H39.9366C40.4177 35.8523 40.7775 35.7424 41.0162 35.5227C41.2548 35.303 41.3741 35.0284 41.3741 34.6989C41.3741 34.3428 41.2453 34.0568 40.9878 33.8409C40.734 33.6212 40.3798 33.5114 39.9253 33.5114C39.4632 33.5114 39.0787 33.6155 38.7719 33.8239C38.465 34.0284 38.3041 34.2936 38.2889 34.6193H36.573C36.5844 34.1307 36.7321 33.7027 37.0162 33.3352C37.3041 32.964 37.6904 32.6761 38.1753 32.4716C38.6639 32.2633 39.2188 32.1591 39.84 32.1591C40.4878 32.1591 41.0484 32.2633 41.5219 32.4716C41.9953 32.6799 42.3609 32.9678 42.6185 33.3352C42.8798 33.7027 43.0105 34.125 43.0105 34.6023C43.0105 35.0833 42.8666 35.4773 42.5787 35.7841C42.2946 36.0871 41.9234 36.3049 41.465 36.4375V36.5284C41.8022 36.5511 42.1014 36.6534 42.3628 36.8352C42.6241 37.017 42.8287 37.2576 42.9764 37.5568C43.1241 37.8561 43.198 38.1951 43.198 38.5739C43.198 39.108 43.0503 39.5701 42.7548 39.9602C42.4632 40.3504 42.0578 40.6515 41.5389 40.8636C41.0238 41.072 40.4347 41.1761 39.7719 41.1761C39.1279 41.1761 38.5503 41.0758 38.0389 40.875C37.5313 40.6705 37.1279 40.3826 36.8287 40.0114C36.5332 39.6402 36.376 39.2008 36.3571 38.6932ZM51.3812 29.0227L52.0858 30.0966C51.8244 30.3352 51.5271 30.5057 51.1937 30.608C50.8642 30.7064 50.4835 30.7689 50.0517 30.7955C49.6199 30.8182 49.1255 30.839 48.5687 30.858C47.9399 30.8769 47.4229 31.0133 47.0176 31.267C46.6123 31.517 46.2998 31.8883 46.0801 32.3807C45.8642 32.8693 45.724 33.483 45.6596 34.2216H45.7676C46.0517 33.6799 46.4456 33.2746 46.9494 33.0057C47.457 32.7367 48.0271 32.6023 48.6596 32.6023C49.3642 32.6023 49.9911 32.7633 50.5403 33.0852C51.0896 33.4072 51.5214 33.8788 51.8358 34.5C52.1539 35.1174 52.313 35.8731 52.313 36.767C52.313 37.6723 52.1464 38.4545 51.813 39.1136C51.4835 39.7727 51.0176 40.2822 50.4153 40.642C49.8168 40.9981 49.1104 41.1761 48.296 41.1761C47.4816 41.1761 46.7714 40.9924 46.1653 40.625C45.563 40.2538 45.0952 39.7045 44.7619 38.9773C44.4324 38.25 44.2676 37.3523 44.2676 36.2841V35.4205C44.2676 33.4242 44.6236 31.9223 45.3358 30.9148C46.0479 29.9072 47.1123 29.3902 48.5289 29.3636C48.9873 29.3523 49.3964 29.3504 49.7562 29.358C50.1161 29.3617 50.4305 29.3447 50.6994 29.3068C50.9721 29.2652 51.1994 29.1705 51.3812 29.0227ZM48.3017 39.75C48.7752 39.75 49.1824 39.6307 49.5233 39.392C49.868 39.1496 50.1331 38.8068 50.3187 38.3636C50.5043 37.9205 50.5971 37.3977 50.5971 36.7955C50.5971 36.2045 50.5043 35.7027 50.3187 35.2898C50.1331 34.8769 49.868 34.5625 49.5233 34.3466C49.1786 34.1269 48.7657 34.017 48.2846 34.017C47.9286 34.017 47.6104 34.0795 47.3301 34.2045C47.0498 34.3258 46.8092 34.5057 46.6085 34.7443C46.4115 34.983 46.2581 35.2746 46.1483 35.6193C46.0422 35.9602 45.9854 36.3523 45.9778 36.7955C45.9778 37.697 46.1842 38.4148 46.5971 38.9489C47.0138 39.483 47.582 39.75 48.3017 39.75ZM57.5829 41.1761C56.7647 41.1761 56.0507 40.9886 55.4409 40.6136C54.831 40.2386 54.3575 39.714 54.0204 39.0398C53.6833 38.3655 53.5147 37.5777 53.5147 36.6761C53.5147 35.7708 53.6833 34.9792 54.0204 34.3011C54.3575 33.6231 54.831 33.0966 55.4409 32.7216C56.0507 32.3466 56.7647 32.1591 57.5829 32.1591C58.4011 32.1591 59.1151 32.3466 59.7249 32.7216C60.3348 33.0966 60.8083 33.6231 61.1454 34.3011C61.4825 34.9792 61.6511 35.7708 61.6511 36.6761C61.6511 37.5777 61.4825 38.3655 61.1454 39.0398C60.8083 39.714 60.3348 40.2386 59.7249 40.6136C59.1151 40.9886 58.4011 41.1761 57.5829 41.1761ZM57.5886 39.75C58.1189 39.75 58.5583 39.6098 58.9068 39.3295C59.2552 39.0492 59.5128 38.6761 59.6795 38.2102C59.8499 37.7443 59.9352 37.2311 59.9352 36.6705C59.9352 36.1136 59.8499 35.6023 59.6795 35.1364C59.5128 34.6667 59.2552 34.2898 58.9068 34.0057C58.5583 33.7216 58.1189 33.5795 57.5886 33.5795C57.0545 33.5795 56.6113 33.7216 56.259 34.0057C55.9106 34.2898 55.6511 34.6667 55.4806 35.1364C55.314 35.6023 55.2306 36.1136 55.2306 36.6705C55.2306 37.2311 55.314 37.7443 55.4806 38.2102C55.6511 38.6761 55.9106 39.0492 56.259 39.3295C56.6113 39.6098 57.0545 39.75 57.5886 39.75ZM63.2434 44.2727V32.2727H64.9025V33.6875H65.0445C65.143 33.5057 65.2851 33.2955 65.4707 33.0568C65.6563 32.8182 65.9138 32.6098 66.2434 32.4318C66.5729 32.25 67.0085 32.1591 67.5502 32.1591C68.2548 32.1591 68.8835 32.3371 69.4366 32.6932C69.9896 33.0492 70.4233 33.5625 70.7377 34.233C71.0559 34.9034 71.215 35.7102 71.215 36.6534C71.215 37.5966 71.0578 38.4053 70.7434 39.0795C70.429 39.75 69.9972 40.267 69.4479 40.6307C68.8987 40.9905 68.2718 41.1705 67.5673 41.1705C67.0369 41.1705 66.6032 41.0814 66.2661 40.9034C65.9328 40.7254 65.6714 40.517 65.482 40.2784C65.2926 40.0398 65.1468 39.8277 65.0445 39.642H64.9423V44.2727H63.2434ZM64.9082 36.6364C64.9082 37.25 64.9972 37.7879 65.1752 38.25C65.3532 38.7121 65.6108 39.0739 65.9479 39.3352C66.2851 39.5928 66.6979 39.7216 67.1866 39.7216C67.6941 39.7216 68.1184 39.5871 68.4593 39.3182C68.8002 39.0455 69.0578 38.6761 69.232 38.2102C69.4101 37.7443 69.4991 37.2197 69.4991 36.6364C69.4991 36.0606 69.4119 35.5436 69.2377 35.0852C69.0673 34.6269 68.8097 34.2652 68.465 34C68.1241 33.7348 67.6979 33.6023 67.1866 33.6023C66.6941 33.6023 66.2775 33.7292 65.9366 33.983C65.5994 34.2367 65.3438 34.5909 65.1695 35.0455C64.9953 35.5 64.9082 36.0303 64.9082 36.6364ZM76.2277 38.6932H77.9664C77.9891 39.0492 78.1501 39.3239 78.4493 39.517C78.7523 39.7102 79.1444 39.8068 79.6254 39.8068C80.1141 39.8068 80.5308 39.7027 80.8754 39.4943C81.2201 39.2822 81.3925 38.9545 81.3925 38.5114C81.3925 38.2462 81.3262 38.0152 81.1936 37.8182C81.0648 37.6174 80.8811 37.4621 80.6425 37.3523C80.4076 37.2424 80.1292 37.1875 79.8073 37.1875H78.3868V35.8523H79.8073C80.2883 35.8523 80.6482 35.7424 80.8868 35.5227C81.1254 35.303 81.2448 35.0284 81.2448 34.6989C81.2448 34.3428 81.116 34.0568 80.8584 33.8409C80.6046 33.6212 80.2504 33.5114 79.7959 33.5114C79.3338 33.5114 78.9493 33.6155 78.6425 33.8239C78.3357 34.0284 78.1747 34.2936 78.1595 34.6193H76.4436C76.455 34.1307 76.6027 33.7027 76.8868 33.3352C77.1747 32.964 77.5611 32.6761 78.0459 32.4716C78.5345 32.2633 79.0895 32.1591 79.7107 32.1591C80.3584 32.1591 80.919 32.2633 81.3925 32.4716C81.866 32.6799 82.2315 32.9678 82.4891 33.3352C82.7504 33.7027 82.8811 34.125 82.8811 34.6023C82.8811 35.0833 82.7372 35.4773 82.4493 35.7841C82.1652 36.0871 81.794 36.3049 81.3357 36.4375V36.5284C81.6728 36.5511 81.972 36.6534 82.2334 36.8352C82.4948 37.017 82.6993 37.2576 82.847 37.5568C82.9948 37.8561 83.0686 38.1951 83.0686 38.5739C83.0686 39.108 82.9209 39.5701 82.6254 39.9602C82.3338 40.3504 81.9285 40.6515 81.4095 40.8636C80.8944 41.072 80.3054 41.1761 79.6425 41.1761C78.9986 41.1761 78.4209 41.0758 77.9095 40.875C77.402 40.6705 76.9986 40.3826 76.6993 40.0114C76.4039 39.6402 76.2467 39.2008 76.2277 38.6932ZM87.0587 41.1932C86.5056 41.1932 86.0056 41.0909 85.5587 40.8864C85.1117 40.678 84.7575 40.3769 84.4962 39.983C84.2386 39.589 84.1098 39.1061 84.1098 38.5341C84.1098 38.0417 84.2045 37.6364 84.3939 37.3182C84.5833 37 84.839 36.7481 85.1609 36.5625C85.4829 36.3769 85.8428 36.2367 86.2405 36.142C86.6382 36.0473 87.0435 35.9754 87.4564 35.9261C87.9791 35.8655 88.4034 35.8163 88.7291 35.7784C89.0549 35.7367 89.2916 35.6705 89.4393 35.5795C89.5871 35.4886 89.6609 35.3409 89.6609 35.1364V35.0966C89.6609 34.6004 89.5208 34.2159 89.2405 33.9432C88.964 33.6705 88.5511 33.5341 88.0018 33.5341C87.4299 33.5341 86.9791 33.661 86.6496 33.9148C86.3238 34.1648 86.0984 34.4432 85.9734 34.75L84.3768 34.3864C84.5662 33.8561 84.8428 33.428 85.2064 33.1023C85.5738 32.7727 85.9962 32.5341 86.4734 32.3864C86.9507 32.2348 87.4526 32.1591 87.9791 32.1591C88.3276 32.1591 88.6969 32.2008 89.0871 32.2841C89.481 32.3636 89.8484 32.5114 90.1893 32.7273C90.534 32.9432 90.8162 33.2519 91.0359 33.6534C91.2556 34.0511 91.3655 34.5682 91.3655 35.2045V41H89.7064V39.8068H89.6382C89.5284 40.0265 89.3636 40.2424 89.1439 40.4545C88.9242 40.6667 88.642 40.8428 88.2973 40.983C87.9526 41.1231 87.5397 41.1932 87.0587 41.1932ZM87.428 39.8295C87.8977 39.8295 88.2992 39.7367 88.6325 39.5511C88.9696 39.3655 89.2253 39.1231 89.3996 38.8239C89.5776 38.5208 89.6666 38.197 89.6666 37.8523V36.7273C89.606 36.7879 89.4886 36.8447 89.3143 36.8977C89.1439 36.947 88.9488 36.9905 88.7291 37.0284C88.5094 37.0625 88.2954 37.0947 88.0871 37.125C87.8787 37.1515 87.7045 37.1742 87.5643 37.1932C87.2348 37.2348 86.9337 37.3049 86.6609 37.4034C86.392 37.5019 86.1761 37.6439 86.0132 37.8295C85.8541 38.0114 85.7746 38.2538 85.7746 38.5568C85.7746 38.9773 85.9299 39.2955 86.2405 39.5114C86.5511 39.7235 86.9469 39.8295 87.428 39.8295ZM92.472 43.517V39.5284H93.1822C93.364 39.3617 93.5174 39.1629 93.6424 38.9318C93.7712 38.7008 93.8792 38.4261 93.9663 38.108C94.0572 37.7898 94.133 37.4186 94.1936 36.9943C94.2542 36.5663 94.3072 36.0777 94.3527 35.5284L94.6254 32.2727H100.557V39.5284H101.898V43.517H100.239V41H94.1538V43.517H92.472ZM95.0004 39.5284H98.8981V33.7273H96.1481L95.9663 35.5284C95.8792 36.4451 95.7693 37.2405 95.6368 37.9148C95.5042 38.5852 95.2921 39.1231 95.0004 39.5284ZM105.794 41.1932C105.241 41.1932 104.741 41.0909 104.294 40.8864C103.847 40.678 103.493 40.3769 103.232 39.983C102.974 39.589 102.846 39.1061 102.846 38.5341C102.846 38.0417 102.94 37.6364 103.13 37.3182C103.319 37 103.575 36.7481 103.897 36.5625C104.219 36.3769 104.579 36.2367 104.976 36.142C105.374 36.0473 105.779 35.9754 106.192 35.9261C106.715 35.8655 107.139 35.8163 107.465 35.7784C107.791 35.7367 108.027 35.6705 108.175 35.5795C108.323 35.4886 108.397 35.3409 108.397 35.1364V35.0966C108.397 34.6004 108.257 34.2159 107.976 33.9432C107.7 33.6705 107.287 33.5341 106.738 33.5341C106.166 33.5341 105.715 33.661 105.385 33.9148C105.06 34.1648 104.834 34.4432 104.709 34.75L103.113 34.3864C103.302 33.8561 103.579 33.428 103.942 33.1023C104.31 32.7727 104.732 32.5341 105.209 32.3864C105.686 32.2348 106.188 32.1591 106.715 32.1591C107.063 32.1591 107.433 32.2008 107.823 32.2841C108.217 32.3636 108.584 32.5114 108.925 32.7273C109.27 32.9432 109.552 33.2519 109.772 33.6534C109.991 34.0511 110.101 34.5682 110.101 35.2045V41H108.442V39.8068H108.374C108.264 40.0265 108.099 40.2424 107.88 40.4545C107.66 40.6667 107.378 40.8428 107.033 40.983C106.688 41.1231 106.275 41.1932 105.794 41.1932ZM106.164 39.8295C106.633 39.8295 107.035 39.7367 107.368 39.5511C107.705 39.3655 107.961 39.1231 108.135 38.8239C108.313 38.5208 108.402 38.197 108.402 37.8523V36.7273C108.342 36.7879 108.224 36.8447 108.05 36.8977C107.88 36.947 107.685 36.9905 107.465 37.0284C107.245 37.0625 107.031 37.0947 106.823 37.125C106.614 37.1515 106.44 37.1742 106.3 37.1932C105.971 37.2348 105.669 37.3049 105.397 37.4034C105.128 37.5019 104.912 37.6439 104.749 37.8295C104.59 38.0114 104.51 38.2538 104.51 38.5568C104.51 38.9773 104.666 39.2955 104.976 39.5114C105.287 39.7235 105.683 39.8295 106.164 39.8295ZM119.066 32.2727V41H117.407V32.2727H119.066ZM118.344 36.3239V37.7898C118.083 37.8958 117.806 37.9905 117.515 38.0739C117.223 38.1534 116.916 38.2159 116.594 38.2614C116.272 38.3068 115.937 38.3295 115.588 38.3295C114.509 38.3295 113.651 38.0663 113.015 37.5398C112.378 37.0095 112.06 36.1989 112.06 35.108V32.2557H113.713V35.108C113.713 35.5208 113.789 35.8561 113.941 36.1136C114.092 36.3712 114.308 36.5606 114.588 36.6818C114.869 36.803 115.202 36.8636 115.588 36.8636C116.1 36.8636 116.571 36.8163 117.003 36.7216C117.439 36.6231 117.886 36.4905 118.344 36.3239Z" fill="black" fill-opacity="0.8"/>
<rect x="194.226" y="232.267" width="135.258" height="67.629" fill="white" stroke="#1E1E1E" stroke-width="2" stroke-linecap="round"/>
<path d="M218.61 252.415H216.838C216.77 252.036 216.643 251.703 216.457 251.415C216.271 251.127 216.044 250.883 215.775 250.682C215.506 250.481 215.205 250.33 214.872 250.227C214.542 250.125 214.192 250.074 213.821 250.074C213.15 250.074 212.55 250.242 212.02 250.58C211.493 250.917 211.076 251.411 210.77 252.063C210.466 252.714 210.315 253.51 210.315 254.449C210.315 255.396 210.466 256.195 210.77 256.847C211.076 257.498 211.495 257.991 212.025 258.324C212.555 258.657 213.152 258.824 213.815 258.824C214.182 258.824 214.531 258.775 214.86 258.676C215.194 258.574 215.495 258.424 215.764 258.227C216.033 258.03 216.26 257.79 216.446 257.506C216.635 257.218 216.766 256.888 216.838 256.517L218.61 256.523C218.516 257.095 218.332 257.621 218.059 258.102C217.79 258.58 217.444 258.992 217.02 259.341C216.599 259.686 216.118 259.953 215.576 260.142C215.035 260.331 214.444 260.426 213.804 260.426C212.796 260.426 211.898 260.188 211.11 259.71C210.323 259.229 209.701 258.542 209.247 257.648C208.796 256.754 208.571 255.688 208.571 254.449C208.571 253.206 208.798 252.14 209.252 251.25C209.707 250.356 210.328 249.67 211.116 249.193C211.904 248.712 212.8 248.472 213.804 248.472C214.421 248.472 214.997 248.561 215.531 248.739C216.069 248.913 216.552 249.17 216.98 249.511C217.408 249.849 217.762 250.261 218.042 250.75C218.323 251.235 218.512 251.79 218.61 252.415ZM223.947 260.443C223.129 260.443 222.415 260.256 221.805 259.881C221.195 259.506 220.722 258.981 220.385 258.307C220.047 257.633 219.879 256.845 219.879 255.943C219.879 255.038 220.047 254.246 220.385 253.568C220.722 252.89 221.195 252.364 221.805 251.989C222.415 251.614 223.129 251.426 223.947 251.426C224.765 251.426 225.479 251.614 226.089 251.989C226.699 252.364 227.172 252.89 227.51 253.568C227.847 254.246 228.015 255.038 228.015 255.943C228.015 256.845 227.847 257.633 227.51 258.307C227.172 258.981 226.699 259.506 226.089 259.881C225.479 260.256 224.765 260.443 223.947 260.443ZM223.953 259.017C224.483 259.017 224.922 258.877 225.271 258.597C225.619 258.316 225.877 257.943 226.044 257.477C226.214 257.011 226.299 256.498 226.299 255.938C226.299 255.381 226.214 254.869 226.044 254.403C225.877 253.934 225.619 253.557 225.271 253.273C224.922 252.989 224.483 252.847 223.953 252.847C223.419 252.847 222.975 252.989 222.623 253.273C222.275 253.557 222.015 253.934 221.845 254.403C221.678 254.869 221.595 255.381 221.595 255.938C221.595 256.498 221.678 257.011 221.845 257.477C222.015 257.943 222.275 258.316 222.623 258.597C222.975 258.877 223.419 259.017 223.953 259.017ZM229.608 260.267V251.54H233.227C234.212 251.54 234.992 251.75 235.568 252.17C236.144 252.587 236.431 253.153 236.431 253.869C236.431 254.381 236.269 254.786 235.943 255.085C235.617 255.385 235.185 255.585 234.647 255.688C235.037 255.733 235.395 255.85 235.721 256.04C236.047 256.225 236.308 256.475 236.505 256.79C236.706 257.104 236.806 257.479 236.806 257.915C236.806 258.377 236.687 258.786 236.448 259.142C236.21 259.494 235.863 259.771 235.409 259.972C234.958 260.169 234.414 260.267 233.778 260.267H229.608ZM231.204 258.847H233.778C234.198 258.847 234.528 258.746 234.767 258.545C235.005 258.345 235.125 258.072 235.125 257.727C235.125 257.322 235.005 257.004 234.767 256.773C234.528 256.538 234.198 256.42 233.778 256.42H231.204V258.847ZM231.204 255.176H233.244C233.562 255.176 233.835 255.131 234.062 255.04C234.293 254.949 234.469 254.82 234.59 254.653C234.715 254.483 234.778 254.282 234.778 254.051C234.778 253.714 234.64 253.451 234.363 253.261C234.087 253.072 233.708 252.977 233.227 252.977H231.204V255.176ZM238.366 263.54V251.54H240.025V252.955H240.167C240.266 252.773 240.408 252.563 240.593 252.324C240.779 252.085 241.036 251.877 241.366 251.699C241.696 251.517 242.131 251.426 242.673 251.426C243.377 251.426 244.006 251.604 244.559 251.96C245.112 252.316 245.546 252.83 245.86 253.5C246.179 254.17 246.338 254.977 246.338 255.92C246.338 256.864 246.18 257.672 245.866 258.347C245.552 259.017 245.12 259.534 244.571 259.898C244.021 260.258 243.394 260.438 242.69 260.438C242.16 260.438 241.726 260.349 241.389 260.17C241.055 259.992 240.794 259.784 240.605 259.545C240.415 259.307 240.269 259.095 240.167 258.909H240.065V263.54H238.366ZM240.031 255.903C240.031 256.517 240.12 257.055 240.298 257.517C240.476 257.979 240.733 258.341 241.071 258.602C241.408 258.86 241.821 258.989 242.309 258.989C242.817 258.989 243.241 258.854 243.582 258.585C243.923 258.313 244.18 257.943 244.355 257.477C244.533 257.011 244.622 256.487 244.622 255.903C244.622 255.328 244.535 254.811 244.36 254.352C244.19 253.894 243.932 253.532 243.588 253.267C243.247 253.002 242.821 252.869 242.309 252.869C241.817 252.869 241.4 252.996 241.059 253.25C240.722 253.504 240.466 253.858 240.292 254.313C240.118 254.767 240.031 255.297 240.031 255.903ZM251.698 260.443C250.839 260.443 250.098 260.26 249.477 259.892C248.859 259.521 248.382 259 248.045 258.33C247.712 257.655 247.545 256.866 247.545 255.96C247.545 255.066 247.712 254.278 248.045 253.597C248.382 252.915 248.852 252.383 249.454 252C250.06 251.617 250.768 251.426 251.579 251.426C252.072 251.426 252.549 251.508 253.011 251.67C253.473 251.833 253.888 252.089 254.255 252.438C254.623 252.786 254.912 253.239 255.125 253.795C255.337 254.349 255.443 255.021 255.443 255.813V256.415H248.505V255.142H253.778C253.778 254.695 253.687 254.299 253.505 253.955C253.323 253.606 253.068 253.331 252.738 253.131C252.412 252.93 252.03 252.83 251.59 252.83C251.113 252.83 250.697 252.947 250.34 253.182C249.988 253.413 249.715 253.716 249.522 254.091C249.333 254.462 249.238 254.866 249.238 255.301V256.295C249.238 256.879 249.34 257.375 249.545 257.784C249.753 258.193 250.043 258.506 250.414 258.722C250.786 258.934 251.219 259.04 251.715 259.04C252.037 259.04 252.331 258.994 252.596 258.903C252.861 258.809 253.09 258.669 253.284 258.483C253.477 258.297 253.625 258.068 253.727 257.795L255.335 258.085C255.206 258.559 254.975 258.974 254.642 259.33C254.312 259.682 253.897 259.956 253.397 260.153C252.901 260.347 252.335 260.443 251.698 260.443ZM261.921 258.165L264.74 251.54H266.205L262.552 260.267H261.291L257.711 251.54H259.16L261.921 258.165ZM258.688 251.54V260.267H257.024V251.54H258.688ZM265.2 260.267V251.54H266.853V260.267H265.2ZM272.575 260.443C271.715 260.443 270.974 260.26 270.353 259.892C269.736 259.521 269.258 259 268.921 258.33C268.588 257.655 268.421 256.866 268.421 255.96C268.421 255.066 268.588 254.278 268.921 253.597C269.258 252.915 269.728 252.383 270.33 252C270.937 251.617 271.645 251.426 272.455 251.426C272.948 251.426 273.425 251.508 273.887 251.67C274.349 251.833 274.764 252.089 275.132 252.438C275.499 252.786 275.789 253.239 276.001 253.795C276.213 254.349 276.319 255.021 276.319 255.813V256.415H269.382V255.142H274.654C274.654 254.695 274.563 254.299 274.382 253.955C274.2 253.606 273.944 253.331 273.615 253.131C273.289 252.93 272.906 252.83 272.467 252.83C271.99 252.83 271.573 252.947 271.217 253.182C270.865 253.413 270.592 253.716 270.399 254.091C270.209 254.462 270.115 254.866 270.115 255.301V256.295C270.115 256.879 270.217 257.375 270.421 257.784C270.63 258.193 270.919 258.506 271.291 258.722C271.662 258.934 272.096 259.04 272.592 259.04C272.914 259.04 273.207 258.994 273.473 258.903C273.738 258.809 273.967 258.669 274.16 258.483C274.353 258.297 274.501 258.068 274.603 257.795L276.211 258.085C276.082 258.559 275.851 258.974 275.518 259.33C275.188 259.682 274.774 259.956 274.274 260.153C273.777 260.347 273.211 260.443 272.575 260.443ZM283.815 255.17V256.642H279.088V255.17H283.815ZM279.565 251.54V260.267H277.9V251.54H279.565ZM285.002 251.54V260.267H283.343V251.54H285.002ZM292.886 255.17V256.642H288.159V255.17H292.886ZM288.636 251.54V260.267H286.971V251.54H288.636ZM294.073 251.54V260.267H292.414V251.54H294.073ZM297.32 254.54H299.855C300.923 254.54 301.745 254.805 302.32 255.335C302.896 255.866 303.184 256.549 303.184 257.386C303.184 257.932 303.055 258.422 302.798 258.858C302.54 259.294 302.163 259.638 301.667 259.892C301.171 260.142 300.567 260.267 299.855 260.267H296.042V251.54H297.707V258.801H299.855C300.343 258.801 300.745 258.674 301.059 258.42C301.373 258.163 301.531 257.835 301.531 257.438C301.531 257.017 301.373 256.674 301.059 256.409C300.745 256.14 300.343 256.006 299.855 256.006H297.32V254.54ZM304.423 260.267V251.54H306.122V260.267H304.423ZM311.859 260.443C310.999 260.443 310.258 260.26 309.637 259.892C309.02 259.521 308.542 259 308.205 258.33C307.872 257.655 307.705 256.866 307.705 255.96C307.705 255.066 307.872 254.278 308.205 253.597C308.542 252.915 309.012 252.383 309.614 252C310.221 251.617 310.929 251.426 311.739 251.426C312.232 251.426 312.709 251.508 313.171 251.67C313.633 251.833 314.048 252.089 314.416 252.438C314.783 252.786 315.073 253.239 315.285 253.795C315.497 254.349 315.603 255.021 315.603 255.813V256.415H308.666V255.142H313.938C313.938 254.695 313.847 254.299 313.666 253.955C313.484 253.606 313.228 253.331 312.899 253.131C312.573 252.93 312.19 252.83 311.751 252.83C311.274 252.83 310.857 252.947 310.501 253.182C310.149 253.413 309.876 253.716 309.683 254.091C309.493 254.462 309.399 254.866 309.399 255.301V256.295C309.399 256.879 309.501 257.375 309.705 257.784C309.914 258.193 310.203 258.506 310.575 258.722C310.946 258.934 311.38 259.04 311.876 259.04C312.198 259.04 312.491 258.994 312.757 258.903C313.022 258.809 313.251 258.669 313.444 258.483C313.637 258.297 313.785 258.068 313.887 257.795L315.495 258.085C315.366 258.559 315.135 258.974 314.802 259.33C314.472 259.682 314.058 259.956 313.558 260.153C313.061 260.347 312.495 260.443 311.859 260.443ZM234.421 284.267L234.415 282.795H234.728C234.97 282.795 235.173 282.744 235.335 282.642C235.502 282.536 235.639 282.358 235.745 282.108C235.851 281.858 235.932 281.513 235.989 281.074C236.046 280.631 236.087 280.074 236.114 279.403L236.267 275.54H242.358V284.267H240.693V277.006H237.841L237.705 279.972C237.671 280.691 237.597 281.32 237.483 281.858C237.373 282.396 237.212 282.845 237 283.205C236.788 283.561 236.515 283.828 236.182 284.006C235.849 284.18 235.443 284.267 234.966 284.267H234.421ZM248.081 284.443C247.221 284.443 246.481 284.26 245.86 283.892C245.242 283.521 244.765 283 244.428 282.33C244.094 281.655 243.928 280.866 243.928 279.96C243.928 279.066 244.094 278.278 244.428 277.597C244.765 276.915 245.235 276.383 245.837 276C246.443 275.617 247.151 275.426 247.962 275.426C248.454 275.426 248.932 275.508 249.394 275.67C249.856 275.833 250.271 276.089 250.638 276.438C251.005 276.786 251.295 277.239 251.507 277.795C251.719 278.349 251.826 279.021 251.826 279.813V280.415H244.888V279.142H250.161C250.161 278.695 250.07 278.299 249.888 277.955C249.706 277.606 249.451 277.331 249.121 277.131C248.795 276.93 248.413 276.83 247.973 276.83C247.496 276.83 247.079 276.947 246.723 277.182C246.371 277.413 246.098 277.716 245.905 278.091C245.716 278.462 245.621 278.866 245.621 279.301V280.295C245.621 280.879 245.723 281.375 245.928 281.784C246.136 282.193 246.426 282.506 246.797 282.722C247.168 282.934 247.602 283.04 248.098 283.04C248.42 283.04 248.714 282.994 248.979 282.903C249.244 282.809 249.473 282.669 249.666 282.483C249.86 282.297 250.007 282.068 250.11 281.795L251.718 282.085C251.589 282.559 251.358 282.974 251.024 283.33C250.695 283.682 250.28 283.956 249.78 284.153C249.284 284.347 248.718 284.443 248.081 284.443ZM253.406 284.267V275.54H255.105V279.199H255.924L258.804 275.54H260.906L257.526 279.784L260.946 284.267H258.838L256.208 280.778H255.105V284.267H253.406ZM269.081 275.54V282.875H270.36V287.08H268.683V284.267H261.962V275.54H263.627V282.801H267.422V275.54H269.081ZM273.604 281.886L277.45 275.54H279.28V284.267H277.615V277.915L273.786 284.267H271.939V275.54H273.604V281.886ZM282.925 281.886L286.771 275.54H288.601V284.267H286.936V277.915L283.107 284.267H281.26V275.54H282.925V281.886Z" fill="black" fill-opacity="0.8"/>
<rect x="464.742" y="39.6451" width="135.258" height="67.629" fill="white" stroke="#1E1E1E" stroke-width="2" stroke-linecap="round"/>
<path d="M493.501 67.6451H491.637L495.824 56.0088H497.853L502.04 67.6451H500.177L496.887 58.1224H496.796L493.501 67.6451ZM493.813 63.0883H499.859V64.5656H493.813V63.0883ZM503.28 67.6451V58.9179H506.9C507.885 58.9179 508.665 59.1281 509.241 59.5486C509.816 59.9652 510.104 60.5315 510.104 61.2474C510.104 61.7588 509.941 62.1641 509.616 62.4633C509.29 62.7626 508.858 62.9633 508.32 63.0656C508.71 63.1111 509.068 63.2285 509.394 63.4179C509.72 63.6035 509.981 63.8535 510.178 64.1679C510.379 64.4823 510.479 64.8573 510.479 65.2929C510.479 65.755 510.36 66.1641 510.121 66.5201C509.883 66.8724 509.536 67.1489 509.082 67.3497C508.631 67.5467 508.087 67.6451 507.451 67.6451H503.28ZM504.877 66.2247H507.451C507.871 66.2247 508.201 66.1243 508.439 65.9236C508.678 65.7228 508.797 65.4501 508.797 65.1054C508.797 64.7001 508.678 64.3819 508.439 64.1508C508.201 63.916 507.871 63.7986 507.451 63.7986H504.877V66.2247ZM504.877 62.5542H506.917C507.235 62.5542 507.508 62.5088 507.735 62.4179C507.966 62.327 508.142 62.1982 508.263 62.0315C508.388 61.8611 508.451 61.6603 508.451 61.4292C508.451 61.0921 508.313 60.8289 508.036 60.6395C507.76 60.4501 507.381 60.3554 506.9 60.3554H504.877V62.5542ZM511.55 60.3838V58.9179H518.914V60.3838H516.067V67.6451H514.408V60.3838H511.55ZM523.677 67.8213C522.858 67.8213 522.144 67.6338 521.535 67.2588C520.925 66.8838 520.451 66.3592 520.114 65.6849C519.777 65.0107 519.608 64.2228 519.608 63.3213C519.608 62.416 519.777 61.6243 520.114 60.9463C520.451 60.2682 520.925 59.7417 521.535 59.3667C522.144 58.9917 522.858 58.8042 523.677 58.8042C524.495 58.8042 525.209 58.9917 525.819 59.3667C526.429 59.7417 526.902 60.2682 527.239 60.9463C527.576 61.6243 527.745 62.416 527.745 63.3213C527.745 64.2228 527.576 65.0107 527.239 65.6849C526.902 66.3592 526.429 66.8838 525.819 67.2588C525.209 67.6338 524.495 67.8213 523.677 67.8213ZM523.682 66.3951C524.213 66.3951 524.652 66.255 525.001 65.9747C525.349 65.6944 525.607 65.3213 525.773 64.8554C525.944 64.3895 526.029 63.8762 526.029 63.3156C526.029 62.7588 525.944 62.2474 525.773 61.7815C525.607 61.3118 525.349 60.9349 525.001 60.6508C524.652 60.3667 524.213 60.2247 523.682 60.2247C523.148 60.2247 522.705 60.3667 522.353 60.6508C522.004 60.9349 521.745 61.3118 521.574 61.7815C521.408 62.2474 521.324 62.7588 521.324 63.3156C521.324 63.8762 521.408 64.3895 521.574 64.8554C521.745 65.3213 522.004 65.6944 522.353 65.9747C522.705 66.255 523.148 66.3951 523.682 66.3951ZM529.337 70.9179V58.9179H530.996V60.3326H531.138C531.237 60.1508 531.379 59.9406 531.564 59.702C531.75 59.4633 532.008 59.255 532.337 59.077C532.667 58.8951 533.102 58.8042 533.644 58.8042C534.349 58.8042 534.977 58.9823 535.53 59.3383C536.083 59.6944 536.517 60.2076 536.831 60.8781C537.15 61.5486 537.309 62.3554 537.309 63.2986C537.309 64.2417 537.152 65.0504 536.837 65.7247C536.523 66.3951 536.091 66.9122 535.542 67.2758C534.992 67.6357 534.366 67.8156 533.661 67.8156C533.131 67.8156 532.697 67.7266 532.36 67.5486C532.027 67.3705 531.765 67.1622 531.576 66.9236C531.386 66.6849 531.241 66.4728 531.138 66.2872H531.036V70.9179H529.337ZM531.002 63.2815C531.002 63.8951 531.091 64.433 531.269 64.8951C531.447 65.3573 531.705 65.719 532.042 65.9804C532.379 66.2379 532.792 66.3667 533.28 66.3667C533.788 66.3667 534.212 66.2323 534.553 65.9633C534.894 65.6906 535.152 65.3213 535.326 64.8554C535.504 64.3895 535.593 63.8648 535.593 63.2815C535.593 62.7057 535.506 62.1887 535.331 61.7304C535.161 61.272 534.903 60.9103 534.559 60.6451C534.218 60.38 533.792 60.2474 533.28 60.2474C532.788 60.2474 532.371 60.3743 532.03 60.6281C531.693 60.8819 531.438 61.2361 531.263 61.6906C531.089 62.1451 531.002 62.6754 531.002 63.2815ZM542.584 67.8213C541.74 67.8213 541.012 67.63 540.402 67.2474C539.796 66.8611 539.33 66.3289 539.005 65.6508C538.679 64.9728 538.516 64.1963 538.516 63.3213C538.516 62.4349 538.683 61.6527 539.016 60.9747C539.349 60.2929 539.819 59.7607 540.425 59.3781C541.031 58.9955 541.745 58.8042 542.567 58.8042C543.23 58.8042 543.821 58.9273 544.34 59.1736C544.859 59.416 545.277 59.7569 545.596 60.1963C545.918 60.6357 546.109 61.1489 546.169 61.7361H544.516C544.425 61.327 544.217 60.9747 543.891 60.6792C543.569 60.3838 543.137 60.2361 542.596 60.2361C542.122 60.2361 541.707 60.3611 541.351 60.6111C540.999 60.8573 540.724 61.2095 540.527 61.6679C540.33 62.1224 540.232 62.6603 540.232 63.2815C540.232 63.9179 540.329 64.4671 540.522 64.9292C540.715 65.3914 540.988 65.7493 541.34 66.0031C541.696 66.2569 542.115 66.3838 542.596 66.3838C542.918 66.3838 543.209 66.3251 543.471 66.2076C543.736 66.0864 543.957 65.9141 544.135 65.6906C544.317 65.4671 544.444 65.1982 544.516 64.8838H546.169C546.109 65.4482 545.925 65.952 545.618 66.3951C545.312 66.8383 544.901 67.1868 544.385 67.4406C543.874 67.6944 543.274 67.8213 542.584 67.8213ZM547.682 67.6451V58.9179H549.381V62.577H550.199L553.08 58.9179H555.182L551.802 63.1622L555.222 67.6451H553.114L550.483 64.1565H549.381V67.6451H547.682ZM557.902 65.2645L561.749 58.9179H563.579V67.6451H561.914V61.2929L558.084 67.6451H556.238V58.9179H557.902V65.2645ZM569.32 67.8213C568.46 67.8213 567.72 67.6376 567.098 67.2701C566.481 66.8989 566.004 66.3781 565.667 65.7076C565.333 65.0334 565.167 64.2436 565.167 63.3383C565.167 62.4444 565.333 61.6565 565.667 60.9747C566.004 60.2929 566.473 59.7607 567.076 59.3781C567.682 58.9955 568.39 58.8042 569.201 58.8042C569.693 58.8042 570.17 58.8857 570.633 59.0486C571.095 59.2114 571.509 59.4671 571.877 59.8156C572.244 60.1641 572.534 60.6167 572.746 61.1736C572.958 61.7266 573.064 62.3989 573.064 63.1906V63.7929H566.127V62.5201H571.4C571.4 62.0732 571.309 61.6773 571.127 61.3326C570.945 60.9842 570.689 60.7095 570.36 60.5088C570.034 60.308 569.651 60.2076 569.212 60.2076C568.735 60.2076 568.318 60.3251 567.962 60.5599C567.61 60.791 567.337 61.094 567.144 61.469C566.954 61.8402 566.86 62.2436 566.86 62.6792V63.6736C566.86 64.2569 566.962 64.7531 567.167 65.1622C567.375 65.5713 567.665 65.8838 568.036 66.0997C568.407 66.3118 568.841 66.4179 569.337 66.4179C569.659 66.4179 569.953 66.3724 570.218 66.2815C570.483 66.1868 570.712 66.0467 570.905 65.8611C571.098 65.6754 571.246 65.4463 571.348 65.1736L572.956 65.4633C572.828 65.9368 572.597 66.3516 572.263 66.7076C571.934 67.0599 571.519 67.3345 571.019 67.5315C570.523 67.7247 569.956 67.8213 569.32 67.8213ZM492.096 91.6451V82.9179H493.795V86.577H494.613L497.494 82.9179H499.596L496.216 87.1622L499.636 91.6451H497.528L494.898 88.1565H493.795V91.6451H492.096ZM503.969 91.8213C503.15 91.8213 502.436 91.6338 501.827 91.2588C501.217 90.8838 500.743 90.3592 500.406 89.6849C500.069 89.0107 499.9 88.2228 499.9 87.3213C499.9 86.416 500.069 85.6243 500.406 84.9463C500.743 84.2682 501.217 83.7417 501.827 83.3667C502.436 82.9917 503.15 82.8042 503.969 82.8042C504.787 82.8042 505.501 82.9917 506.111 83.3667C506.72 83.7417 507.194 84.2682 507.531 84.9463C507.868 85.6243 508.037 86.416 508.037 87.3213C508.037 88.2228 507.868 89.0107 507.531 89.6849C507.194 90.3592 506.72 90.8838 506.111 91.2588C505.501 91.6338 504.787 91.8213 503.969 91.8213ZM503.974 90.3951C504.505 90.3951 504.944 90.255 505.292 89.9747C505.641 89.6944 505.899 89.3213 506.065 88.8554C506.236 88.3895 506.321 87.8762 506.321 87.3156C506.321 86.7588 506.236 86.2474 506.065 85.7815C505.899 85.3118 505.641 84.9349 505.292 84.6508C504.944 84.3667 504.505 84.2247 503.974 84.2247C503.44 84.2247 502.997 84.3667 502.645 84.6508C502.296 84.9349 502.037 85.3118 501.866 85.7815C501.7 86.2474 501.616 86.7588 501.616 87.3156C501.616 87.8762 501.7 88.3895 501.866 88.8554C502.037 89.3213 502.296 89.6944 502.645 89.9747C502.997 90.255 503.44 90.3951 503.974 90.3951ZM515.544 86.5486V88.0201H510.817V86.5486H515.544ZM511.294 82.9179V91.6451H509.629V82.9179H511.294ZM516.731 82.9179V91.6451H515.072V82.9179H516.731ZM522.376 91.8213C521.532 91.8213 520.804 91.63 520.194 91.2474C519.588 90.8611 519.122 90.3289 518.797 89.6508C518.471 88.9728 518.308 88.1963 518.308 87.3213C518.308 86.4349 518.475 85.6527 518.808 84.9747C519.141 84.2929 519.611 83.7607 520.217 83.3781C520.823 82.9955 521.537 82.8042 522.359 82.8042C523.022 82.8042 523.613 82.9273 524.132 83.1736C524.651 83.416 525.069 83.7569 525.388 84.1963C525.71 84.6357 525.901 85.1489 525.961 85.7361H524.308C524.217 85.327 524.009 84.9747 523.683 84.6792C523.361 84.3838 522.929 84.2361 522.388 84.2361C521.914 84.2361 521.499 84.3611 521.143 84.6111C520.791 84.8573 520.516 85.2095 520.319 85.6679C520.122 86.1224 520.024 86.6603 520.024 87.2815C520.024 87.9179 520.121 88.4671 520.314 88.9292C520.507 89.3914 520.78 89.7493 521.132 90.0031C521.488 90.2569 521.907 90.3838 522.388 90.3838C522.71 90.3838 523.001 90.3251 523.263 90.2076C523.528 90.0864 523.749 89.9141 523.927 89.6906C524.109 89.4671 524.236 89.1982 524.308 88.8838H525.961C525.901 89.4482 525.717 89.952 525.41 90.3951C525.103 90.8383 524.692 91.1868 524.177 91.4406C523.666 91.6944 523.066 91.8213 522.376 91.8213ZM527.474 91.6451V82.9179H534.594V91.6451H532.929V84.3838H529.128V91.6451H527.474ZM540.322 91.8213C539.462 91.8213 538.722 91.6376 538.101 91.2701C537.483 90.8989 537.006 90.3781 536.669 89.7076C536.335 89.0334 536.169 88.2436 536.169 87.3383C536.169 86.4444 536.335 85.6565 536.669 84.9747C537.006 84.2929 537.476 83.7607 538.078 83.3781C538.684 82.9955 539.392 82.8042 540.203 82.8042C540.695 82.8042 541.173 82.8857 541.635 83.0486C542.097 83.2114 542.512 83.4671 542.879 83.8156C543.246 84.1641 543.536 84.6167 543.748 85.1736C543.96 85.7266 544.067 86.3989 544.067 87.1906V87.7929H537.129V86.5201H542.402C542.402 86.0732 542.311 85.6773 542.129 85.3326C541.947 84.9842 541.692 84.7095 541.362 84.5088C541.036 84.308 540.654 84.2076 540.214 84.2076C539.737 84.2076 539.32 84.3251 538.964 84.5599C538.612 84.791 538.339 85.094 538.146 85.469C537.957 85.8402 537.862 86.2436 537.862 86.6792V87.6736C537.862 88.2569 537.964 88.7531 538.169 89.1622C538.377 89.5713 538.667 89.8838 539.038 90.0997C539.409 90.3118 539.843 90.4179 540.339 90.4179C540.661 90.4179 540.955 90.3724 541.22 90.2815C541.485 90.1868 541.714 90.0467 541.907 89.8611C542.101 89.6754 542.248 89.4463 542.351 89.1736L543.959 89.4633C543.83 89.9368 543.599 90.3516 543.265 90.7076C542.936 91.0599 542.521 91.3345 542.021 91.5315C541.525 91.7247 540.959 91.8213 540.322 91.8213ZM545.647 91.6451V82.9179H547.346V86.577H548.164L551.045 82.9179H553.147L549.767 87.1622L553.187 91.6451H551.079L548.449 88.1565H547.346V91.6451H545.647ZM553.714 84.3838V82.9179H561.078V84.3838H558.231V91.6451H556.572V84.3838H553.714ZM563.849 85.9179H566.383C567.451 85.9179 568.273 86.183 568.849 86.7133C569.425 87.2436 569.713 87.9273 569.713 88.7645C569.713 89.3099 569.584 89.8004 569.326 90.2361C569.069 90.6717 568.692 91.0164 568.196 91.2701C567.699 91.5201 567.095 91.6451 566.383 91.6451H562.571V82.9179H564.235V90.1792H566.383C566.872 90.1792 567.273 90.0523 567.588 89.7986C567.902 89.541 568.059 89.2133 568.059 88.8156C568.059 88.3951 567.902 88.0523 567.588 87.7872C567.273 87.5182 566.872 87.3838 566.383 87.3838H563.849V85.9179ZM570.951 91.6451V82.9179H572.65V91.6451H570.951Z" fill="black" fill-opacity="0.8"/>
<path d="M285.456 146.104L285.64 145.122L283.675 144.752L283.49 145.734L285.456 146.104ZM266.538 217.196C265.995 217.094 265.486 217.686 265.669 218.208L268.61 226.587C268.793 227.108 269.561 227.252 269.921 226.833L275.707 220.097C276.067 219.678 275.808 218.941 275.265 218.839L266.538 217.196ZM283.49 145.734L269.734 218.815L271.699 219.185L285.456 146.104L283.49 145.734Z" fill="#1E1E1E"/>
<path d="M222.88 89.5261L223.824 89.8546L224.482 87.9656L223.537 87.6371L222.88 89.5261ZM151.411 58.9075C151.593 58.3859 151.082 57.7948 150.54 57.8985L141.817 59.5657C141.275 59.6694 141.018 60.4071 141.379 60.825L147.184 67.5453C147.545 67.9632 148.313 67.8166 148.494 67.295L151.411 58.9075ZM223.537 87.6371L149.337 61.8282L148.68 63.7172L222.88 89.5261L223.537 87.6371Z" fill="#1E1E1E"/>
<path d="M358.309 100.297L357.321 100.455L357.637 102.43L358.625 102.272L358.309 100.297ZM451.126 90.9555C451.213 91.5009 451.942 91.7796 452.371 91.4314L459.264 85.8319C459.692 85.4837 459.569 84.7125 459.053 84.5153L450.757 81.346C450.242 81.1489 449.635 81.6414 449.723 82.1867L451.126 90.9555ZM358.625 102.272L451.569 87.4006L451.254 85.4257L358.309 100.297L358.625 102.272Z" fill="#1E1E1E"/>
</svg>
