<svg width="40" height="40" viewBox="0 0 40 40" fill="none" xmlns="http://www.w3.org/2000/svg">
<rect x="0.5" y="0.5" width="39" height="39" fill="white" stroke="#222222"/>
<path d="M17.3822 24.8017V12.8333H21.002V19.4503V20.0074L21.5558 19.9474C23.1311 19.7769 24.6838 18.8024 25.9524 17.4579C27.1442 16.1949 28.1265 14.5633 28.6777 12.8333H32.3137C31.4053 16.7521 28.4858 19.6543 26.3892 20.874L25.5668 21.3525L26.4273 21.7584C28.5274 22.749 31.8632 25.2891 33.3297 29.8333H29.2737C28.0625 26.4255 25.2618 23.7747 21.5518 23.4033L21.002 23.3482V23.9008V29.8333H20.9468C16.1733 29.8333 12.4756 28.1919 9.93427 25.2243C7.46143 22.3366 6.03767 18.139 5.84761 12.8333H9.75324C10.0487 20.8778 13.6625 24.5073 16.7602 25.2866L17.3822 25.4431V24.8017Z" stroke="black"/>
</svg>
