<svg width="60" height="61" viewBox="0 0 60 61" fill="none" xmlns="http://www.w3.org/2000/svg">
<rect x="0.5" y="1" width="59" height="59" fill="white" stroke="#222222"/>
<path d="M25.8234 37.7027V19.5H31.753V29.6756V30.2327L32.3069 30.1727C34.5894 29.9256 36.8673 28.5074 38.7468 26.5154C40.5497 24.6048 42.0291 22.1226 42.8328 19.5H48.7822C47.4841 25.6165 42.9526 30.1406 39.7096 32.0272L38.8871 32.5057L39.7477 32.9116C42.9941 34.443 48.1662 38.3976 50.3351 45.5H43.7331C41.975 40.3812 37.8134 36.4056 32.3029 35.8538L31.753 35.7988V36.3513V45.5H31.4203C24.1982 45.5 18.5779 43.0141 14.7115 38.4991C10.9142 34.0647 8.76201 27.6177 8.51299 19.5H14.8716C15.2483 31.6679 20.6694 37.0475 25.2014 38.1876L25.8234 38.344V37.7027Z" fill="#0077EE" stroke="black"/>
</svg>
