<svg width="40" height="40" viewBox="0 0 40 40" fill="none" xmlns="http://www.w3.org/2000/svg">
<rect x="0.5" y="0.5" width="39" height="39" fill="white" stroke="#222222"/>
<path d="M17.3824 24.8017V12.8333H21.0022V19.4503V20.0074L21.556 19.9474C23.1313 19.7769 24.684 18.8024 25.9526 17.4579C27.1444 16.1949 28.1267 14.5633 28.6779 12.8333H32.3139C31.4055 16.7521 28.486 19.6543 26.3894 20.874L25.567 21.3525L26.4275 21.7584C28.5276 22.749 31.8634 25.2891 33.3298 29.8333H29.2739C28.0627 26.4255 25.262 23.7747 21.552 23.4033L21.0022 23.3482V23.9008V29.8333H20.947C16.1735 29.8333 12.4758 28.1919 9.93445 25.2243C7.46161 22.3366 6.03786 18.139 5.84779 12.8333H9.75342C10.0489 20.8778 13.6627 24.5073 16.7604 25.2866L17.3824 25.4431V24.8017Z" stroke="#222222"/>
</svg>
